<svg version="1.1" id="Layer_1" xmlns="http://www.w3.org/2000/svg" xmlns:xlink="http://www.w3.org/1999/xlink" x="0px" y="0px"
	 width="100%" viewBox="0 0 500 500" enable-background="new 0 0 500 500" xml:space="preserve">
<path fill="#FFFFFF" opacity="1.000000" stroke="none" 
	d="
M1.381989,228.038574 
	C1.000000,153.688110 1.025947,79.376190 0.913729,5.064476 
	C0.908774,1.782938 1.377049,0.895061 4.933419,0.897617 
	C168.886002,1.015457 332.838715,1.016576 496.791290,0.894815 
	C500.507080,0.892055 501.090088,1.793015 501.087921,5.288983 
	C500.986908,169.074966 500.980408,332.861084 501.113586,496.647003 
	C501.116913,500.716339 499.842346,501.081696 496.355408,501.078094 
	C401.882812,500.980255 307.410034,501.000000 212.468658,501.000000 
	C210.802582,499.665771 210.647751,498.022125 210.573120,496.335907 
	C209.278458,467.076569 206.400391,437.970001 202.622650,408.927765 
	C197.650360,370.702087 189.012390,333.281219 178.714645,296.200531 
	C177.943405,293.423431 177.251663,290.710907 178.953644,287.620880 
	C180.865921,285.530334 182.902466,286.207825 184.833817,286.516327 
	C196.121414,288.319336 206.722519,285.824860 215.545807,279.064453 
	C222.507629,273.730286 229.719528,272.957184 237.600937,273.976349 
	C248.176697,275.343933 258.544464,275.091492 268.568298,271.139435 
	C271.640564,269.928162 273.866852,271.009186 276.418610,272.599365 
	C286.965546,279.171722 294.462708,288.725952 302.078461,298.203003 
	C305.545441,302.517334 310.030579,305.742615 314.320435,309.154907 
	C315.344147,309.969177 316.716492,310.702026 318.019897,309.928772 
	C319.532196,309.031586 318.731476,307.510071 318.438751,306.304260 
	C317.784454,303.608765 317.894867,301.026794 319.244202,298.158142 
	C319.747192,297.396637 320.112274,297.028076 320.841888,296.514160 
	C322.437531,295.220886 321.373535,294.616669 320.624176,294.045593 
	C307.989532,284.417175 297.615845,272.346283 285.803162,261.830994 
	C285.054688,261.164734 284.332977,260.463593 283.882416,259.551392 
	C281.194153,254.108658 288.827423,240.421722 294.798157,239.492401 
	C306.708282,237.638626 318.762146,238.178665 330.690948,237.889374 
	C350.990936,237.397064 371.297852,236.642365 391.613129,236.377975 
	C415.402771,236.068390 439.214691,235.426041 462.975983,234.248444 
	C472.904327,233.756393 482.965210,234.619186 493.560211,232.420425 
	C490.842590,231.376755 488.476562,231.611557 486.444946,230.716812 
	C484.365906,229.801163 482.453644,228.412399 482.658936,225.960938 
	C482.887909,223.226151 485.328186,222.909485 487.538300,222.664917 
	C489.180023,222.483246 490.852173,222.658524 492.663544,222.356232 
	C491.432037,221.091934 490.001404,221.404755 488.779358,221.523010 
	C465.039551,223.820724 441.196503,222.656311 417.440216,223.679031 
	C394.111359,224.683350 370.794800,223.591751 347.508118,224.561783 
	C329.073212,225.329712 310.583191,225.208069 292.209106,227.235855 
	C288.224609,227.675598 284.961273,226.703201 282.650696,223.254730 
	C282.281433,222.703644 282.691772,223.420288 282.359131,222.851166 
	C270.675293,202.860413 252.062759,204.175034 233.141037,207.137421 
	C229.135178,207.764572 225.876465,207.774384 222.223785,205.752335 
	C213.444580,200.892319 204.132523,198.182373 193.921646,200.596512 
	C188.927322,201.777313 184.412201,203.776566 180.964325,207.646622 
	C177.938873,211.042557 173.741852,212.958145 170.298553,216.446350 
	C167.654205,218.184235 166.329330,216.324615 164.884964,215.082764 
	C163.121643,213.566605 162.027298,211.421982 160.321365,209.864487 
	C155.057297,205.058426 149.166473,202.868118 142.154510,205.865265 
	C140.177689,206.710205 138.183136,207.513458 135.710648,208.088409 
	C134.087448,208.339371 132.836639,208.523392 131.196381,208.446106 
	C121.402512,200.234177 111.257652,200.717697 100.351677,205.942322 
	C99.217400,206.144135 98.450958,206.150131 97.300629,206.039856 
	C93.264473,204.936096 90.379044,202.123825 86.491814,201.555420 
	C79.937668,200.597061 74.022537,201.889481 68.540695,206.385834 
	C67.226448,206.998550 66.206848,207.086899 64.788330,206.867584 
	C58.167046,203.277069 54.082008,197.062241 47.546692,193.312805 
	C40.716297,188.012466 33.438972,186.868576 25.743263,189.581589 
	C12.170816,194.366379 5.099012,204.197647 4.269421,218.731567 
	C4.083392,221.990677 4.104978,225.367783 1.381989,228.038574 
z"/>
<path fill="#82531E" opacity="1.000000" stroke="none" 
	d="
M180.284698,285.977173 
	C178.746796,290.254730 179.631393,293.998962 180.735870,297.948700 
	C192.484116,339.962158 201.355652,382.545349 206.196259,425.953156 
	C208.945084,450.603119 211.175446,475.275146 212.000427,500.533417 
	C208.638718,501.000000 205.277420,501.000000 201.458069,501.000000 
	C199.913086,491.604279 200.797653,482.174896 200.525787,472.764893 
	C200.454285,470.290070 200.524567,467.811615 200.503784,465.334900 
	C200.426102,476.934052 200.568329,488.533630 200.214539,500.566315 
	C178.312439,501.000000 156.624878,501.000000 134.468658,501.000000 
	C133.371277,497.922821 136.701859,497.319244 137.525589,495.386230 
	C135.692307,497.110504 134.117050,499.411469 131.268280,500.786438 
	C129.933334,501.000000 128.866653,501.000000 127.399994,501.000000 
	C124.512527,496.308838 124.947281,491.075684 124.222397,485.676300 
	C125.070610,481.725525 128.977249,481.043335 130.513870,478.535034 
	C128.793686,479.663910 127.616905,482.269012 124.454178,481.838562 
	C121.593925,476.176056 121.550995,470.213898 120.497749,464.110352 
	C121.327469,461.313995 124.746994,461.990631 125.116730,459.836761 
	C124.172852,460.669617 122.924660,462.111755 120.525208,461.145447 
	C117.353249,456.194458 117.214607,450.720337 116.158173,445.132202 
	C123.752365,436.923035 132.071762,429.938660 140.632843,422.749084 
	C141.115814,422.541565 141.309204,422.486389 141.751541,422.417969 
	C142.228302,422.614746 142.474655,422.640686 142.553528,422.445251 
	C142.367538,422.407959 142.010773,422.124969 141.757477,422.079956 
	C134.527634,427.058990 128.609985,433.303833 122.103584,438.870087 
	C120.496559,440.244873 119.334030,442.235077 116.599525,442.433197 
	C112.226250,437.967377 112.715828,431.989563 110.675613,426.518555 
	C110.467781,425.687408 110.325356,425.221985 110.005890,424.434418 
	C107.573990,418.709991 105.742577,413.165527 104.292053,407.146576 
	C104.475060,405.619781 105.301483,404.329407 103.456833,403.227570 
	C100.697792,399.058594 99.750366,394.510345 98.200607,389.834717 
	C100.647713,385.445648 104.339111,382.604126 107.882050,379.679291 
	C113.007904,375.447571 118.034698,371.110809 122.973656,366.667694 
	C114.558220,373.318542 106.843407,380.785431 98.205193,387.680847 
	C92.278641,386.060150 89.009605,381.875183 86.397766,376.661011 
	C91.785408,370.376312 98.270424,365.682343 104.045105,360.202271 
	C107.901894,356.542175 111.791580,352.905121 115.504074,349.079315 
	C106.147827,357.993103 96.521896,366.604919 86.414841,375.187744 
	C80.862572,373.769012 78.370689,368.999359 74.531204,365.282959 
	C74.056862,364.649353 73.777107,364.296417 73.237267,363.724792 
	C69.091911,360.316162 65.472992,356.811707 61.417736,353.336853 
	C61.218727,352.531616 61.233635,352.060364 61.460548,351.261505 
	C69.748444,343.649841 77.823174,336.286407 85.751205,328.257385 
	C91.166336,324.345978 95.117325,319.380371 100.254570,314.787903 
	C94.746437,318.676086 91.028267,323.586212 86.187241,327.808350 
	C78.417427,333.997314 72.425491,341.604462 64.810486,347.444061 
	C63.765800,348.245148 62.826572,349.199677 61.123337,349.559998 
	C56.286095,346.778717 51.644150,344.120026 51.187614,337.678131 
	C55.270473,331.697052 61.215523,328.116943 66.010910,323.325592 
	C67.289856,322.047699 68.893707,321.090729 70.186050,319.549103 
	C63.041744,324.278076 58.017693,331.296539 50.434048,335.784790 
	C48.076515,336.226288 46.442013,335.521881 45.210957,334.006561 
	C30.353577,315.718597 22.495796,295.239227 25.674974,271.327454 
	C25.871895,269.846313 26.030796,268.321136 27.973408,267.407959 
	C30.165367,267.292389 31.211073,268.531830 32.557587,269.957855 
	C37.277893,278.513855 43.851353,285.121155 50.071476,292.008118 
	C50.727917,292.734894 51.414139,293.822021 52.453644,293.494385 
	C53.959309,293.019714 53.445362,291.571167 53.269150,290.495270 
	C52.196354,283.945129 51.238544,277.375031 49.884094,270.513306 
	C49.613415,268.522522 49.188614,266.921906 48.820740,264.953735 
	C48.655899,263.209747 48.177197,261.924713 47.420837,260.361725 
	C46.931110,259.170349 46.674091,258.267059 46.246681,257.045349 
	C44.891018,251.344757 42.978718,246.227615 40.340271,240.999023 
	C39.449463,238.699799 38.713619,236.721191 37.339905,234.644241 
	C36.643028,233.488983 36.260620,232.597565 36.281235,231.220093 
	C42.354939,222.601120 49.671349,215.689621 58.091141,209.922394 
	C59.623310,208.872894 61.218777,208.030960 63.495205,208.037949 
	C70.814621,210.175369 73.396088,216.942596 78.066887,221.486420 
	C79.565445,222.944214 80.424110,225.048157 82.786469,225.733688 
	C78.998741,218.234558 72.626472,212.723740 67.459305,205.893402 
	C78.711197,197.777847 85.846283,197.679321 96.766907,205.393799 
	C99.722221,211.384888 104.351128,215.467224 108.741806,219.767120 
	C107.406906,214.023941 101.244484,211.545944 99.902473,205.584137 
	C104.917000,203.001907 109.687660,200.299072 115.387566,200.572372 
	C121.410934,200.861191 126.588921,202.957260 130.831268,207.795425 
	C134.942581,212.412537 138.189178,217.338516 142.432480,221.451752 
	C141.765213,215.965469 136.501846,213.293961 134.851257,208.207535 
	C148.899780,200.380981 154.572327,201.414261 164.923965,213.321838 
	C166.003357,214.563461 167.140182,215.755142 168.582947,217.049011 
	C169.979248,217.537384 170.520889,218.497452 171.399033,219.557007 
	C172.158218,220.687286 172.670868,221.598648 173.416214,222.730103 
	C173.799347,223.341751 174.018326,223.690506 174.428436,224.284286 
	C174.744919,224.695389 174.873901,224.859207 175.192841,225.275879 
	C175.500824,225.706192 175.618881,225.883621 175.897812,226.340027 
	C177.000717,228.589432 178.027847,230.519302 179.010468,232.851868 
	C179.624542,234.523773 180.235291,235.823074 180.947266,237.497162 
	C182.297348,242.547989 183.455063,247.248184 183.391510,252.552917 
	C183.432800,254.322342 183.384659,255.684662 183.416458,257.455353 
	C183.332169,259.486237 183.328308,261.109863 183.345551,263.135925 
	C183.353088,264.070618 183.349258,264.603088 183.341248,265.530884 
	C183.349518,267.233917 183.277145,268.538940 183.181366,270.231293 
	C183.111206,270.872833 183.072296,271.127289 182.950668,271.756531 
	C182.197861,274.559875 181.770386,277.035797 181.399109,279.911255 
	C181.246674,282.116180 181.452988,283.987579 180.284698,285.977173 
z"/>
<path fill="#FFFFFE" opacity="1.000000" stroke="none" 
	d="
M74.764130,363.957672 
	C78.364677,367.834045 81.794174,371.393219 85.513962,375.124817 
	C86.036476,375.368835 86.268692,375.440460 86.578781,375.868164 
	C89.971962,379.838989 93.287270,383.453705 96.889435,387.187561 
	C98.214012,387.155457 98.499352,387.841461 98.773956,389.030823 
	C100.519394,393.757660 102.163925,398.105377 104.040077,402.750854 
	C104.797264,403.730591 105.367767,404.392059 105.249115,405.651825 
	C107.001915,411.764160 108.823875,417.561768 110.838593,423.672638 
	C111.325958,424.294708 111.585762,424.630646 111.879417,425.302979 
	C112.627823,431.091949 114.796455,436.179779 116.250290,441.811523 
	C117.173141,442.054993 117.513885,442.401245 117.230637,443.589905 
	C118.265160,449.468079 119.491241,454.926697 120.935860,460.705933 
	C121.425728,461.423889 121.562439,461.863159 121.420120,462.666626 
	C122.455132,469.074524 123.634926,475.160004 124.964432,481.613831 
	C125.410294,482.359467 125.535629,482.786835 125.401535,483.600739 
	C125.907112,489.332306 126.501251,494.727478 127.047699,500.561310 
	C86.383499,501.000000 45.766640,500.925018 5.151089,501.121246 
	C1.281976,501.139893 0.919816,500.001282 0.924244,496.660889 
	C1.023097,422.086456 1.000000,347.511871 1.000000,272.468658 
	C1.376882,271.640564 1.825269,271.450439 2.710480,271.510193 
	C7.186358,276.224335 8.089143,282.322144 10.315848,287.791504 
	C16.641985,303.330170 25.028215,317.416504 36.702362,329.651642 
	C44.504517,337.828735 52.629665,345.540527 61.781456,352.717651 
	C66.409248,355.347382 69.364388,359.356781 73.300751,362.592896 
	C73.970627,362.909943 74.298866,363.259247 74.764130,363.957672 
z"/>
<path fill="#744918" opacity="1.000000" stroke="none" 
	d="
M1.000000,228.399994 
	C3.181290,224.650330 2.715204,220.772232 2.903278,217.119598 
	C3.775654,200.176941 18.180826,186.485001 35.044151,186.903809 
	C40.107330,187.029541 44.513477,189.093399 48.778030,192.328003 
	C44.806606,197.129852 39.373474,200.141754 34.908043,204.325882 
	C25.739119,212.917221 18.258451,222.749420 12.777656,234.085724 
	C11.699163,236.316437 10.772712,238.648163 8.886360,240.828842 
	C8.391706,241.172791 8.172567,241.277771 7.589699,241.402954 
	C5.751985,241.027145 4.843852,239.866943 3.559660,238.630173 
	C1.881114,236.688477 1.559179,234.644287 1.216319,232.268494 
	C1.000000,230.933334 1.000000,229.866653 1.000000,228.399994 
z"/>
<path fill="#FCFCFC" opacity="1.000000" stroke="none" 
	d="
M6.590371,240.678436 
	C7.178277,240.907120 7.344951,240.951187 7.763482,240.936584 
	C11.554009,240.018539 15.222560,240.286911 19.222084,239.617096 
	C24.796629,239.584000 29.836855,238.201019 35.001678,238.520966 
	C36.811886,238.633118 38.664314,238.438904 40.637703,239.805328 
	C44.041531,245.140106 45.729309,250.727524 47.392891,256.717346 
	C45.225025,258.920776 42.652538,258.466858 40.215725,258.489929 
	C35.090027,258.538483 29.958748,258.319031 24.415215,259.008636 
	C18.829563,257.957794 13.682740,256.514679 8.107052,259.092499 
	C5.649757,259.361267 3.601016,259.637665 1.352574,258.262695 
	C1.000000,252.645065 1.000000,247.290146 1.000000,241.467606 
	C2.604318,239.618851 4.346566,239.646194 6.590371,240.678436 
z"/>
<path fill="#A17E55" opacity="1.000000" stroke="none" 
	d="
M200.250000,501.000000 
	C200.000000,489.381775 200.000000,477.763550 200.000000,466.145325 
	C200.336578,466.143524 200.673172,466.141724 201.009750,466.139923 
	C201.009750,477.447540 201.009750,488.755127 201.004883,500.531372 
	C201.000000,501.000000 200.500000,501.000000 200.250000,501.000000 
z"/>
<path fill="#613B11" opacity="1.000000" stroke="none" 
	d="
M131.375000,501.000000 
	C133.600464,497.669739 136.554260,494.713257 139.899811,492.171204 
	C140.240417,492.444611 140.581009,492.718018 140.921616,492.991455 
	C138.697678,495.454407 136.473755,497.917358 134.124908,500.690125 
	C133.250000,501.000000 132.500000,501.000000 131.375000,501.000000 
z"/>
<path fill="#080707" opacity="1.000000" stroke="none" 
	d="
M1.000000,258.399994 
	C3.035477,257.956085 5.070953,257.912170 7.535380,257.950806 
	C8.412997,260.681335 6.249385,261.648132 4.421096,263.192505 
	C3.077583,263.539490 2.234831,263.195007 1.256144,262.244171 
	C1.000000,260.933319 1.000000,259.866669 1.000000,258.399994 
z"/>
<path fill="#0C0C0C" opacity="1.000000" stroke="none" 
	d="
M6.882425,240.577454 
	C5.292131,240.941971 3.572659,241.020874 1.426594,241.049896 
	C1.000000,240.250000 1.000000,239.500000 1.000000,238.375000 
	C1.640725,237.434998 2.358595,237.234787 3.531553,237.727356 
	C4.837820,238.708176 5.795534,239.500000 6.882425,240.577454 
z"/>
<path fill="#E6E6E6" opacity="1.000000" stroke="none" 
	d="
M1.000000,262.416656 
	C2.013602,261.652008 2.702686,262.151794 3.599662,263.039551 
	C5.019100,264.446228 4.331246,265.587982 3.411224,267.006287 
	C2.652444,267.505737 2.150326,267.561584 1.314672,267.223389 
	C1.000000,265.611115 1.000000,264.222198 1.000000,262.416656 
z"/>
<path fill="#080604" opacity="1.000000" stroke="none" 
	d="
M1.000001,267.416687 
	C1.420320,266.959656 1.840637,266.919312 2.577710,266.858826 
	C4.207970,268.011627 4.160124,269.413696 3.284643,271.239471 
	C2.519446,271.579468 2.048641,271.585541 1.288918,271.795807 
	C1.000000,270.611115 1.000000,269.222198 1.000001,267.416687 
z"/>
<path fill="#F4F4F4" opacity="1.000000" stroke="none" 
	d="
M3.810746,237.582153 
	C3.137794,238.076904 2.395479,238.237473 1.326582,238.199005 
	C1.000000,236.285645 1.000000,234.571289 0.999998,232.428467 
	C1.913791,233.749329 2.827587,235.498642 3.810746,237.582153 
z"/>
<path fill="#0C0C0C" opacity="1.000000" stroke="none" 
	d="
M182.361176,258.484619 
	C182.226898,256.747040 182.237137,255.292725 182.223694,253.402100 
	C183.524063,251.668961 185.251648,251.542542 186.865326,251.780212 
	C196.182785,253.152542 205.807281,251.992401 214.901291,255.158020 
	C217.555191,256.081879 220.063538,256.143707 222.449310,254.368393 
	C224.359436,252.947021 226.438416,252.955994 228.569702,253.914246 
	C229.626801,254.389542 230.673874,254.919708 231.808456,255.177246 
	C233.248581,255.504135 234.930618,256.079437 235.820145,254.421539 
	C236.578979,253.007248 235.368469,251.957458 234.423004,251.022293 
	C233.600616,250.208878 232.602875,249.565933 231.967209,248.572220 
	C231.068542,247.167328 230.974045,245.732925 232.169876,244.474060 
	C233.486526,243.088028 234.830078,243.514603 236.088150,244.650238 
	C236.457382,244.983505 236.787750,245.358047 237.152435,245.694717 
	C241.937088,250.111740 243.821579,249.472000 245.716827,242.501678 
	C248.216415,239.954773 251.198380,241.119385 253.896622,240.706390 
	C254.989685,240.539093 256.481812,240.750336 256.602783,239.178421 
	C256.707520,237.817856 255.475342,237.230698 254.379547,236.851837 
	C249.925018,235.311768 247.201096,237.950958 244.371155,241.203888 
	C243.850754,241.524826 243.619492,241.619125 243.012268,241.769455 
	C240.432632,241.782425 239.041702,240.303848 237.608963,238.935974 
	C235.573593,236.992706 233.443710,235.112122 231.655548,232.956253 
	C227.514664,227.963837 222.759476,226.857285 216.659515,229.251770 
	C210.508316,231.666351 204.136215,233.536819 197.755692,235.325058 
	C191.970856,236.946335 186.112015,237.713287 179.787964,237.152252 
	C179.000488,235.692612 178.536819,234.448227 178.040619,232.865753 
	C178.291229,231.211609 177.660599,229.782928 178.728363,228.277512 
	C182.932297,228.122528 186.590454,231.179672 190.774536,229.280411 
	C188.075348,224.487091 184.659592,223.930115 179.445038,227.694153 
	C177.363754,228.875107 176.576141,227.318253 175.271149,226.185638 
	C175.029083,225.914474 175.016769,225.989166 175.054504,225.992203 
	C174.936981,225.864807 174.781738,225.734375 174.407715,225.392670 
	C173.910553,224.820389 173.632141,224.459427 173.205826,223.782730 
	C174.900146,222.327744 177.355103,222.933502 179.488266,221.080795 
	C176.801193,219.484894 174.249161,221.270416 171.576202,220.613586 
	C170.233505,219.827454 169.303360,219.110596 168.998703,217.469360 
	C169.874573,214.790680 170.969162,212.742432 173.849426,212.126877 
	C176.028214,211.661255 177.515503,209.832367 178.881714,208.181473 
	C187.076538,198.279037 197.943497,197.651459 209.383347,199.509109 
	C215.156021,200.446487 220.518295,202.782806 225.430756,206.022385 
	C226.657562,206.831406 227.648056,207.893066 229.423569,207.064896 
	C238.486771,202.837463 247.956818,204.997482 257.388580,205.013519 
	C270.245819,205.035370 277.108917,212.992325 283.344818,222.253540 
	C285.318481,225.184708 287.375000,226.326889 291.061981,226.073273 
	C337.085327,222.907532 383.194305,223.165131 429.289703,222.738098 
	C446.405701,222.579529 463.516388,221.715652 480.625397,221.065826 
	C483.599030,220.952881 486.543121,220.204849 489.517456,219.928207 
	C492.429352,219.657394 495.158417,220.076355 496.972321,223.386642 
	C494.114777,224.693924 491.473358,223.566742 488.833740,223.274429 
	C486.622925,223.029587 483.943878,222.997543 483.392731,225.517227 
	C482.781586,228.311432 485.224060,229.346725 487.626678,230.045380 
	C490.986481,231.022400 494.924988,230.157669 498.606567,233.700394 
	C489.554626,234.168716 481.408386,234.752121 473.252136,234.984695 
	C433.844360,236.108429 394.432709,237.096466 355.024872,238.217926 
	C335.076630,238.785599 315.135437,239.607285 295.186279,240.133972 
	C291.519409,240.230789 289.322021,241.465378 288.261780,245.010498 
	C286.980988,249.293259 284.088623,253.636078 284.462158,257.717865 
	C284.829773,261.734924 290.143463,263.703430 293.170532,266.688324 
	C303.672729,277.044281 313.695068,287.929688 326.024902,296.378113 
	C324.490601,298.347137 323.027313,296.977478 321.344055,296.987305 
	C317.608154,296.858398 316.141846,293.900238 313.872681,292.122559 
	C312.841644,291.314789 311.754028,290.165527 310.396912,291.098785 
	C308.798340,292.198090 309.558044,293.702606 310.213104,295.060852 
	C312.210175,299.201599 313.927246,299.673584 319.692505,297.803955 
	C318.666290,301.588470 318.787811,305.143494 320.157349,308.677765 
	C321.428650,311.958435 319.710144,312.486206 317.063171,311.901062 
	C314.910370,311.425171 313.126556,310.123474 311.488525,308.721130 
	C305.676422,303.745331 299.896515,298.645477 295.641052,292.258575 
	C289.957855,283.728760 281.672791,278.168762 273.890411,271.987457 
	C272.946106,271.237427 272.109192,270.619598 270.787811,271.300446 
	C258.401581,277.682587 245.162964,275.507690 232.194839,274.639343 
	C226.710144,274.272125 222.804352,275.408661 218.284439,278.695679 
	C207.174805,286.774841 194.717194,290.757843 180.403778,286.381531 
	C180.086563,284.264282 180.166824,282.268311 180.293213,279.836670 
	C184.021774,280.638519 187.647049,282.734955 191.470169,279.583771 
	C192.202866,278.979828 193.422256,279.470184 194.334137,279.885071 
	C201.426773,283.112091 206.647659,280.253357 211.083557,274.781677 
	C212.322037,273.253998 214.216415,273.040436 215.896103,272.378021 
	C217.235168,271.849976 219.137466,271.434326 218.302124,269.395996 
	C217.533447,267.520294 215.831055,268.229156 214.413696,268.672577 
	C209.955765,270.067169 205.925476,272.407532 201.802246,274.519684 
	C197.541534,276.702271 193.087082,277.569092 188.341965,277.205444 
	C185.322281,276.973999 182.838470,276.009460 181.791870,272.488586 
	C181.782028,271.900391 181.781601,271.664246 181.879486,271.087830 
	C183.807739,269.739380 185.501266,270.793243 187.250305,271.084076 
	C191.808701,271.842010 196.342438,272.328308 201.452835,269.200958 
	C194.722122,267.779510 188.720963,267.681366 182.471527,266.832062 
	C182.103653,265.990906 182.073425,265.283752 182.106506,264.049072 
	C183.516235,262.024261 183.059311,260.399536 182.361176,258.484619 
z"/>
<path fill="#794D1B" opacity="1.000000" stroke="none" 
	d="
M19.347321,240.191055 
	C15.686272,241.489273 12.330133,242.632309 8.392077,240.997787 
	C14.405034,227.077911 22.142084,214.193024 33.610344,203.931885 
	C38.163998,199.857529 42.767902,195.803711 48.609131,192.757568 
	C53.919998,196.888458 58.834919,201.148834 63.876770,205.721329 
	C64.581863,206.708694 64.734184,207.474808 64.252350,208.658997 
	C57.462070,209.904114 53.498940,214.976761 48.893112,218.796951 
	C44.596264,222.360855 41.019047,226.792374 36.952442,231.164810 
	C36.120163,231.665527 35.540016,231.509659 34.874378,230.806976 
	C34.897640,229.426331 34.082905,228.807785 33.318913,227.807098 
	C33.016010,227.239594 32.918587,226.925308 32.766804,226.641495 
	C31.808292,224.849243 31.702915,221.610672 29.566986,221.716354 
	C27.341560,221.826462 27.727329,225.051849 26.927635,227.261841 
	C26.630320,228.226120 26.341600,228.830902 25.931097,229.741592 
	C25.441830,230.839249 25.116287,231.647598 24.741089,232.791534 
	C23.350351,235.692551 22.289562,238.438461 19.347321,240.191055 
z"/>
<path fill="#623B10" opacity="1.000000" stroke="none" 
	d="
M64.319649,209.132797 
	C64.015297,208.253021 64.018707,207.513031 64.012909,206.403244 
	C64.902397,205.862350 65.801086,205.691238 67.043045,205.533798 
	C74.094765,210.554321 78.733620,217.436264 83.854218,223.867355 
	C84.664024,224.884430 85.891670,226.593262 83.952957,227.686432 
	C82.482834,228.515366 81.204330,227.670792 80.154610,226.324524 
	C76.713814,221.911636 73.198250,217.555984 69.653084,213.226105 
	C68.283981,211.553909 66.642181,210.158463 64.319649,209.132797 
z"/>
<path fill="#F6F6F6" opacity="1.000000" stroke="none" 
	d="
M320.203308,297.899719 
	C319.119690,297.874298 318.110931,297.826599 317.871246,298.792969 
	C316.485870,304.378571 314.099976,301.057617 311.963928,299.473785 
	C311.310608,298.989319 310.747467,298.324493 310.291870,297.642792 
	C308.618805,295.139435 306.281677,291.942200 308.933441,289.626190 
	C311.787140,287.133759 314.109467,290.588745 316.252930,292.437225 
	C317.749359,293.727753 319.195465,295.076721 320.835449,296.687592 
	C320.815216,297.247345 320.623535,297.519073 320.203308,297.899719 
z"/>
<path fill="#633C10" opacity="1.000000" stroke="none" 
	d="
M134.647400,207.799438 
	C137.913681,211.664734 140.837021,215.451385 143.789352,219.215256 
	C144.781296,220.479843 145.605316,221.831772 144.130676,223.147461 
	C142.409653,224.682999 141.206802,223.011765 140.516922,221.916901 
	C137.632935,217.339966 133.039474,214.009750 131.005371,208.460480 
	C132.093979,207.971939 133.204880,207.841904 134.647400,207.799438 
z"/>
<path fill="#623B10" opacity="1.000000" stroke="none" 
	d="
M99.620125,205.207214 
	C102.501450,209.778137 106.659035,212.963867 109.643570,217.110611 
	C110.667191,218.532822 111.848022,220.068237 110.324219,221.452988 
	C108.837471,222.804016 107.331718,221.266617 106.681221,220.094330 
	C103.943352,215.160355 97.419678,212.896637 97.033859,205.997833 
	C97.777267,205.482941 98.510437,205.323837 99.620125,205.207214 
z"/>
<path fill="#FBFBFB" opacity="1.000000" stroke="none" 
	d="
M179.564819,237.347809 
	C193.548859,236.108368 206.670486,231.307175 219.832520,226.853729 
	C224.449005,225.291733 227.447983,226.919357 230.406586,229.862259 
	C234.281738,233.716888 237.459152,238.313934 242.690216,241.207901 
	C243.615234,241.535294 244.209000,241.401642 245.341980,241.574829 
	C246.941528,244.023132 247.304596,246.179367 245.520844,248.220245 
	C242.720886,251.423813 240.404938,251.078934 237.519211,247.934845 
	C236.399017,246.714371 235.163544,242.232071 232.411041,245.308777 
	C229.890335,248.126389 234.133072,248.598938 235.452789,249.952332 
	C237.114349,251.656250 239.330750,253.410156 238.109192,255.781097 
	C236.832657,258.258728 233.782547,257.594269 231.800491,256.721802 
	C227.760910,254.943634 224.032944,253.045776 220.301544,257.188477 
	C219.800430,257.744843 218.859940,257.852356 217.967636,257.507111 
	C206.699280,253.147079 194.723068,254.326096 182.627808,253.021973 
	C182.380783,247.725800 181.040527,242.739319 179.564819,237.347809 
z"/>
<path fill="#7D501C" opacity="1.000000" stroke="none" 
	d="
M3.122419,271.938263 
	C2.976522,270.257721 2.962793,268.942017 2.921762,267.232544 
	C3.155235,265.822083 3.416010,264.805420 3.786235,263.493042 
	C5.154007,261.669830 6.412330,260.142334 7.817492,258.324127 
	C12.699062,255.327057 17.504114,255.091202 22.715130,257.828613 
	C24.092030,258.817871 25.433855,259.203827 26.408539,260.626587 
	C27.506159,262.661316 28.639853,264.302002 29.519951,266.445709 
	C29.551388,266.997955 29.519619,267.219940 29.283375,267.708984 
	C26.601482,268.265839 27.191256,270.189026 26.980158,271.774078 
	C23.869732,295.129639 31.774296,315.035309 45.964699,333.044373 
	C47.181446,334.588531 48.441971,335.082306 50.573887,334.992004 
	C51.533638,335.299774 51.826542,335.810913 51.988472,336.730896 
	C51.725082,343.150574 57.449749,344.943115 60.719658,348.863953 
	C61.644363,349.297333 62.100399,349.736328 62.142113,350.714478 
	C61.998566,351.455170 61.998287,351.899628 61.997223,352.677399 
	C60.001194,351.846375 57.822029,350.911499 56.038731,349.482605 
	C34.400330,332.144745 17.077536,311.574951 7.944663,284.903473 
	C6.493319,280.664978 4.823434,276.501373 3.122419,271.938263 
z"/>
<path fill="#FAF9F8" opacity="1.000000" stroke="none" 
	d="
M50.554268,269.704529 
	C52.204758,277.317627 53.498535,284.635773 54.762383,291.959106 
	C54.984692,293.247253 55.330952,294.623993 53.919384,295.542145 
	C52.374069,296.547333 51.436737,295.485229 50.587082,294.455872 
	C44.293758,286.831329 36.689541,280.245239 32.010616,270.881378 
	C37.847115,268.110840 43.956341,267.770020 50.554268,269.704529 
z"/>
<path fill="#F0F0F0" opacity="1.000000" stroke="none" 
	d="
M181.512650,272.357361 
	C185.625565,278.638947 191.509811,276.904266 196.708328,275.147614 
	C202.937744,273.042511 208.759689,269.755249 214.865814,267.241577 
	C216.076782,266.743042 217.490448,265.422333 219.355164,267.870026 
	C221.914139,271.229034 221.086823,272.113922 217.726807,272.967957 
	C216.133240,273.372955 214.579483,273.937653 213.014786,274.451630 
	C212.434204,274.642395 211.360947,275.042267 211.377106,275.098511 
	C213.456604,282.341522 206.187897,278.393646 204.079254,281.055023 
	C201.263535,284.608765 197.152863,282.764526 193.657806,280.951508 
	C192.820770,280.517303 192.092834,279.694916 191.081955,280.771179 
	C187.330383,284.765442 184.024536,282.904846 180.586182,279.657349 
	C180.640503,277.126709 180.941666,274.852448 181.512650,272.357361 
z"/>
<path fill="#080707" opacity="1.000000" stroke="none" 
	d="
M50.925579,269.614075 
	C44.861954,270.171387 38.802746,270.345093 32.304790,270.527954 
	C31.104830,269.773163 30.343618,269.009186 29.330654,268.110657 
	C29.078899,267.976074 29.031128,267.507538 29.049934,267.272827 
	C30.591269,264.159943 27.985685,263.134613 26.361778,261.321747 
	C25.180340,260.255920 24.246094,259.426086 23.177086,258.315277 
	C30.812277,257.741150 38.582230,257.447937 46.847466,257.142456 
	C47.623180,257.878784 47.903618,258.627411 48.147377,259.680115 
	C47.611168,261.487213 48.400818,262.518524 49.616299,263.720398 
	C50.205769,265.719208 50.567883,267.474792 50.925579,269.614075 
z"/>
<path fill="#EEEEEE" opacity="1.000000" stroke="none" 
	d="
M182.027496,267.023621 
	C189.551163,265.351379 196.675049,267.666626 204.378571,267.874451 
	C199.717117,273.689362 192.271454,274.585510 182.361923,270.870056 
	C181.958893,269.614746 181.940002,268.481964 182.027496,267.023621 
z"/>
<path fill="#633C10" opacity="1.000000" stroke="none" 
	d="
M86.977264,376.051697 
	C86.322556,376.196838 86.073204,376.037109 85.856422,375.521118 
	C95.682358,364.811371 106.854927,355.787506 118.046280,346.755524 
	C109.016258,357.769165 98.701653,367.398956 86.977264,376.051697 
z"/>
<path fill="#080604" opacity="1.000000" stroke="none" 
	d="
M19.480408,240.407837 
	C20.559187,237.938049 22.077629,235.551483 23.875759,232.955536 
	C28.460310,234.552856 32.708195,236.827057 37.854935,234.265106 
	C39.101803,235.904846 40.025692,237.656067 40.968727,239.751984 
	C33.965275,240.228149 26.942673,240.359604 19.480408,240.407837 
z"/>
<path fill="#633C10" opacity="1.000000" stroke="none" 
	d="
M99.026268,389.086853 
	C98.390968,388.925018 97.907082,388.440094 97.299744,387.630920 
	C103.085258,383.513824 107.327019,377.825836 112.844582,373.561676 
	C116.871758,370.449310 120.547050,366.881653 124.489479,363.420135 
	C125.891518,366.671204 123.572563,368.065002 121.926300,369.486542 
	C114.403862,375.982300 106.770920,382.350067 99.026268,389.086853 
z"/>
<path fill="#633C10" opacity="1.000000" stroke="none" 
	d="
M62.345245,350.979187 
	C61.739849,350.516785 61.480858,350.022858 61.121681,349.268372 
	C67.495461,344.350983 72.949059,338.577637 78.542313,332.960419 
	C80.537231,330.956940 82.677719,329.188965 85.650360,328.038818 
	C82.789551,334.559601 76.851028,338.708466 71.666336,343.360382 
	C68.790337,345.940857 66.458214,349.365875 62.345245,350.979187 
z"/>
<path fill="#F0F0F0" opacity="1.000000" stroke="none" 
	d="
M37.995293,233.908112 
	C38.107098,234.636230 38.207573,235.267624 37.938206,235.577789 
	C35.875988,237.952271 26.352764,236.255341 24.451286,233.006866 
	C24.160721,231.884445 23.823421,230.963715 24.821033,229.993103 
	C28.129332,228.226822 31.232796,228.139862 34.675114,229.945297 
	C35.409775,230.644684 35.834988,230.971985 36.520012,231.393448 
	C37.124104,232.212616 37.468388,232.937622 37.995293,233.908112 
z"/>
<path fill="#633C10" opacity="1.000000" stroke="none" 
	d="
M52.304581,336.882080 
	C51.677719,336.555237 51.349419,336.075714 50.988319,335.293182 
	C57.039982,329.428711 63.125774,323.868683 69.207443,318.304138 
	C70.101540,317.486053 71.095909,316.591034 72.128586,317.894958 
	C72.995453,318.989502 71.835701,319.706360 71.161407,320.307495 
	C64.995628,325.804260 58.794182,331.260986 52.304581,336.882080 
z"/>
<path fill="#613B11" opacity="1.000000" stroke="none" 
	d="
M117.344589,443.869263 
	C116.832909,443.609070 116.626732,443.208679 116.411903,442.468353 
	C121.796524,438.292694 126.442719,433.593079 131.356506,429.202606 
	C134.438843,426.448517 137.532089,423.706635 140.629517,420.969604 
	C141.486710,420.212128 142.323456,419.874878 142.952606,421.592896 
	C142.840881,422.226990 142.624680,422.506927 142.120651,422.875854 
	C135.241852,428.834839 128.611130,434.679535 121.939789,440.477539 
	C120.588577,441.651947 119.083969,442.649811 117.344589,443.869263 
z"/>
<path fill="#633C10" opacity="1.000000" stroke="none" 
	d="
M107.767609,329.751831 
	C108.756477,328.960327 109.388359,327.803467 110.481064,328.674194 
	C111.252037,329.288544 110.979599,330.280334 110.432083,330.899902 
	C106.164406,335.729309 101.388512,340.024841 96.377571,344.065063 
	C95.789932,344.538849 95.182510,344.622925 94.677299,343.954681 
	C93.670036,342.622406 94.655739,341.697510 95.532814,341.045471 
	C99.922485,337.782135 103.657219,333.823669 107.767609,329.751831 
z"/>
<path fill="#633C10" opacity="1.000000" stroke="none" 
	d="
M86.004555,328.004822 
	C89.349457,321.435181 95.339241,317.431183 100.738518,312.859070 
	C101.327957,312.359955 102.048172,312.499908 102.405243,313.179138 
	C102.593483,313.537231 102.610046,314.354279 102.390221,314.504364 
	C96.659721,318.416992 93.504173,325.320892 86.356926,327.994385 
	C85.990364,327.990387 85.999939,328.000000 86.004555,328.004822 
z"/>
<path fill="#633C10" opacity="1.000000" stroke="none" 
	d="
M78.579758,360.628906 
	C76.170822,361.021698 75.591141,360.026978 77.025902,358.620972 
	C81.045517,354.681885 85.260277,350.941925 89.399818,347.125336 
	C90.116531,346.464508 90.887360,346.313416 91.459061,347.223267 
	C92.141182,348.308838 91.415001,349.118835 90.672173,349.796722 
	C86.758102,353.368744 82.820557,356.915009 78.579758,360.628906 
z"/>
<path fill="#633C10" opacity="1.000000" stroke="none" 
	d="
M82.368195,310.150696 
	C81.502388,310.848053 81.014961,311.817566 80.052773,311.274597 
	C79.243271,310.817810 78.818886,309.727081 79.574913,309.213470 
	C84.396584,305.937714 87.554512,300.535583 93.379196,298.480316 
	C91.061371,303.525116 86.663147,306.561340 82.368195,310.150696 
z"/>
<path fill="#613B11" opacity="1.000000" stroke="none" 
	d="
M146.215668,442.821228 
	C140.868576,447.166046 135.827316,451.317108 130.741028,455.486145 
	C134.762115,448.900024 140.943222,444.497742 146.894745,439.901672 
	C147.787628,441.146881 147.306259,441.925751 146.215668,442.821228 
z"/>
<path fill="#633C10" opacity="1.000000" stroke="none" 
	d="
M85.719345,283.154724 
	C82.912209,287.508209 78.254326,289.498627 75.162933,293.200195 
	C74.510933,293.980896 73.361252,294.362518 72.573067,293.385559 
	C71.941315,292.602509 72.650368,291.828033 73.256767,291.281250 
	C76.808586,288.078491 80.337852,284.847107 83.990974,281.763062 
	C84.826561,281.057648 85.408112,282.045288 85.719345,283.154724 
z"/>
<path fill="#E6E6E6" opacity="1.000000" stroke="none" 
	d="
M171.372375,220.696579 
	C173.726730,219.509628 176.197311,218.478226 178.892548,218.632965 
	C179.956390,218.694061 181.456345,218.610855 181.787766,220.010315 
	C182.162979,221.594772 180.902893,222.407303 179.656143,222.883728 
	C177.804688,223.591217 175.888245,224.165222 173.457413,223.538300 
	C172.414886,222.694702 171.445099,222.125519 171.372375,220.696579 
z"/>
<path fill="#633C10" opacity="1.000000" stroke="none" 
	d="
M75.164452,269.240417 
	C73.951241,270.131409 73.033859,270.834717 72.060555,271.449524 
	C70.918343,272.170990 70.020401,274.623627 68.619667,273.277466 
	C66.964706,271.687012 69.171768,270.400269 70.259964,269.335846 
	C71.309807,268.308990 72.564888,267.462769 73.821396,266.685181 
	C74.914108,266.008972 75.704941,263.473206 77.227257,265.129059 
	C78.889626,266.937225 76.243164,267.772766 75.164452,269.240417 
z"/>
<path fill="#633C10" opacity="1.000000" stroke="none" 
	d="
M45.623455,319.538330 
	C44.212032,319.550262 43.753494,318.651978 44.248211,317.947540 
	C46.485779,314.761475 48.736164,311.473907 54.420586,311.075867 
	C51.082203,314.351044 48.506996,316.877472 45.623455,319.538330 
z"/>
<path fill="#613B11" opacity="1.000000" stroke="none" 
	d="
M152.711731,480.972961 
	C151.702423,485.113953 148.058533,487.153137 144.549820,489.351532 
	C146.510818,486.009460 148.863647,483.019379 152.711731,480.972961 
z"/>
<path fill="#613B11" opacity="1.000000" stroke="none" 
	d="
M125.571655,483.753479 
	C125.208008,483.506836 125.103035,483.076508 125.056099,482.314178 
	C128.190002,480.255463 129.768204,476.638397 133.977676,474.903412 
	C132.285995,479.548218 128.653992,481.184967 125.571655,483.753479 
z"/>
<path fill="#613B11" opacity="1.000000" stroke="none" 
	d="
M138.262573,473.191772 
	C137.332565,473.829803 136.525299,474.680695 135.992905,474.533997 
	C134.800735,474.205536 135.352814,473.268707 135.938187,472.699280 
	C137.898209,470.792816 139.522125,468.479980 142.637939,466.850098 
	C142.434311,470.223602 139.803589,471.145874 138.262573,473.191772 
z"/>
<path fill="#613B11" opacity="1.000000" stroke="none" 
	d="
M110.335251,399.226105 
	C112.437675,397.467194 113.637062,395.136505 116.669632,394.082825 
	C115.760216,397.878967 113.102386,399.964966 110.546082,401.303802 
	C108.742218,402.248535 109.469612,400.365387 110.335251,399.226105 
z"/>
<path fill="#613B11" opacity="1.000000" stroke="none" 
	d="
M121.622696,462.977112 
	C121.206566,462.554962 121.137794,462.120880 121.111717,461.356689 
	C124.419380,460.918274 125.139969,456.715363 129.007568,456.291687 
	C127.131081,459.578552 125.407791,462.125916 121.622696,462.977112 
z"/>
<path fill="#9B754A" opacity="1.000000" stroke="none" 
	d="
M200.005096,444.455566 
	C200.012772,449.166656 200.012772,453.438171 200.012772,457.709686 
	C199.784409,457.713074 199.556030,457.716492 199.327667,457.719879 
	C199.327667,452.212860 199.327667,446.705872 199.327667,441.198853 
	C199.445129,441.175293 199.562576,441.151764 199.680038,441.128204 
	C199.785828,442.090820 199.891617,443.053406 200.005096,444.455566 
z"/>
<path fill="#613B11" opacity="1.000000" stroke="none" 
	d="
M150.188812,462.869019 
	C147.914932,463.718872 147.172455,466.317810 144.361130,466.742462 
	C144.922012,463.523743 147.628067,462.313812 149.634857,460.246368 
	C150.240906,460.582062 150.521942,461.037567 150.901550,461.742126 
	C150.928711,462.340912 150.737152,462.594360 150.188812,462.869019 
z"/>
<path fill="#613B11" opacity="1.000000" stroke="none" 
	d="
M118.719841,418.720703 
	C117.671593,419.667053 117.055725,420.719452 115.264526,420.598969 
	C115.961533,417.736328 117.975121,416.475769 120.117393,415.147217 
	C121.295395,417.039886 119.543777,417.526917 118.719841,418.720703 
z"/>
<path fill="#DFDCDA" opacity="1.000000" stroke="none" 
	d="
M174.920380,226.257141 
	C176.816132,225.660019 177.424408,227.094162 178.564850,228.064362 
	C178.781693,229.360016 178.709030,230.771988 178.322235,232.355804 
	C176.942596,230.551712 175.877136,228.575760 174.920380,226.257141 
z"/>
<path fill="#613B11" opacity="1.000000" stroke="none" 
	d="
M122.761765,390.669800 
	C121.953415,391.144928 121.278160,391.710388 120.835037,391.565582 
	C120.083710,391.320007 120.219948,390.472473 120.698471,389.991425 
	C122.034882,388.647797 123.034485,386.870056 125.376945,386.232910 
	C125.948433,388.549591 123.870499,389.183502 122.761765,390.669800 
z"/>
<path fill="#613B11" opacity="1.000000" stroke="none" 
	d="
M128.217651,410.217743 
	C127.247108,410.953247 126.556633,412.319824 125.623215,411.326813 
	C124.739304,410.386536 125.976265,409.592041 126.623375,408.996490 
	C127.382019,408.298340 128.116516,406.707794 129.308380,407.647369 
	C130.364410,408.479828 128.943695,409.246613 128.217651,410.217743 
z"/>
<path fill="#9B754A" opacity="1.000000" stroke="none" 
	d="
M199.025772,429.156006 
	C199.022797,431.355927 199.022797,433.134369 199.022797,434.912811 
	C198.772186,434.911835 198.521576,434.910889 198.270966,434.909912 
	C198.270966,431.609650 198.270966,428.309418 198.270966,424.705048 
	C199.404312,426.136292 198.861008,427.488586 199.025772,429.156006 
z"/>
<path fill="#613B11" opacity="1.000000" stroke="none" 
	d="
M131.160782,381.658447 
	C130.878250,384.012329 129.635696,385.079285 127.401344,385.979889 
	C127.331909,383.389862 129.201752,382.626740 130.509247,381.176788 
	C130.935883,381.114227 131.102051,381.239716 131.160782,381.658447 
z"/>
<path fill="#DFDCDA" opacity="1.000000" stroke="none" 
	d="
M182.280243,258.580811 
	C183.598969,259.834564 186.015717,261.339081 182.525116,263.528076 
	C182.227829,262.001190 182.285828,260.480743 182.280243,258.580811 
z"/>
<path fill="#DFDCDA" opacity="1.000000" stroke="none" 
	d="
M49.781013,263.646973 
	C48.198856,263.268341 45.020458,263.550537 47.791840,260.114014 
	C49.426548,260.724823 49.083511,262.262482 49.781013,263.646973 
z"/>
<path fill="#9B754A" opacity="1.000000" stroke="none" 
	d="
M197.043793,419.041565 
	C197.009140,416.450623 197.009140,414.224060 197.009140,411.997498 
	C197.311462,412.003845 197.613770,412.010162 197.916092,412.016510 
	C197.916092,414.462402 197.920288,416.908356 197.904831,419.354156 
	C197.903976,419.490082 197.692627,419.751953 197.660065,419.739746 
	C197.453537,419.662262 197.269745,419.524109 197.043793,419.041565 
z"/>
<path fill="#613B11" opacity="1.000000" stroke="none" 
	d="
M136.877869,402.971588 
	C135.886932,403.405090 134.782043,404.187683 134.508972,403.248322 
	C134.091446,401.812042 135.293625,400.657440 136.632965,400.698334 
	C137.718033,400.731445 138.095535,401.828705 136.877869,402.971588 
z"/>
<path fill="#9B754A" opacity="1.000000" stroke="none" 
	d="
M196.959991,407.100861 
	C194.849915,405.906311 196.474289,403.934662 196.285767,402.172607 
	C197.396164,403.574188 196.861710,405.217316 196.959991,407.100861 
z"/>
<path fill="#613B11" opacity="1.000000" stroke="none" 
	d="
M105.440598,405.800659 
	C104.871300,405.202972 104.562660,404.439362 104.262863,403.362152 
	C106.171585,403.123840 108.042511,403.215118 105.440598,405.800659 
z"/>
<path fill="#9B754A" opacity="1.000000" stroke="none" 
	d="
M195.957672,393.783112 
	C196.000092,395.370392 196.000092,396.622101 196.000092,397.873779 
	C195.692886,397.883423 195.385666,397.893066 195.078461,397.902710 
	C195.078461,396.454468 195.072144,395.006165 195.089005,393.558105 
	C195.090561,393.424500 195.266617,393.170288 195.315765,393.181061 
	C195.524994,393.227020 195.716980,393.351624 195.957672,393.783112 
z"/>
<path fill="#9B754A" opacity="1.000000" stroke="none" 
	d="
M156.007767,495.526581 
	C155.981705,496.029175 156.008469,496.214722 155.934875,496.342438 
	C155.805496,496.566925 155.614716,496.756042 155.449661,496.959961 
	C154.468018,495.287720 155.174286,493.630493 155.126556,491.521545 
	C156.352692,492.929962 155.886337,494.105011 156.007767,495.526581 
z"/>
<path fill="#9B754A" opacity="1.000000" stroke="none" 
	d="
M155.011093,486.962280 
	C154.988800,487.617523 155.042694,487.974457 154.924103,488.259735 
	C154.810257,488.533569 154.514465,489.548584 154.243332,488.622375 
	C153.934860,487.568573 153.300659,486.119232 154.793060,485.212006 
	C154.865997,485.685577 154.938934,486.159119 155.011093,486.962280 
z"/>
<path fill="#9B754A" opacity="1.000000" stroke="none" 
	d="
M192.999390,379.381500 
	C194.720901,379.806213 193.927505,380.918823 193.127884,382.007996 
	C193.081863,381.240112 193.035828,380.472229 192.999390,379.381500 
z"/>
<path fill="#9B754A" opacity="1.000000" stroke="none" 
	d="
M194.727997,385.176483 
	C194.879700,386.647278 195.462509,387.948883 194.376678,389.156616 
	C193.887543,387.644226 193.608215,386.265778 194.727997,385.176483 
z"/>
<path fill="#9B754A" opacity="1.000000" stroke="none" 
	d="
M150.244278,463.190216 
	C150.098465,462.688965 150.295425,462.428894 150.782043,462.107117 
	C152.475006,463.082062 151.865982,464.565735 152.003403,466.154602 
	C150.398315,465.545288 151.348053,464.035583 150.244278,463.190216 
z"/>
<path fill="#9B754A" opacity="1.000000" stroke="none" 
	d="
M153.034210,480.959351 
	C153.124786,479.598267 152.555267,478.203278 153.500488,476.862122 
	C154.339706,478.128357 154.080627,479.304749 153.324921,480.704041 
	C153.067322,480.920959 153.020065,480.998688 153.034210,480.959351 
z"/>
<path fill="#9B754A" opacity="1.000000" stroke="none" 
	d="
M152.332184,470.073669 
	C153.261063,470.872498 153.128265,471.907623 152.608047,473.220825 
	C151.724487,472.220825 152.022766,471.226929 152.332184,470.073669 
z"/>
<path fill="#9B754A" opacity="1.000000" stroke="none" 
	d="
M185.954407,331.382507 
	C184.130936,331.092438 185.152649,329.970306 185.330963,328.931580 
	C186.285004,329.497040 185.909500,330.360535 185.954407,331.382507 
z"/>
<path fill="#9B754A" opacity="1.000000" stroke="none" 
	d="
M190.957672,361.398132 
	C189.112427,361.015991 190.231430,359.914154 190.690567,357.637939 
	C190.869980,359.639343 190.935638,360.371704 190.957672,361.398132 
z"/>
<path fill="#9B754A" opacity="1.000000" stroke="none" 
	d="
M188.000000,348.790833 
	C188.073456,348.030945 188.154434,347.578369 188.235413,347.125793 
	C188.447693,347.165131 188.846420,347.212585 188.845123,347.242676 
	C188.805801,348.148529 188.727600,349.052734 188.641190,349.955811 
	C188.640610,349.961853 188.367889,349.984467 188.345444,349.938812 
	C188.212585,349.668549 188.116180,349.380310 188.000000,348.790833 
z"/>
<path fill="#9B754A" opacity="1.000000" stroke="none" 
	d="
M149.051239,453.398102 
	C149.065414,452.366180 149.125015,451.631012 149.214645,450.525543 
	C150.265030,451.853760 150.124023,452.861084 149.718399,453.880524 
	C149.685196,453.963989 149.475311,454.063568 149.412720,454.030884 
	C149.283997,453.963623 149.199432,453.811859 149.051239,453.398102 
z"/>
<path fill="#9B754A" opacity="1.000000" stroke="none" 
	d="
M189.998108,354.197632 
	C189.927582,354.952789 189.846527,355.402283 189.765472,355.851807 
	C189.552048,355.812653 189.151093,355.764984 189.152435,355.735657 
	C189.193466,354.834290 189.273361,353.934631 189.361282,353.036133 
	C189.361847,353.030396 189.630356,353.009033 189.652374,353.054199 
	C189.783920,353.323792 189.879761,353.610809 189.998108,354.197632 
z"/>
<path fill="#9B754A" opacity="1.000000" stroke="none" 
	d="
M146.189697,443.080200 
	C146.259323,442.244171 146.621628,441.488586 147.028656,440.423096 
	C148.028122,441.352386 149.416687,442.675659 146.189697,443.080200 
z"/>
<path fill="#9B754A" opacity="1.000000" stroke="none" 
	d="
M191.665466,368.900391 
	C190.745880,368.104218 190.880524,367.075958 191.394333,365.772491 
	C192.265717,366.769135 191.971115,367.756195 191.665466,368.900391 
z"/>
<path fill="#9B754A" opacity="1.000000" stroke="none" 
	d="
M192.052734,374.388184 
	C192.066116,373.354156 192.125046,372.617462 192.213821,371.507416 
	C193.268188,372.837250 193.121277,373.848389 192.718765,374.870941 
	C192.685608,374.955109 192.474625,375.056976 192.413544,375.024384 
	C192.284805,374.955811 192.200714,374.803467 192.052734,374.388184 
z"/>
<path fill="#9B754A" opacity="1.000000" stroke="none" 
	d="
M149.916260,460.052094 
	C149.941818,459.070312 150.004547,458.088928 150.074509,456.994385 
	C151.557907,457.855896 150.924210,458.786560 150.221924,459.912354 
	C149.959885,460.126556 149.953430,460.052490 149.916260,460.052094 
z"/>
<path fill="#9B754A" opacity="1.000000" stroke="none" 
	d="
M186.661163,337.054810 
	C185.835892,336.520660 185.852737,335.136719 186.337006,335.117828 
	C187.485931,335.072968 186.820389,336.208069 186.661163,337.054810 
z"/>
<path fill="#9B754A" opacity="1.000000" stroke="none" 
	d="
M143.010956,423.252747 
	C143.266907,423.356537 143.528702,423.719574 143.764008,424.099030 
	C143.772919,424.113373 143.525650,424.286591 143.397751,424.385773 
	C143.269257,424.095428 143.140762,423.805115 143.010956,423.252747 
z"/>
<path fill="#DFDCDA" opacity="1.000000" stroke="none" 
	d="
M174.245453,225.408569 
	C174.538284,225.154556 174.840057,225.261734 175.093231,225.749054 
	C174.731842,226.088440 174.468430,225.968613 174.245453,225.408569 
z"/>
<path fill="#633C10" opacity="1.000000" stroke="none" 
	d="
M74.795609,363.938782 
	C74.499451,363.985657 74.063713,363.696472 73.618187,362.999939 
	C73.957611,362.929321 74.306824,363.266052 74.795609,363.938782 
z"/>
<path fill="#613B11" opacity="1.000000" stroke="none" 
	d="
M111.868950,425.299927 
	C111.647812,425.298248 111.352196,424.980652 111.043976,424.324524 
	C111.285728,424.318634 111.540100,424.651337 111.868950,425.299927 
z"/>
<path fill="#9B754A" opacity="1.000000" stroke="none" 
	d="
M142.163177,423.002502 
	C142.100204,422.722504 142.313507,422.438416 142.764816,422.029724 
	C143.011322,422.086090 143.019806,422.266998 143.018967,422.719299 
	C143.009628,422.990692 143.000320,422.999695 142.996155,423.003693 
	C142.807800,423.004608 142.623627,423.001495 142.163177,423.002502 
z"/>
<path fill="#9B754A" opacity="1.000000" stroke="none" 
	d="
M130.446838,378.421875 
	C130.527481,378.361969 130.553650,378.592010 130.553650,378.592010 
	C130.553650,378.592010 130.366211,378.481781 130.446838,378.421875 
z"/>
<path fill="#9B754A" opacity="1.000000" stroke="none" 
	d="
M131.235413,381.849854 
	C131.017883,381.788055 130.982422,381.624390 130.858337,381.224731 
	C131.156998,381.095673 131.681046,381.085876 131.235413,381.849854 
z"/>
<path fill="#F2F2F2" opacity="1.000000" stroke="none" 
	d="
M192.748001,224.244354 
	C193.379272,223.053818 193.949188,222.247070 194.544861,221.403839 
	C192.878357,220.175583 191.563797,222.204025 189.988342,221.985748 
	C188.910461,221.836395 187.545853,222.440170 187.014450,220.910004 
	C186.611557,219.749939 187.447281,219.146454 188.198044,218.447128 
	C195.940262,211.235458 213.574570,213.469986 219.394913,222.561325 
	C216.003189,224.496399 212.613495,222.858170 209.259583,222.666077 
	C207.476044,222.563934 205.025131,221.891479 206.492950,225.183304 
	C207.489487,227.418121 206.197449,227.898682 204.557373,228.047684 
	C200.178940,228.445404 195.893356,228.364838 192.748001,224.244354 
z"/>
<path fill="#F5F5F5" opacity="1.000000" stroke="none" 
	d="
M244.361542,231.642395 
	C243.604233,230.730133 243.009140,230.114044 242.682800,229.378677 
	C242.064911,227.986328 241.508606,226.279190 243.103821,225.364090 
	C244.520737,224.551300 245.382309,226.177536 246.378738,226.969315 
	C247.227982,227.644165 247.497025,229.117294 249.317032,228.897217 
	C250.333130,223.800934 243.820068,224.493576 242.996826,220.944550 
	C252.597931,217.625870 264.733551,221.083725 269.340942,228.746399 
	C263.083618,230.453705 256.354645,229.843933 250.674774,232.976044 
	C248.075317,234.409485 246.402130,233.632889 244.361542,231.642395 
z"/>
<path fill="#F4F4F4" opacity="1.000000" stroke="none" 
	d="
M256.450012,260.754425 
	C251.947403,261.271301 247.911667,262.399170 243.735474,261.971344 
	C242.060196,261.799713 240.111008,261.454559 239.430817,259.958862 
	C238.602524,258.137573 240.626480,257.108154 241.733322,256.082977 
	C248.057404,250.225494 255.635162,250.763123 258.953308,257.016357 
	C260.413452,259.768066 259.328583,260.478363 256.450012,260.754425 
z"/>
<path fill="#EDEDED" opacity="1.000000" stroke="none" 
	d="
M187.754578,259.385193 
	C186.540405,257.639923 185.013794,255.429565 188.271942,255.495285 
	C193.900635,255.608810 199.550812,256.254425 205.120804,257.129669 
	C208.920273,257.726685 211.929398,259.797577 212.667343,264.790741 
	C204.612778,261.334290 195.672592,264.079773 187.754578,259.385193 
z"/>
<path fill="#EEEEEE" opacity="1.000000" stroke="none" 
	d="
M271.852905,252.123856 
	C268.204163,254.488083 273.134888,258.685059 268.858673,260.434418 
	C265.824158,259.073547 262.969940,256.277649 260.914886,252.679977 
	C259.345795,249.933029 261.442627,245.522598 264.472168,244.852020 
	C265.115601,244.709610 265.767029,244.599411 266.404602,244.434982 
	C271.866302,243.026367 271.874298,243.025558 270.731842,248.267685 
	C270.460754,249.511597 270.714081,250.561584 271.852905,252.123856 
z"/>
<path fill="#F5F5F5" opacity="1.000000" stroke="none" 
	d="
M245.231598,270.740295 
	C243.700806,270.478668 242.419312,269.907043 241.446182,270.239105 
	C237.324020,271.645782 237.348572,268.245575 237.078247,266.187042 
	C236.600739,262.550873 239.857971,264.228760 241.284744,264.124786 
	C245.729309,263.800873 250.213242,263.957794 254.680054,264.035248 
	C255.985535,264.057892 257.318207,264.320831 258.579498,264.680420 
	C260.725708,265.292267 261.221710,267.294800 260.959961,268.975647 
	C260.693237,270.688843 258.792480,269.760681 257.598389,269.951721 
	C257.440491,269.977020 257.268799,269.929932 257.105316,269.904694 
	C253.202545,269.302460 249.101501,266.274414 245.231598,270.740295 
z"/>
<path fill="#F2F2F2" opacity="1.000000" stroke="none" 
	d="
M272.166077,253.185242 
	C272.043793,252.820679 272.012054,252.508743 271.981201,252.355042 
	C280.069550,251.470551 284.492462,262.244904 281.961487,270.101685 
	C281.353485,271.989075 280.046112,270.999420 279.168427,270.537964 
	C276.609985,269.192810 275.583496,266.770813 274.980560,264.079529 
	C274.188538,260.544006 274.357941,256.758789 272.166077,253.185242 
z"/>
<path fill="#F2F2F2" opacity="1.000000" stroke="none" 
	d="
M293.977417,280.791626 
	C289.781799,279.230804 286.493469,276.620270 284.909668,272.401245 
	C284.321381,270.834076 282.894653,268.819580 284.952576,267.507355 
	C286.837738,266.305267 289.155457,266.459534 290.945801,268.010559 
	C294.839508,271.383789 295.803558,275.617645 293.977417,280.791626 
z"/>
<path fill="#EEEEEE" opacity="1.000000" stroke="none" 
	d="
M236.962082,230.128189 
	C232.733597,225.563293 231.909790,219.905106 229.769257,214.557358 
	C237.194824,216.729156 241.399872,222.342896 241.039474,228.899796 
	C240.838654,232.553360 239.459854,232.360992 236.962082,230.128189 
z"/>
<path fill="#F2F2F2" opacity="1.000000" stroke="none" 
	d="
M412.902161,231.068817 
	C405.620117,234.866791 400.232727,233.253845 396.129395,226.464142 
	C405.919189,224.414017 410.113586,225.462296 412.902161,231.068817 
z"/>
<path fill="#EDEDED" opacity="1.000000" stroke="none" 
	d="
M419.250854,225.140915 
	C422.924469,224.812485 426.106537,225.039932 428.550995,227.439301 
	C430.286896,229.143173 430.548340,231.093552 427.622498,231.829742 
	C424.706482,232.563461 421.673553,232.650238 418.776031,231.650330 
	C416.871033,230.992920 414.818817,230.032471 414.759552,227.707199 
	C414.690521,224.998856 417.420990,225.977219 419.250854,225.140915 
z"/>
<path fill="#EEEEEE" opacity="1.000000" stroke="none" 
	d="
M380.449036,228.522659 
	C379.810760,227.389526 378.185669,226.389786 380.625031,225.950317 
	C384.440094,225.262970 388.199005,225.487411 391.963440,226.261566 
	C394.110718,226.703140 394.169434,228.208527 394.224457,229.998260 
	C394.289673,232.119797 392.834625,232.515564 391.416992,232.760391 
	C387.123199,233.501953 383.684448,231.705261 380.449036,228.522659 
z"/>
<path fill="#EDEDED" opacity="1.000000" stroke="none" 
	d="
M363.607300,229.297836 
	C363.279938,228.152023 362.886414,227.198471 364.109741,226.979736 
	C367.398438,226.391724 370.692413,226.229401 374.015961,226.887527 
	C376.099457,227.300125 377.540924,228.608078 377.571960,230.485229 
	C377.602356,232.326660 375.681183,233.172607 374.042664,233.505600 
	C369.866394,234.354324 366.097961,233.820099 363.607300,229.297836 
z"/>
<path fill="#EDEDED" opacity="1.000000" stroke="none" 
	d="
M467.423950,223.943176 
	C471.311279,223.821838 474.819794,223.397263 478.020844,225.153748 
	C479.727478,226.090195 480.996307,227.862701 480.595825,229.572739 
	C480.132874,231.549683 478.119904,230.181671 476.804596,230.160843 
	C473.680817,230.111328 470.503967,230.190292 467.562256,228.903305 
	C464.587646,227.601913 464.449829,226.121246 467.423950,223.943176 
z"/>
<path fill="#EEEEEE" opacity="1.000000" stroke="none" 
	d="
M453.008148,230.216553 
	C451.240417,228.772903 448.524078,227.636185 449.407837,225.708084 
	C450.237274,223.898499 453.095428,223.915436 455.228943,224.197906 
	C458.577850,224.641312 461.592163,225.846298 463.575073,228.816940 
	C464.130615,229.649200 463.911102,230.377213 463.089111,230.888290 
	C459.734589,232.973938 456.508636,232.254791 453.008148,230.216553 
z"/>
<path fill="#F6F6F6" opacity="1.000000" stroke="none" 
	d="
M245.002258,241.181671 
	C244.304535,236.682053 247.499634,235.741394 250.437790,235.130905 
	C253.873627,234.417053 257.054535,235.285263 258.849335,238.737885 
	C259.753479,240.477219 259.102783,241.546875 257.131561,241.796127 
	C253.696442,242.230530 250.263290,242.610443 246.350494,241.849121 
	C245.880569,241.825027 245.966934,241.894287 245.965927,241.949646 
	C245.718674,241.745392 245.425049,241.557953 245.002258,241.181671 
z"/>
<path fill="#EDEDED" opacity="1.000000" stroke="none" 
	d="
M297.980591,283.616364 
	C298.067139,281.183319 297.011627,277.961761 299.022858,277.514740 
	C301.828491,276.891205 303.558563,279.842438 304.562256,282.292358 
	C305.833099,285.394440 306.100586,288.670776 304.580475,291.964783 
	C300.697418,290.647278 298.615875,287.955475 297.980591,283.616364 
z"/>
<path fill="#F2F2F2" opacity="1.000000" stroke="none" 
	d="
M221.584793,207.372986 
	C224.726288,209.612946 227.554916,211.670364 227.927795,215.547394 
	C228.038147,216.694763 228.011490,217.975494 226.999588,218.738113 
	C225.722412,219.700714 224.853561,218.446976 224.090302,217.777435 
	C219.974442,214.166885 216.413162,210.192459 216.019730,203.896820 
	C218.006607,205.125793 219.648209,206.141190 221.584793,207.372986 
z"/>
<path fill="#F0F0F0" opacity="1.000000" stroke="none" 
	d="
M203.195984,201.854553 
	C210.604263,202.388885 214.085358,206.091827 213.606949,212.594009 
	C208.929642,211.450424 204.919724,209.275986 202.032928,205.365417 
	C201.083847,204.079773 199.663879,202.410278 203.195984,201.854553 
z"/>
<path fill="#F4F4F4" opacity="1.000000" stroke="none" 
	d="
M178.941025,228.055420 
	C178.532043,224.431305 181.198883,224.141281 183.677216,223.876083 
	C188.590332,223.350311 191.663254,225.556458 193.663574,231.009247 
	C188.679443,231.094162 183.634369,232.128738 179.239777,227.968109 
	C178.854340,227.948059 178.897964,228.033890 178.941025,228.055420 
z"/>
<path fill="#EEEEEE" opacity="1.000000" stroke="none" 
	d="
M269.848755,236.071411 
	C269.875153,239.345673 268.554016,240.336136 265.742126,239.588913 
	C262.223785,238.653976 259.438171,236.800491 257.319031,233.333817 
	C260.946899,231.638260 264.645813,231.713379 268.350342,231.954315 
	C271.314850,232.147141 272.007507,233.362869 269.848755,236.071411 
z"/>
<path fill="#F4F4F4" opacity="1.000000" stroke="none" 
	d="
M437.047699,224.838501 
	C440.560577,224.966858 443.966248,224.154053 445.945343,227.524826 
	C446.514130,228.493561 447.049316,230.303452 446.101013,230.720428 
	C443.148224,232.018738 440.018188,230.867905 436.959808,230.602310 
	C436.639526,230.574478 436.337219,230.380814 436.017456,230.300293 
	C433.612427,229.694702 431.044586,228.247055 431.441559,225.920242 
	C431.801208,223.812134 434.807739,225.216354 437.047699,224.838501 
z"/>
<path fill="#E6E6E6" opacity="1.000000" stroke="none" 
	d="
M302.617889,236.506378 
	C298.991028,236.021317 295.589050,235.794464 293.579651,232.605118 
	C291.964630,230.041748 292.237640,228.303452 295.760132,228.168106 
	C300.635162,227.980804 304.020538,230.431702 304.410858,234.428680 
	C304.524963,235.597382 304.226929,236.351166 302.617889,236.506378 
z"/>
<path fill="#F2F2F2" opacity="1.000000" stroke="none" 
	d="
M362.057495,233.202713 
	C356.300201,234.344086 351.145935,233.576080 347.187592,228.773361 
	C354.033356,225.043579 360.053314,226.732300 362.057495,233.202713 
z"/>
<path fill="#F2F2F2" opacity="1.000000" stroke="none" 
	d="
M342.502747,228.194870 
	C343.613129,228.991287 344.406494,229.583603 345.045868,230.311295 
	C346.115936,231.529251 346.504608,233.296036 345.824371,234.484177 
	C344.917572,236.068024 343.100342,234.961166 341.808807,234.598404 
	C339.279449,233.887939 336.823700,232.896606 334.372284,231.932999 
	C332.284180,231.112183 332.682678,229.226959 332.964050,227.677948 
	C333.298859,225.835052 334.853302,226.917709 335.779907,227.001572 
	C337.906342,227.194046 340.005981,227.683014 342.502747,228.194870 
z"/>
<path fill="#E8E8E8" opacity="1.000000" stroke="none" 
	d="
M269.609680,218.612595 
	C266.960419,220.206238 264.913452,218.692764 263.186157,216.467972 
	C261.893188,214.802643 260.729401,213.036987 259.329041,211.107452 
	C261.548584,208.377014 264.130035,209.259720 266.452057,210.809784 
	C269.097656,212.575882 270.365051,215.108932 269.609680,218.612595 
z"/>
<path fill="#F4F4F4" opacity="1.000000" stroke="none" 
	d="
M226.753387,258.874237 
	C227.966110,260.262756 228.916748,261.389313 229.816528,262.455658 
	C226.970337,265.955048 224.064224,268.852051 219.650848,264.827148 
	C218.867416,264.112640 217.111343,263.213470 218.343613,262.228180 
	C220.666428,260.370911 222.230133,256.232544 226.753387,258.874237 
z"/>
<path fill="#EDEDED" opacity="1.000000" stroke="none" 
	d="
M188.973236,207.977921 
	C188.221329,206.889038 187.315140,206.044998 188.439285,205.182037 
	C193.220581,201.511627 199.361694,204.117706 200.645752,210.653061 
	C196.739792,209.976288 192.753021,210.493332 188.973236,207.977921 
z"/>
<path fill="#F2F2F2" opacity="1.000000" stroke="none" 
	d="
M321.075806,227.868347 
	C322.185120,227.838074 322.847290,227.822708 323.508759,227.837296 
	C327.045471,227.915283 330.791931,228.510757 330.302460,232.981308 
	C329.899597,236.660904 326.307892,234.861664 324.246338,234.646164 
	C320.175446,234.220703 318.451508,231.960129 321.075806,227.868347 
z"/>
<path fill="#E6E6E6" opacity="1.000000" stroke="none" 
	d="
M187.011169,210.773865 
	C188.695267,211.704941 189.842636,212.602676 189.701889,214.537109 
	C184.624603,214.885513 179.591980,215.230865 174.559372,215.576202 
	C174.438354,215.152390 174.317337,214.728561 174.196320,214.304733 
	C177.728302,211.452484 181.557236,209.385849 187.011169,210.773865 
z"/>
<path fill="#F2F2F2" opacity="1.000000" stroke="none" 
	d="
M313.192352,235.002197 
	C310.029572,234.873596 307.431183,234.543152 306.853394,231.133484 
	C306.561249,229.409637 307.207855,228.284012 308.941193,227.821793 
	C312.025177,226.999420 314.486633,228.013611 316.162598,230.595764 
	C318.045441,233.496719 317.933472,235.528793 313.192352,235.002197 
z"/>
<path fill="#F0F0F0" opacity="1.000000" stroke="none" 
	d="
M259.073975,210.832077 
	C258.257233,217.117493 257.848297,217.314117 251.887512,213.764969 
	C249.688889,212.455856 247.463959,211.089691 246.074463,208.361649 
	C251.103104,207.127579 255.105408,208.157471 258.838867,211.198761 
	C259.149994,210.898926 259.087158,210.865219 259.073975,210.832077 
z"/>
<path fill="#EDEDED" opacity="1.000000" stroke="none" 
	d="
M281.085999,244.497284 
	C281.239166,249.604065 277.710999,247.786942 275.507477,247.901718 
	C273.905334,247.985153 272.302216,246.876541 273.016205,245.133270 
	C274.204010,242.233063 275.971680,239.271088 279.697876,239.602173 
	C282.836823,239.881104 281.767700,242.222794 281.085999,244.497284 
z"/>
<path fill="#F2F2F2" opacity="1.000000" stroke="none" 
	d="
M269.875854,218.935150 
	C271.312286,218.865829 272.792847,218.646591 274.152740,219.456253 
	C276.079071,220.603180 279.078522,221.859390 278.314270,224.084763 
	C277.638947,226.051147 274.663361,227.208542 272.169220,227.531738 
	C270.641846,227.729675 269.739044,226.831573 269.833954,225.146774 
	C269.935303,223.347702 269.975922,221.545197 270.008972,219.289581 
	C269.974945,218.834976 269.904938,218.898102 269.875854,218.935150 
z"/>
<path fill="#EDEDED" opacity="1.000000" stroke="none" 
	d="
M280.962677,229.639954 
	C281.213837,230.138824 281.338715,230.283768 281.346405,230.434677 
	C281.537628,234.183929 279.078033,237.160568 275.996429,236.988922 
	C273.912201,236.872833 273.425720,235.530731 273.997223,233.959000 
	C275.114502,230.886169 276.228485,227.497604 280.962677,229.639954 
z"/>
<path fill="#E8E8E8" opacity="1.000000" stroke="none" 
	d="
M244.804337,215.013275 
	C242.659805,215.038757 241.217911,214.202133 240.025406,213.072052 
	C238.650406,211.768997 236.539124,209.855637 238.188354,208.276169 
	C239.771164,206.760315 242.406647,208.192856 243.898438,209.665756 
	C245.233566,210.983978 248.423538,212.388138 244.804337,215.013275 
z"/>
<path fill="#DFDCDA" opacity="1.000000" stroke="none" 
	d="
M261.206360,264.354248 
	C259.894623,260.485779 262.181732,260.897766 264.101074,261.613190 
	C266.191254,262.392273 267.539093,264.115417 268.206512,266.674408 
	C265.496368,267.209229 263.438202,266.082581 261.206360,264.354248 
z"/>
<path fill="#9B754A" opacity="1.000000" stroke="none" 
	d="
M244.440216,241.038452 
	C245.372223,241.140320 245.831223,241.348999 246.127563,241.781342 
	C245.077805,242.672546 244.241379,242.147324 243.205627,241.619904 
	C243.334351,241.277817 243.650757,241.211533 244.440216,241.038452 
z"/>
<path fill="#F0F0F0" opacity="1.000000" stroke="none" 
	d="
M26.249701,228.294327 
	C26.065365,224.713745 26.756126,219.892059 29.229712,219.677307 
	C32.024101,219.434662 33.001396,224.175644 34.107613,227.516495 
	C31.746401,229.684143 29.172117,228.984177 26.249701,228.294327 
z"/>
<path fill="#080604" opacity="1.000000" stroke="none" 
	d="
M25.673525,228.147995 
	C28.300251,227.957825 30.729425,227.929413 33.620056,227.894592 
	C34.687679,228.442993 35.912941,228.609528 35.164284,230.109344 
	C31.973688,230.146774 28.962814,229.976166 25.502831,229.779449 
	C25.194469,229.272141 25.335222,228.790939 25.673525,228.147995 
z"/>
<path fill="#DFDCDA" opacity="1.000000" stroke="none" 
	d="
M26.121239,261.422729 
	C28.790655,262.133575 33.182392,262.098572 29.444508,266.997681 
	C28.088455,265.278625 27.108171,263.519196 26.121239,261.422729 
z"/>
<path fill="#F0F0F0" opacity="1.000000" stroke="none" 
	d="
M42.351227,261.729004 
	C43.552269,262.976776 44.747818,264.068573 44.097874,265.401031 
	C43.372921,266.887299 41.721729,266.109741 40.558487,265.915680 
	C37.608662,265.423676 34.797962,264.484833 33.221989,261.614594 
	C33.056999,261.314117 33.288391,260.405334 33.472008,260.362518 
	C36.445801,259.669037 39.333923,259.869629 42.351227,261.729004 
z"/>
</svg>