<svg id="erxz4oM3wNe1" xmlns="http://www.w3.org/2000/svg" xmlns:xlink="http://www.w3.org/1999/xlink" viewBox="0 0 500 500" shape-rendering="geometricPrecision" text-rendering="geometricPrecision">
<style><![CDATA[
#erxz4oM3wNe3_to {animation: erxz4oM3wNe3_to__to 1000ms linear infinite normal forwards}@keyframes erxz4oM3wNe3_to__to { 0% {transform: translate(251.191154px,208.697075px)} 50% {transform: translate(251.191189px,225.996357px)} 90% {transform: translate(251.191154px,208.697075px)} 100% {transform: translate(251.191154px,208.697075px)}} #erxz4oM3wNe3 {animation: erxz4oM3wNe3_c_o 1000ms linear infinite normal forwards}@keyframes erxz4oM3wNe3_c_o { 0% {opacity: 1} 30% {opacity: 0.3} 50% {opacity: 1} 70% {opacity: 0.3} 99% {opacity: 1} 100% {opacity: 1}} #erxz4oM3wNe4_to {animation: erxz4oM3wNe4_to__to 1000ms linear infinite normal forwards}@keyframes erxz4oM3wNe4_to__to { 0% {transform: translate(251.322243px,156.733051px)} 50% {transform: translate(250.624161px,174.032335px)} 90% {transform: translate(251.322243px,156.733051px)} 100% {transform: translate(251.322243px,156.733051px)}} #erxz4oM3wNe5_to {animation: erxz4oM3wNe5_to__to 1000ms linear infinite normal forwards}@keyframes erxz4oM3wNe5_to__to { 0% {transform: translate(251.182167px,253.716232px)} 50% {transform: translate(251.182169px,269.998932px)} 90% {transform: translate(251.182167px,253.716232px)} 100% {transform: translate(251.182167px,253.716232px)}} #erxz4oM3wNe5 {animation: erxz4oM3wNe5_c_o 1000ms linear infinite normal forwards}@keyframes erxz4oM3wNe5_c_o { 0% {opacity: 1} 30% {opacity: 0.3} 50% {opacity: 1} 70% {opacity: 0.3} 99% {opacity: 1} 100% {opacity: 1}} #erxz4oM3wNe6_to {animation: erxz4oM3wNe6_to__to 1000ms linear infinite normal forwards}@keyframes erxz4oM3wNe6_to__to { 0% {transform: translate(251.018166px,132.007164px)} 50% {transform: translate(251.018206px,149.306448px)} 90% {transform: translate(251.018166px,132.007164px)} 100% {transform: translate(251.018166px,132.007164px)}} #erxz4oM3wNe6 {animation: erxz4oM3wNe6_c_o 1000ms linear infinite normal forwards}@keyframes erxz4oM3wNe6_c_o { 0% {opacity: 1} 30% {opacity: 0.3} 50% {opacity: 1} 70% {opacity: 0.3} 99% {opacity: 1} 100% {opacity: 1}} #erxz4oM3wNe7_to {animation: erxz4oM3wNe7_to__to 1000ms linear infinite normal forwards}@keyframes erxz4oM3wNe7_to__to { 0% {transform: translate(287.562088px,183.05864px)} 50% {transform: translate(292.447372px,197.955308px)} 90% {transform: translate(287.562088px,183.05864px)} 100% {transform: translate(287.562088px,183.05864px)}} #erxz4oM3wNe8_to {animation: erxz4oM3wNe8_to__to 1000ms linear infinite normal forwards}@keyframes erxz4oM3wNe8_to__to { 0% {transform: translate(214.4907px,183.319199px)} 50% {transform: translate(209.496232px,198.230493px)} 90% {transform: translate(214.4907px,183.319199px)} 100% {transform: translate(214.4907px,183.319199px)}} #erxz4oM3wNe82_to {animation: erxz4oM3wNe82_to__to 1000ms linear infinite normal forwards}@keyframes erxz4oM3wNe82_to__to { 0% {transform: translate(250.975876px,249.355911px)} 50% {transform: translate(250.975892px,265.775192px)} 90% {transform: translate(250.975876px,249.355911px)} 100% {transform: translate(250.975876px,249.355911px)}} #erxz4oM3wNe89_to {animation: erxz4oM3wNe89_to__to 1000ms linear infinite normal forwards}@keyframes erxz4oM3wNe89_to__to { 0% {transform: translate(250.978691px,234.021606px)} 50% {transform: translate(250.978707px,250.440884px)} 90% {transform: translate(250.978691px,234.021606px)} 100% {transform: translate(250.978691px,234.021606px)}} #erxz4oM3wNe147_to {animation: erxz4oM3wNe147_to__to 1000ms linear infinite normal forwards}@keyframes erxz4oM3wNe147_to__to { 0% {transform: translate(250.927063px,154.533981px)} 50% {transform: translate(250.927101px,171.833263px)} 90% {transform: translate(250.927063px,154.533981px)} 100% {transform: translate(250.927063px,154.533981px)}} #erxz4oM3wNe265_to {animation: erxz4oM3wNe265_to__to 1000ms linear infinite normal forwards}@keyframes erxz4oM3wNe265_to__to { 0% {transform: translate(251.003685px,171.109398px)} 50% {transform: translate(251.003719px,188.408684px)} 90% {transform: translate(251.003685px,171.109398px)} 100% {transform: translate(251.003685px,171.109398px)}}
]]></style>
<g id="erxz4oM3wNe3_to" transform="translate(251.191154,208.697075)"><path id="erxz4oM3wNe3" d="M257.138123,327.196136c-.597107,1.039917-1.029877,1.751313-1.462708,2.462647-4.595306,7.552612-4.655731,7.587128-9.172913-.309357-28.188171-49.275726-56.35289-98.564865-84.507125-147.859985-2.923508-5.118729-2.785721-5.310303,3.062423-5.318756c9.752442-.014099,19.504914-.003845,29.866486-1.152603-5.408585-5.313202-10.723251-10.727249-16.270203-15.891831-2.343078-2.181549-2.494308-3.515716-.092773-5.898285c23.189239-23.006195,46.288589-46.103592,69.294693-69.292907c2.498886-2.518799,3.899063-2.399979,6.330581.049621c22.894837,23.064995,45.854828,46.066315,68.961182,68.919037c2.817322,2.786392,2.427246,4.219498-.194549,6.630295-5.387635,4.954071-10.487824,10.220764-16.008973,15.656753c2.398377,1.586274,4.569306.921723,6.564209.941391c8.332276.082154,16.668824.167725,24.997467-.024459c3.796967-.087616,4.772644.582641,2.645264,4.246353-9.780609,16.843902-19.382843,33.791366-29.052215,50.69989-18.264374,31.938522-36.530915,63.875839-54.960846,96.142196Z" transform="translate(-251.191154,-208.697075)" fill="#aaa"/></g><g id="erxz4oM3wNe4_to" transform="translate(251.322243,156.733051)"><path d="M233.98288,196.965393c.013305-.287949.01921-.439453.028381-.514709-.156708-.427491-.358856-.757218-.814545-1.261078-.211273-.200409-.194809-.191605-.190765-.183167-.214584-.228363-.439346-.459198-.845627-.850311-.175369-.166275-.158417-.158035-.154282-.149567-.214569-.228378-.439407-.459259-.845764-.850494-.175399-.166321-.158371-.15799-.154174-.149475-.214585-.228333-.439454-.459229-.845826-.850556-.17543-.166336-.158371-.157959-.154159-.149444-.214554-.228317-.439438-.459229-.845841-.85054-.17543-.166352-.158371-.157975-.154159-.14946-.214539-.228317-.439408-.459229-.845841-.850525-.175415-.166351-.158371-.15799-.154174-.149475-.214524-.228333-.439393-.459213-.845795-.850495-.17543-.166336-.158402-.158004-.154205-.149505-.214554-.228348-.439408-.459229-.84578-.850479-.175415-.166321-.158417-.158005-.154251-.149521-.214554-.228363-.439392-.459244-.845764-.850464-.175415-.166321-.158417-.158035-.154236-.149567-.213943-.227722-.438187-.457962-.843781-.847778-.175247-.165527-.160736-.160858-.157882-.153854-.131668-.102509-.266205-.212037-.871872-.546372-.619156-.317612-.767197-.41037-1.304413-.852081-.513229-.470719-.637283-.592453-1.134613-1.07724-.501572-.480759-.629868-.598465-1.162827-1.054352-.541305-.452637-.677963-.567108-1.004623-.872742-.283661-.345321-.377319-.499466-.461517-.924011.068176-2.797226-2.018906-3.848709-3.779541-5.494888-.535218-.422089-.82454-.574173-1.419739-.609513-.420426-.012207-.587113-.046127-.979096-.198455-.359268-.220505-.49324-.322617-.993225-.763794-.365982-.339051-.715133-.686371-1.058563-1.031952s-.683487-.688263-1.021667-1.028305-.67482-.678009-1.010498-1.014496-.670533-.671906-1.004914-1.006577-.668319-.668838-1.002075-1.002685-.667297-.66745-1.000763-1.000931-.666839-.666885-1.000152-1.000214-.666565-.666595-.999726-.999771-.666183-.666275-.999054-.999252-.665542-.665909-.998169-.998795-.665329-.666046-.998504-.999633-.667466-.668259-1.00383-1.004425-.676407-.674805-1.021836-1.016404-.697906-.688171-1.054077-1.045807c-.471069-.485717-.585937-.6138-.858322-.950729-.240539-.364334-.323563-.519775-.487717-.92868-.14421-.605194-.170745-.959626-.12915-1.582077.08194-.4357.131805-.606125.300446-1.01297.220809-.377884.322876-.519364.770629-1.041062.464585-.499115.583512-.618011,1.056733-1.085144.354263-.348236.703872-.691864,1.049316-1.032821s.687439-.67981,1.027008-1.017228.677231-.673629,1.013641-1.009033.671814-.670166,1.006592-1.004486.669083-.66832,1.003052-1.002121.667755-.667404,1.001373-1.000946.66716-.666977,1.000611-1.000412.666854-.666794,1.000213-1.000168.666748-.666717,1.000092-1.000076.666702-.666672,1.00003-1s.666687-.666672,1-1.000015.666672-.666657,1-1s.666672-.666657,1-1s.666672-.666657,1-1s.666672-.666657,1-1s.666672-.666657,1-1s.666672-.666657,1-1s.666672-.666657,1-1s.666672-.666657,1-1s.666672-.666657,1-1s.666672-.666657,1.000016-1.000016.666687-.666656,1.000015-1s.666687-.666671,1.000015-1s.666672-.666671,1.000015-1.000015.666672-.666656,1-1s.666672-.666649.999985-.999992.666657-.666664.999985-1.000015.666702-.666665,1.00003-1.000008.666672-.666657,1-1s.666642-.666649.99997-1s.666672-.666649,1-.999985.666672-.666656,1-1s.666672-.666656,1-1s.666672-.666656,1-1s.666672-.666656,1-1s.666672-.666656,1-1s.666672-.666656,1-1s.666672-.666656,1-1s.666672-.666656,1-1s.666672-.666656,1-1s.666672-.666656,1-1s.666656-.666649.999969-.999985.666642-.666618.999939-.999908.666519-.666481.999665-.999588.666198-.666031.999084-.998764.665619-.665199.998306-.997498.665619-.664657.9991-.997528.668457-.667244,1.005585-1.00444.678192-.679787,1.024231-1.030586c.464248-.471756.582443-.59272,1.071563-1.087136.5056-.496879.640305-.620307.9973-.919914.388153-.279739.554016-.383301.99031-.618149c1.068573-.441062,1.876847-.655624,3.038544-.241844c18.06488,17.221932,35.194794,34.927918,52.713501,52.242661c2.65506,2.624145,2.934021,5.0186.076355,7.61676-5.277924,4.798554-9.57077,10.643646-15.903564,14.804352-2.119233.941421-3.383759,2.34259-4.624817,4.219559-.729615,2.99411-2.578278,4.485916-4.71399,5.407638c2.944794-.543411,6.144532-.909225,9.587464.527802-1.50943,2.085373-3.776673,1.198578-5.816681,1.241058-6.100281.127075-10.35138,3.042374-12.907196,9.481613-.569458,1.531479-1.827851,1.600678-3.097382,2.291687-5.348083,4.148575-9.225097,9.3694-14.543823,13.539398-.700501.331574-1.121124.45044-1.871964.517395-.516555-.025146-.719009-.057586-1.203323-.193542-.447815-.205353-.613739-.307175-1.204071-.774811-.551605-.492584-.678772-.619354-1.169907-1.119476-.481872-.494492-.599792-.615647-1.065658-1.091736-.347946-.35492-.691437-.703095-1.031922-1.046661s-.67871-.683732-1.015472-1.021714-.672562-.674499-1.00798-1.010238-.670868-.671234-1.006821-1.006836-.672913-.671784-1.011291-1.008728-.678681-.674958-1.021241-1.014038-.68779-.679413-1.035675-1.020966-.698959-.684433-1.055511-1.02626-.727509-.6754-1.131409-.981827c-.551483-.398514-.699066-.490616-1.075104-.717957-.698913-.416717-1.140152-.739029-1.764358-1.289352-.441666-.503723-.612671-.84259-.71257-1.499283Z" transform="translate(-251.322243,-156.733051)" fill="#b8fcea"/></g><g id="erxz4oM3wNe5_to" transform="translate(251.182167,253.716232)"><path id="erxz4oM3wNe5" d="M204.82756,185.641693c.102539.320114-.356308.31929-.585235.334198-7.92659,1.149643-15.668381.198425-23.76854.498291-2.428894.228317-2.495559,1.450943-1.690399,3.282471.200821.273727.220078.241928.201569.243255.435867.426667.481857,1.027512.831985,1.804657.175049.231797.187775.190537.166275.192322.217835.219696.449997.445008.839768.855866.164764.178161.178146.144119.160721.149719.881744,1.007873.973739,2.385406,1.806137,3.768326.194717.259094.213302.22731.194931.228714.436111.427032.48201,1.028335.832885,1.805694.175232.231827.187394.189362.16536.190949.217422.219757.449753.445282.839828.856476.164887.178283.178284.144241.160859.149841.881713,1.007858.973724,2.385345,1.806015,3.76828.194671.259125.213333.227386.194961.228851.436249.427002.482071,1.028321.832977,1.805603.175232.231827.187394.189362.16536.190949.217438.219772.449768.445312.839889.856476.164917.178299.178254.144226.160813.14978.882095,1.008392.973663,2.386978,1.807464,3.770264.194672.259338.212677.224578.193131.225448.435272.426911.482529,1.028305.832947,1.806824.175354.232117.187637.189728.165634.191376.21759.219665.449966.445129.840011.856323.164917.178284.178254.144211.160813.14978.882217,1.008515.973633,2.387375,1.807815,3.770706.194657.2594.212372.22374.192475.224579.435165.426789.482818,1.028137.833069,1.806854.17543.232117.187759.190216.165985.191895.217758.219879.450149.445419.840515.856506.1651.178177.178894.144242.161011.148163.436157.425934.482284,1.022949.825805,1.797882.173264.231186.192261.199005.173706.20105.435776.42569.482773,1.024323.829026,1.800705.174347.2314.190582.195312.170822.196457.435135.427231.482956,1.028519.833114,1.807342.175446.232117.187775.190216.166001.191895.217758.219879.450149.445419.840515.856506.1651.178177.178894.144242.161011.148163.436157.425888.482284,1.022873.825744,1.79776.173279.231156.19223.199188.173783.201248.435821.425721.482742,1.024338.829025,1.800644.174332.231385.190567.195297.170807.196442.435135.427231.482956,1.028519.833114,1.807342.175446.232117.187775.190216.166001.191895.217895.220062.45047.44577.841339.856964.16539.178177.178467.143372.160202.146942.435516.425995.4823,1.022934.825607,1.798279.173386.231201.192307.199463.173966.201538.435806.425797.482666,1.024399.828979,1.800629.174317.231354.190552.195282.170792.196411.435608.427536.48291,1.029678.833969,1.809051.175323.232529.187912.188126.164841.188965.216934.219971.449966.446274.842132.858032.166077.178284.177277.142197.158875.146409.436081.426208.483139,1.023178.826263,1.798721.173431.231247.19249.199844.174255.201904.43573.425751.48259,1.024185.828705,1.800324.174271.231323.190598.195602.17099.196777.436341.427917.482773,1.031204.836029,1.810577.175766.23259.187104.185196.162751.185273.215438.220321.448669.447311.841796.859619.166428.178604.177552.142547.15918.146789.436066.426224.48317,1.023133.826172,1.798691.17337.231262.192551.199951.174316.202072.435898.425675.482621,1.024155.828766,1.800202.174271.231323.190598.195602.17099.196777.436341.427917.482773,1.031204.836029,1.810577.175766.23259.187104.185196.162751.185273.215423.220306.448654.44728.841766.859588.166443.178589.177536.142563.15918.14682.436096.426209.483169,1.023072.826141,1.798584.17337.231262.192688.200196.174484.202301.43602.425721.482498,1.024445.828934,1.800598.17421.231446.190597.19513.170669.196015.436219.427917.48285,1.031616.836777,1.811371.176026.232635.186844.184173.162018.18396.21492.220459.448227.447693.841675.860229.166565.178711.177658.142761.159302.146973.43605.426147.483169,1.022949.82611,1.798401.173386.231201.192658.200409.174592.202514.436523.426117.482391,1.025757.830261,1.802185.174362.231659.188446.193329.168243.196412.220047.219421.452332.444.840622.855255.163971.178466.179733.14331.160843.147003.435898.424927.482513,1.021454.824463,1.796814.172729.231445.193359.2005.174927.203064.436035.424499.483139,1.021301.826126,1.796722.173462.23114.192611.20047.174606.202545.436524.4263.482361,1.026123.830383,1.802826.174302.231812.188218.192383.167542.195526.219986.21933.45253.443879.841034.855408.164062.178558.179809.143372.160919.147095.435898.424927.482513,1.021454.824463,1.796814.172729.231445.193359.2005.174927.203064.435897.424499.483154,1.021209.826049,1.79657.173478.23114.192673.200653.174744.202728.436463.42633.482269,1.026153.830414,1.802704.174347.23175.189789.191742.168365.192016.435105.427765.48349,1.031525.837067,1.812439.176361.232819.187134.184967.162598.184815.214828.22052.447891.447662.841064.859863.166397.178589.177841.143372.159805.147644.437073.426758.482972,1.025147.82811,1.801148.173401.23172.191513.19577.171417.197052.435471.425903.483475,1.026031.831177,1.804443.174729.232117.19017.192383.168854.192688.435074.427856.483429,1.031616.837067,1.812469.176345.232819.187027.184784.162414.184601.214966.220612.448197.447907.841644.860382.16655.178711.177659.142639.159211.146729.436889.426819.483062,1.025451.82843,1.80188.173492.231872.191376.195373.171081.196533.435364.425934.483643,1.026214.831452,1.804901.174789.232178.188507.19281.167877.195862.219757.21933.452148.443878.840637.855163.164093.178406.179825.143921.161255.147675.436585.425507.482376,1.023071.825638,1.798889.172607.231873.193085.197937.173324.199585.435929.424805.483384,1.023651.828568,1.801148.173706.232086.191559.195556.171249.196777.435334.425934.483612,1.026123.831299,1.80487.174729.232209.188568.192933.167969.196045.21991.219239.452301.443757.840683.855042.164108.178375.178345.142822.160019.148315.883285,1.007569.973816,2.387116,1.807129,3.771271.193939.26001.213516.22403.193084.224976.435273.425537.483429,1.025665.831055,1.804229.174713.232178.188599.193146.168106.196228.220047.219422.45253.444062.841049.855652.164078.17862.178009.14209.159272.147644c1.147079,1.181153.882156,3.793427,3.145095,3.728882c1.672074-.047699,1.840485-1.950561,2.692368-3.450317.213867-.271179.178528-.283509.18602-.266388.220947-.225128.444076-.45813.853867-.846924.176971-.165039.136734-.171509.143676-.152374.427796-.425843.504776-1.012696.846787-1.790833.185684-.22409.145721-.226623.155502-.209137.858704-1.014251,1.041657-2.348572,1.819733-3.756195.208435-.248962.173218-.261413.181091-.244507.220825-.225677.443695-.458679.853485-.846984.176972-.164856.136444-.17154.143463-.152283.427796-.425873.5047-1.012818.846863-1.791107.1857-.224121.145447-.226532.155213-.208893.858825-1.014527,1.042053-2.349213,1.820037-3.757538.208374-.249176.172394-.26062.17984-.243256.2211-.224945.444397-.457977.854432-.846771.177124-.165008.136566-.171722.143615-.152435.427826-.425965.504639-1.013092.847046-1.791504.18573-.224182.145142-.226044.154907-.208222.858765-1.014587,1.042206-2.349334,1.820221-3.757873.208405-.249207.172303-.260681.179718-.243256.221131-.224884.444489-.457946.854615-.846924.177154-.1651.136352-.171661.14331-.152221.427887-.425812.504914-1.012909.847046-1.791504.185608-.224304.145203-.226044.154938-.208313.859222-1.014557,1.042389-2.34964,1.820648-3.75827.208435-.249207.171997-.260346.179138-.242707.2211-.224517.44455-.457611.854676-.846801.177185-.165192.136627-.171723.143676-.152466.426911-.425293.504853-1.010651.844391-1.788513.185059-.22403.148499-.227204.158814-.211976.680328-.768127.896209-1.825866,1.811462-2.805603.223297-.209686.176392-.215637.180573-.192382.428466-.422943.509613-1.01178.852417-1.794922.186157-.225739.143798-.226532.15158-.206848.427369-.424897.505585-1.010041.844879-1.787873.185029-.223999.149476-.228424.15918-.21344.428436-.428222.501312-1.013275.842285-1.786956.185059-.222748.148041-.227906.158448-.212464.427032-.428619.500732-1.012878.840973-1.786285.185089-.222473.148071-.229798.155975-.212647.221618-.225189.444946-.458313.85498-.847381.177063-.165222.137085-.171845.144104-.152863.426941-.425232.504761-1.010345.843994-1.787872.184968-.223908.149537-.228668.159241-.213715.428528-.428161.501343-1.013183.842316-1.786834.185028-.222687.148376-.231171.1539-.213196.223633-.224121.449677-.458466.861115-.852967.177398-.167846.128021-.167663.133483-.143554.428284-.422272.510804-1.009857.851654-1.792908.185822-.225616.146729-.227539.154847-.209778.427887-.425842.504211-1.010803.843689-1.78717.184814-.223633.149292-.228668.159057-.213684.42862-.428101.501221-1.013153.842255-1.786743.185028-.222687.148346-.231171.1539-.213196.223419-.223908.44928-.458069.860535-.852082.177337-.167602.12912-.167984.134887-.144561.427918-.422821.510132-1.00998.850708-1.792405.185761-.225372.147065-.227996.155243-.210433.428131-.42595.503876-1.011109.843659-1.787262.184814-.223603.149048-.22847.158691-.213227.428436-.427978.501343-1.013046.842346-1.786804.185059-.222748.148346-.231201.153931-.213196.223389-.223922.449219-.458084.860504-.852096.177368-.167618.12912-.168015.134857-.144577.42807-.422791.510102-1.010056.850739-1.792542.18573-.225433.147034-.227905.155151-.210296.428253-.425858.503937-1.011063.84375-1.787262.184845-.223603.149079-.22847.158722-.213227.428436-.427978.501343-1.013046.842346-1.786804.185059-.222748.148316-.231125.153931-.213119.22287-.223557.448303-.457291.859131-.850235.177276-.167023.131714-.168778.138-.146851.42804-.424103.50824-1.011429.849457-1.792694.185608-.225144.146576-.227493.154633-.209671.428131-.425888.503998-1.011307.844146-1.787735.184967-.223648.148713-.227997.158326-.212479.427642-.427826.501403-1.012222.841247-1.786087.184815-.222778.149262-.230652.155976-.213714.222656-.224686.447235-.458039.857299-.849549.176941-.166458.133393-.169723.139588-.148803.42865-.424256.507507-1.011628.848907-1.792115.185486-.224975.146454-.227356.154511-.209533.428253-.425873.503936-1.011414.844238-1.787812.184998-.223663.148621-.227935.158203-.212326.427307-.427673.501557-1.011688.841217-1.785232.184998-.222473.149475-.231446.156769-.214661.222595-.225128.446808-.458496.85672-.84964.176819-.166321.13324-.169647.139435-.148712.42865-.424225.507507-1.011597.848907-1.792084.185486-.224975.146454-.22734.154511-.209518.428222-.425995.503998-1.011597.844421-1.788101.185028-.223709.148438-.227845.157837-.212006.42746-.427628.501709-1.011993.841492-1.786133.184845-.222809.14917-.23056.156036-.213623.222595-.224884.447083-.458282.8573-.84967.176971-.166413.133362-.169846.139496-.14888.42865-.424286.507477-1.01178.849029-1.792313.185486-.225006.145905-.226456.154633-.208649.861236-1.012741,1.042602-2.348632,1.820679-3.757202.208068-.249511.173065-.260711.179809-.243652.222168-.224838.446442-.458221.856445-.849396.17688-.16629.133301-.169754.139435-.148803.428376-.424088.507508-1.011094.848267-1.791489.185303-.224976.146759-.226761.155701-.209671.861358-1.013168,1.042266-2.348908,1.820373-3.75705.208038-.24945.173035-.26065.179779-.243591.222168-.224838.446442-.458221.856445-.849396.17688-.16629.133332-.169739.139466-.148773.427582-.423752.507538-1.009659.846924-1.78952.18515-.224655.149017-.22786.158325-.212281.861114-1.014221,1.040954-2.349548,1.819153-3.756622.207946-.249267.172943-.260467.179687-.243408.222199-.224945.446503-.458405.856659-.849701.17691-.166397.132874-.169601.138916-.148376.427765-.4236.507843-1.00972.847443-1.789902.18518-.224793.14859-.227707.157898-.211868.861114-1.0141,1.041229-2.349442,1.819366-3.756714.207977-.249298.172943-.260498.179718-.243439.221985-.224686.446076-.457916.855713-.848907.176697-.166276.134216-.1698.140503-.149445.427887-.424011.507111-1.009934.846558-1.789414.185028-.224639.149536-.228714.158508-.213272.613708-.668335.50296-1.483841.242493-2.66394-8.272156-1.546478-16.404389-.466568-24.882172-1.14122-.380463-.216812-.838806-.246292-1.067963-.246079c2.240143-4.531219,5.879395-6.298111,11.174469-6.063461c8.926087.395569,17.882386.108429,27.772919.108429-5.535065,9.779175-10.633331,18.858139-15.798065,27.899124-22.114929,38.712677-44.244324,77.417114-66.397904,116.107666-.78395,1.369141-1.030533,3.625275-2.915771,3.644257-1.627167.016418-1.888672-2.108856-2.597443-3.347656-22.554443-39.420899-45.07164-78.863099-67.592163-118.303406-4.776657-8.365372-9.544418-16.73584-14.82724-25.999985c6.204025,0,11.72583-.000015,17.24762-.000015c3.331146,0,6.718811.387298,9.980469-.088776c5.174636-.75531,8.573516,1.529694,11.481597,5.723938Z" transform="translate(-251.182167,-253.716232)" fill="#fcfdfd"/></g><g id="erxz4oM3wNe6_to" transform="translate(251.018166,132.007164)"><path id="erxz4oM3wNe6" d="M289.576843,175.866577c4.695343-5.37474,9.681397-10.716354,14.979279-15.728393c2.577545-2.438462,2.378143-3.921814-.058747-6.337647-17.445312-17.294327-34.75415-34.726295-52.270401-52.391945-1.24588-1.194504-1.931823-.057304-3.023208.40268-.241089.175544-.203461.194244-.204712.173286-.219635.220085-.445709.453713-.857483.846588-.178024.166664-.136414.174057-.140076.153244-.222046.220269-.448135.453903-.859954.846741-.17801.166672-.136384.174072-.140046.153252-.222046.220268-.448135.453903-.859954.846748-.17801.166679-.136368.17408-.140046.153259-.222046.220261-.448135.453896-.859954.846741-.17801.166679-.136368.17408-.140046.153259-.222046.220261-.448135.453896-.859954.846741-.17801.166679-.136368.17408-.140046.153259-.222046.220261-.448135.453896-.859954.846741-.17801.166679-.136368.17408-.140046.153259-.222046.220261-.448135.453896-.859954.846741-.17801.166679-.136368.17408-.140046.153259-.222046.220261-.448135.453896-.859954.846741-.17801.166679-.136368.17408-.140046.153259-.222046.220261-.448135.453896-.859954.846741-.17801.166679-.136368.17408-.140046.153259-.222046.220261-.448135.453896-.859954.846741-.17801.166679-.136368.17408-.140046.153259-.222046.220261-.448135.453896-.859954.846741-.17801.166679-.136368.17408-.140046.153259-.222046.220261-.448135.453896-.859954.846741-.17801.166679-.136368.17408-.140046.153259-.222046.220261-.448135.453896-.859954.846741-.17801.166679-.136368.17408-.140046.153259-.222046.220261-.448135.453896-.859954.846741-.17801.166679-.136368.17408-.140046.153259-.222046.220261-.448135.453896-.859954.846741-.17801.166679-.136368.17408-.140046.153259-.222046.220261-.448135.453896-.859954.846741-.17801.166679-.136368.17408-.140046.153259-.222046.220261-.448135.453896-.859954.846741-.17801.166679-.136368.17408-.140046.153259-.222046.220261-.448135.453896-.859954.846741-.17801.166679-.136368.17408-.140046.153259-.222046.220261-.448135.453896-.859954.846741-.17801.166679-.136368.17408-.140046.153259-.222046.220261-.448135.453896-.859954.846741-.17801.166679-.136368.17408-.140046.153259-.222046.220261-.448135.453896-.859954.846741-.17801.166679-.136368.17408-.140046.153259-.222046.220261-.448135.453896-.859954.846741-.17801.166679-.136368.17408-.140046.153259-.222046.220261-.448135.453896-.859954.846741-.17801.166679-.136368.17408-.140046.153259-.222046.220261-.448135.453896-.859954.846741-.17801.166679-.136368.17408-.140046.153259-.222046.220261-.448135.453896-.859954.846741-.17801.166679-.136368.17408-.140046.153259-.222046.220261-.448135.453896-.859954.846741-.17801.166679-.136353.174088-.140046.153259-.222076.220246-.44815.453888-.859924.846756-.17804.166657-.136383.174073-.140076.153244-.222076.220246-.44815.453888-.859924.846756-.17804.166657-.136383.174073-.140076.153244-.222076.220246-.44815.453888-.859924.846756-.17804.166657-.136383.174073-.140076.153244-.222076.220246-.44815.453888-.859924.846756-.17804.166657-.136383.174073-.140076.153244-.222076.220246-.44815.453888-.859924.846756-.17804.166657-.136383.174073-.140076.153244-.222076.220246-.44815.453888-.859924.846756-.17804.166657-.136383.174073-.140076.153244-.222076.220246-.44815.453888-.859924.846756-.17804.166657-.136398.174073-.140076.153244-.222076.220261-.44815.453903-.859954.846726-.178025.166656-.136368.174087-.140076.153259-.222046.220276-.448105.453918-.859909.846725-.17804.166626-.136414.174088-.140122.153275-.222.220291-.448043.453918-.859893.84668-.17804.16661-.136399.174118-.140137.153289-.222.220337-.448013.45398-.859848.84668-.178055.166596-.13646.174118-.140183.15332-.221985.220322-.447998.453965-.859832.84668-.178055.16658-.136445.174118-.140183.15332-.221985.220337-.447998.45398-.859817.84668-.178055.166565-.136475.174103-.140198.153305-.221985.220337-.447998.45398-.859802.846695-.178055.166565-.136475.174103-.140198.153305-.221985.220337-.447998.45398-.859802.846695-.178055.166565-.136475.174103-.140198.153305-.221985.220337-.447998.45398-.859802.846695-.178055.166565-.136475.174103-.140198.153305-.221985.220337-.447998.45398-.859802.846695-.178055.166565-.136475.174103-.140198.153305-.221985.220337-.447998.45398-.859802.846695-.178055.166565-.136475.174103-.140198.153305-.221985.220337-.447998.45398-.859802.846695-.178055.166565-.136475.174103-.140198.153305-.221985.220337-.447998.45398-.859802.846695-.178055.166565-.136475.174103-.140198.153305-.221985.220337-.447998.45398-.859802.846695-.178055.166565-.136475.174103-.140198.153305-.221985.220337-.447998.45398-.859802.846695-.178055.166565-.136475.174103-.140198.153305-.221985.220337-.447998.45398-.859802.846695-.178055.166565-.136475.174103-.140198.153305-.221985.220337-.447998.45398-.859802.846695-.178055.166565-.136475.174103-.140198.153305-.22197.220368-.447968.453995-.859772.846695-.178055.16658-.136475.174118-.140228.15332-.222.220322-.447998.453949-.859741.84668-.17804.166596-.13649.174103-.140244.153336-.222.220337-.447983.453949-.859726.846649-.178009.166595-.136948.16983-.146301.151474-.702133.739517-.499283,1.637756-.205475,2.786652.201523.26799.216522.22763.194992.227874.218491.22197.452515.449875.849091.861756.168579.177795.173431.133911.151474.136322.218078.224014.452041.451858.84848.863678.168548.177749.173416.133957.15152.136383.218109.224029.452056.451858.84851.863632.168549.177734.173432.133911.15152.136322.218079.224075.452057.451919.848587.863678.168579.177734.173371.13385.151428.13623.218064.224121.452057.452027.848679.863785.168655.177704.17337.133743.151398.136078.217941.224213.451934.452194.848724.863922.168732.177658.17334.133652.151337.135925.217819.224305.451797.452347.848755.864045.168823.177642.173339.133575.151306.135818.217743.224381.451706.452484.848724.864166.168884.177613.17334.133561.151306.135758.217682.224441.45163.452576.84874.864212.168884.177627.173324.133575.151291.135757.217651.224472.451599.452622.848709.864243.168899.177612.173324.133591.151291.135773.217651.224456.451599.452606.848709.864227.168899.177612.173324.13356.151291.135757.217651.224472.451599.452622.848709.864243.168899.177612.173324.13356.151291.135757.217651.224472.451599.452622.848709.864243.168899.177612.173324.13356.151291.135757.217651.224472.451599.452622.848709.864243.168899.177612.173324.133591.151291.135773.217651.224441.451599.452575.848694.864212.168884.177612.173309.133606.151306.135803.217651.224426.451568.45256.848633.864166.168869.177612.168716.134338.148376.141708.254074.2034.538986.38292.906204.791199-5.486892,2.663986-10.821579,1.854904-14.710678-2.022171-4.601806-4.58757-9.109085-9.2742-13.823425-13.742676-2.068222-1.960357-2.618149-3.213638-.255783-5.556167c21.532059-21.351166,42.962768-42.804939,64.335235-64.316017c2.043518-2.056748,3.208771-1.927697,5.180451.055641c21.378647,21.504982,42.821121,42.946762,64.323044,64.328491c1.994659,1.983521,2.125244,3.240585.010193,5.190002-3.794739,3.497574-7.755951,6.94162-10.898255,10.989686-4.527618,5.832778-10.147156,7.513763-17.47287,6.148208Z" transform="translate(-251.018166,-132.007164)" fill="#fbfcfc"/></g><g id="erxz4oM3wNe7_to" transform="translate(287.562088,183.05864)"><path d="M290.238403,185.977081c-3.577789.013291-6.92575.013291-10.594848.013291c1.059326-2.770554,3.091034-3.941056,4.861328-5.707444c3.706116-.156021,7.151489-.156021,10.975738-.156021-.65039,2.511673-2.969085,3.492279-4.378692,5.550949-.173188.286393-.633698.28595-.863526.299225Z" transform="translate(-287.562088,-183.05864)" fill="#fbfcfc"/></g><g id="erxz4oM3wNe8_to" transform="translate(214.4907,183.319199)"><path d="M217.628265,180.256226c.483307.341583.582184.491287.866578.665924.481658.226532.810577.43251,1.308776.901977.202423.211411.20369.166855.181626.170075.218124.224777.452179.452652.848617.864669.168534.177857.173432.133835.151429.136277.218124.223907.452102.451675.848327.863617.168411.177856.173432.134109.15155.136688.222886.217605.451844.448303.838013.866547.172974.17192.177384.130218.157349.136444.100464.199783.220947.393356.066772.79071-.274673.203781-.653671.177139-.843277.188782-3.215515,1.050598-6.326614.302109-9.806411.231262-.411423-.219055-.864991-.247955-1.091767-.24646-1.747223-1.705704-3.267685-3.412903-5.445343-5.858002c4.273956,0,7.797989,0,11.767761.15149Z" transform="translate(-214.4907,-183.319199)" fill="#fcfdfd"/></g><g id="erxz4oM3wNe82_to" transform="translate(250.975876,249.355911)"><path d="M290.568573,185.754929c2.114899.217697,3.869659.226059,6.062897.220657.70578-.114471.973053-.21518,1.667083-.348724c8.07132.252792,15.734803-.470322,23.745209.555969.830994.448273,1.192353.825149,1.568604,1.651474.133026.595154.15036.836151.11792,1.428451-.186707.788926-.351532,1.215561-.69397,1.921555-.246307.480102-.351166.666626-.634186,1.114288-.30484.424927-.431549.588745-.931427,1.230637-.713928.960174-1.042755,1.44928-1.37207,2.272323-.175324.454346-.24762.635132-.441498,1.080719-.297607.610337-.476532.954331-.789337,1.557358-.228485.429367-.326325.598007-.592835,1.005585-.288513.392105-.408355.545242-.8815,1.157471-.680786.930694-.988159,1.413803-1.307464,2.218475-.171814.450012-.243165.629242-.435151,1.071381-.295715.606659-.473571.948959-.784881,1.549774-.228028.428558-.325745.596924-.591858,1.003998-.288239.391769-.40799.544815-.881104,1.157013-.681182.931365-.988525,1.415313-1.308166,2.221801-.172577.45192-.244263.632035-.437256,1.076538-.296967.610093-.475586.954209-.787903,1.557434-.228393.428803-.326141.596924-.591369,1.002686-.285584.38945-.403748.541244-.867981,1.145081-.66449.911697-.970642,1.378418-1.28534,2.157012-.167419.430649-.236389.601731-.421386,1.022675-.285096.572525-.45691.893738-.752503,1.456024-.208954.400254-.296905.557968-.536194.939514-.26181.365326-.372253.506836-.802063,1.07901-.410339.585587-.50122.740479-.7182,1.135407-.209656.40152-.293152.562958-.503968.9664-.209076.405411-.290863.568802-.492004.979218-.200623.410568-.281922.574142-.489319.979431-.208252.402969-.290375.564193-.494507.96582-.208984.395966-.295959.551544-.531433.925369-.254791.354798-.361114.491333-.769226,1.035294-.301788.407425-.559601.835754-.679443,1.054596s-.360077.656174-.48523.871368c-.294372.502533-.450714.796738-.694031,1.331787-.172058.388779-.244201.543564-.432464.927903-.192597.383819-.269074.538085-.460846.923965-.199158.38208-.28302.532562-.512207.894684-.249512.345062-.353699.47847-.753845,1.014038-.29596.402176-.549775.827164-.668274,1.044678s-.357056.652832-.481629.867218c-.293121.501068-.448852.794586-.691498,1.328705-.171844.388443-.243927.543136-.432098.927276-.192505.383652-.268982.537857-.460693.923615-.199066.382003-.282929.532486-.512085.894561-.249481.345032-.353668.478424-.753784,1.013977-.295929.402161-.549744.827164-.668244,1.044678s-.357025.652817-.481598.867188c-.293121.501068-.448852.794586-.691498,1.328705-.171844.388443-.243927.543136-.432098.927276-.192505.383652-.268982.537857-.460693.923615-.199066.382003-.282929.532486-.512085.894561-.249481.345032-.353668.478424-.753784,1.013977-.295929.402161-.549714.827149-.668213,1.044663s-.357025.652801-.481568.867203c-.293152.501083-.448883.794586-.691528,1.328674-.171814.388443-.243897.543137-.432068.927246-.192505.383652-.268982.537888-.460663.923645-.199096.382019-.282959.532471-.512115.894562-.249481.345001-.353668.478393-.753784,1.013946-.295929.402161-.549744.827149-.668213,1.044678s-.356995.652771-.481537.867127c-.293091.501037-.448792.794494-.691406,1.32846-.171845.388306-.243927.542908-.432038.92685-.192505.383484-.268921.537658-.460571.92334-.199066.381958-.282929.53244-.512116.894592-.249542.345032-.353729.478393-.753601,1.012909-.295684.401184-.5484.823639-.665802,1.03891s-.352295.644165-.474975.85437c-.289002.489593-.444519.774902-.691742,1.291626-.181885.372314-.261139.519043-.484711.872192-.249176.338654-.354034.470856-.756042,1.016022-.380951.562164-.464752.711426-.665467,1.090729-.195129.383514-.273315.537017-.471862.918304-.197724.380341-.275116.532929-.465088.914795-.189728.380096-.266877.530914-.467163.901916-.286988.512238-.443146.80835-.692597,1.340607-.173004.386719-.246063.540772-.439178.922424-.282196.535889-.445893.843323-.741333,1.3844-.235291.380127-.340241.525879-.614563.880463-.390503.49121-.596161.784423-.902985,1.33609-.196716.412689-.274414.579315-.475494.994262-.295777.57898-.468201.909577-.766815,1.495362-.221863.420166-.317688.585144-.579072.983764-.282714.384034-.399841.534363-.860198,1.137696-.661469.91925-.962067,1.395568-1.276459,2.188263-.171387.444854-.242676.622284-.434448,1.060577-.295197.603271-.472962.944061-.783967,1.543823-.228607.429016-.326507.597717-.59317,1.005921-.288727.393036-.408783.546539-.883331,1.160095-.683105.932251-.992371,1.415649-1.312622,2.221802-.172272.450531-.243713.629943-.435883,1.072448-.295959.607086-.473938.949585-.7854,1.550721-.228088.42868-.325806.597076-.592041,1.004272-.288239.391785-.40799.5448-.880981,1.156799-.680665.930451-.987854,1.413544-1.30719,2.21814-.171875.450043-.243226.629303-.435242,1.071472-.295685.606751-.473694.949036-.784973,1.550049-.228058.42868-.325836.597137-.592163,1.004425-.288453.392059-.408326.545288-.881958,1.158844-.682404.934601-.989777,1.421021-1.31012,2.231812-.173676.455657-.246002.63742-.440735,1.086547-.299835.618988-.480499.968933-.799179,1.584687-.236816.440887-.338867.614257-.616531,1.035431-.300873.409179-.426148.570556-.937531,1.218994-1.813278,2.280121-3.261093,3.951965-5.638214,1.113769-.330505-.387695-.459076-.543457-.775299-.93164-.311081-.385865-.434464-.539399-.737976-.92389-.291107-.389801-.4021-.548614-.657776-.957092-.318451-.58844-.488068-.929291-.783051-1.521545-.208923-.417145-.287445-.585419-.467987-1.010071-.288208-.761047-.460784-1.271362-.856857-1.968231-.243637-.360901-.345108-.501831-.605026-.848145-.266708-.339813-.374985-.474212-.64447-.810974-.26088-.342956-.36052-.483581-.586701-.848602-.274902-.5318-.423065-.839234-.695923-1.368347-.206863-.369507-.288681-.517517-.484237-.890381-.113724-.224854-.335892-.67276-.449356-.893189s-.343064-.655761-.453919-.873626-.329651-.651642-.444855-.864899-.367889-.627716-.508209-.827454-.442886-.588287-.594513-.784607-.426147-.611389-.545959-.828796-.347809-.656067-.46283-.873413-.345993-.648621-.456787-.86499-.329819-.646881-.445419-.857788-.368927-.619111-.508713-.815278-.438705-.577667-.587967-.770233-.420029-.598938-.53923-.811462-.34552-.642487-.457733-.856629-.330689-.642608-.430634-.859619c-.222534-.507263-.350037-.795349-.596725-1.285675-.114243-.204437-.345765-.611602-.455536-.818695s-.326844-.622894-.442261-.828369-.370194-.606567-.511642-.80133-.444672-.578248-.596467-.774537c-.243972-.335785-.336135-.475311-.552429-.834655-.203842-.368744-.2836-.517701-.482788-.890686-.197769-.373932-.276138-.523835-.466614-.900269-.185821-.377045-.259567-.527618-.4449-.901428-.111572-.223236-.33136-.666931-.433426-.890259-.227249-.520569-.35643-.816101-.603989-1.318603-.114425-.20871-.346847-.622529-.45726-.831849s-.327743-.628204-.442428-.834381-.366059-.607055-.504776-.800567-.435486-.571442-.583832-.762818-.417984-.596191-.536896-.808197-.34494-.641357-.457031-.855346-.330338-.642243-.430206-.859162c-.222199-.506653-.349289-.794311-.594681-1.283508-.113526-.203613-.343415-.608612-.452225-.814453s-.323181-.619293-.436874-.823792-.364502-.603882-.503861-.797546-.439133-.573395-.589142-.766602-.421219-.604156-.539886-.819885-.345368-.651611-.459992-.867859-.345047-.645996-.455612-.861847-.329315-.645477-.444839-.856079-.368744-.618378-.508499-.814422-.438569-.577301-.587784-.769776-.419922-.598816-.539093-.81134-.345475-.642426-.457688-.856568-.330688-.642547-.430648-.859558c-.222504-.507232-.349991-.795257-.596573-1.285461-.114167-.204315-.345444-.611054-.454941-.817688s-.32547-.62088-.439789-.825073-.365417-.601563-.504013-.79364-.434845-.567902-.58284-.758545-.416809-.594391-.535431-.80597-.344223-.640167-.456238-.853912-.3302-.641724-.430084-.858612c-.222427-.507111-.349884-.795136-.596405-1.2854-.114151-.204438-.345428-.61139-.454956-.818085s-.325546-.621109-.43988-.825363-.365403-.601731-.503998-.793869-.434906-.567932-.582916-.758606-.416855-.594437-.535492-.806031-.344269-.640182-.456269-.853927-.330215-.64177-.430114-.858673c-.222458-.507111-.3499-.795151-.59639-1.285477-.114151-.204437-.345444-.611374-.454956-.818054s-.325531-.621109-.439865-.825363-.365418-.601731-.504013-.793869-.434876-.567932-.582901-.758591-.416855-.594437-.535492-.80603-.344269-.640198-.456269-.853943-.330215-.64177-.430114-.858673c-.222458-.507111-.3499-.795151-.59639-1.285477-.114151-.204437-.345444-.611374-.454956-.818054s-.325531-.621109-.439865-.825363-.365418-.601731-.504013-.793869-.434876-.567932-.582901-.758591-.416855-.594437-.535492-.80603-.344269-.640198-.456269-.853943-.330215-.64177-.430114-.858673c-.222458-.507111-.3499-.795151-.59639-1.285477-.114151-.204437-.345444-.611374-.454956-.818054s-.325531-.621109-.439865-.825363-.365418-.601731-.504029-.793869-.43489-.567963-.582916-.758637-.416916-.594513-.535553-.806152-.344391-.640366-.456451-.854187-.330323-.641983-.430268-.858978c-.222503-.507111-.34996-.79509-.596252-1.284928-.113953-.20404-.344467-.609649-.45343-.815353s-.323258-.617752-.436508-.820954-.362015-.599182-.500016-.79129-.435333-.569229-.585602-.762344-.42572-.607483-.54721-.827408c-.277054-.522339-.432129-.825012-.711548-1.358063-.198807-.389236-.272659-.548401-.443008-.952637-.277298-.735824-.453431-1.228546-.857544-1.904663-.252274-.359054-.357529-.500198-.6279-.849624-.278137-.346436-.391143-.484589-.671798-.834259-.271118-.360108-.374573-.508698-.612793-.893784-.300797-.560043-.463745-.885101-.752487-1.453308-.205384-.406937-.282319-.572067-.459488-.990036-.285736-.755218-.462067-1.261429-.868256-1.954452-.252594-.364533-.358063-.507538-.629135-.860871-.278977-.349426-.392349-.488556-.673935-.84021-.272019-.361587-.375839-.510635-.614838-.896789-.301483-.561249-.464843-.886887-.753799-1.456055-.205536-.407288-.282501-.57254-.459809-.990753-.285842-.755524-.462188-1.261902-.868408-1.955139-.252609-.364594-.358078-.50763-.629196-.861008-.279007-.349487-.39241-.488648-.674057-.840408-.272095-.36171-.375961-.510819-.615097-.897187-.301697-.561737-.465286-.88768-.754852-1.457794-.206177-.40863-.283478-.574554-.461731-.994812-.288651-.761597-.468949-1.272003-.886078-1.972015-.261871-.372147-.371628-.518753-.655441-.883316-.293961-.364243-.413864-.510544-.713333-.886124-.292008-.393967-.404435-.55867-.668854-.987671-.34961-.638946-.5336-1.020218-.829224-1.726608-.165741-.552948-.209747-.785706-.248596-1.383942.140961-1.15422.483002-1.816375,1.544037-2.442276c7.781524-1.047928,15.221939-.301742,23.074188-.606079.719894.025406,1.007492.048203,1.699799.224182c2.161697.164337,3.91867.175507,6.114685.171143.633758-.143006.828491-.270493,1.369384-.429535c3.039429.275299,5.734864.375015,8.756867-.020828.535553-.12172.748962-.170243,1.914749-.190781c1.142929.106369,1.333466.184769,2.00618.613693.62088.482559.759552.614579,1.282135,1.145844.50621.529327.628494.659424,1.110229,1.167587.47757.500626.595673.623215,1.065308,1.106293.351517.360504.70227.716446,1.054504,1.070648.471299.472671.590348.591141,1.074738,1.068634.491562.48111.617813.60318,1.140625,1.100647.536316.505493.676056.63559,1.255646,1.179413.586792.567993.733764.722229,1.240631,1.440765.395172.794647.430481,1.024994.356125,1.593353-.292511.492356-.475373.646683-.985382.953766-6.237412.992813-12.18396.278901-18.10289.589325-1.480927.077683-3.364289-.913711-4.255188,1.445343c7.339569,11.293503,13.347549,22.991074,19.950943,34.341065c6.106445,10.495865,12.121887,21.045685,18.099273,31.615356c1.7668,3.124176,2.854569,2.46756,4.296799-.117035c12.240112-21.935135,25.253174-43.429565,37.405487-65.764084-.773468-2.573196-2.69931-1.400238-4.121063-1.515625-5.001831-.40596-10.07077.598999-15.36499-.902694-1.085633-5.239624,4.156738-11.172119,9.911682-11.706604c2.472381-.22963,4.968475-.014466,7.862487-.246216.690552-.018921.967316.004303,1.604218.236832Z" transform="translate(-250.975876,-249.355911)" fill="#b9feed"/></g><g id="erxz4oM3wNe89_to" transform="translate(250.978691,234.021606)"><path d="M234.870911,197.73175c.790222.433716,1.14328.707383,1.684967,1.100907.491424.327133.780639.552002,1.259063.979751.200852.187821.188111.184418.186554.178009.209748.233506.430786.464066.838044.847413.176452.162139.163589.159027.161987.152603.209732.233474.430786.464035.838013.847397.176452.162139.163604.159011.162002.152587.209717.23349.430771.464051.837998.847413.176452.162139.163604.159011.162002.152587.209717.23349.430771.464051.837998.847413.176452.162139.163604.159011.162002.152587.209717.23349.430771.464051.837998.847413.176452.162139.163604.159011.162002.152587.209717.23349.430771.464051.837998.847413.176452.162139.163604.159011.162002.152587.209717.23349.430771.464051.837998.847413.176452.162139.163604.159011.162002.152587.209717.23349.430771.464051.837998.847413.176452.162139.163604.159011.162002.152587.209717.23349.430771.464051.837998.847413.176452.162139.163589.159027.161987.152603.209747.233459.430801.464035.838028.847412.176452.162109.163559.159042.161972.152603.209732.23349.430786.464066.838043.847382.176453.162094.163483.159118.161957.152649.209778.233413.430817.463989.838043.84732.176483.162079.163422.158295.161102.151886.477021.524475,1.060715.537201,1.95549.174072c4.94011-4.723404,9.612595-9.286941,14.543656-14.046051c8.131561-1.078491,16.030365-.396606,23.915039-.579071c1.107208-.025619,1.920135.393173,1.834442,2.117905-12.872955,22.791702-25.563324,45.126556-38.319076,67.424026-.774704,1.354218-1.308838,3.432892-3.147263,3.490113-1.975708.061493-1.594757-2.205719-2.285416-3.413422-12.134018-21.218262-24.236694-42.454452-36.377136-63.669022-.38855-.678939-1.105835-1.169769-1.878006-2.002182-1.308502-3.159713-.184646-4.07817,2.758545-4.011398c7.141647.162003,14.288513-.031189,21.869965.257095Z" transform="translate(-250.978691,-234.021606)" fill="#fdf4a7"/></g><g id="erxz4oM3wNe147_to" transform="translate(250.927063,154.533981)"><path d="M225.100677,155.013794c4.381669-8.559525,8.894837-16.82721,13.507187-25.039185c3.403916-6.060447,6.946045-12.043151,10.404435-18.073211.588165-1.025521,1.147842-2.284203,2.383758-2.329804c1.563873-.057701,1.256561,1.618157,1.792893,2.549469c7.726577,13.417038,15.506057,26.80362,23.246597,40.212662.314819.54538.371216,1.239975.545166,2.236313-2.285095,1.517166-4.727661.608246-7.069611.93161-1.134308.156631-2.685608-.722672-3.04657,1.450317c4.174042,4.420685,8.175873,8.54187,12.385193,12.959229.542054,1.03746.437775,1.771683-.038208,2.819427-.210174.316117-.219238.261521-.191559.261261-.231781.208634-.474975.434983-.865173.867249-.163269.188431-.165069.130585-.136139.131531-.230469.209869-.473633.436233-.863861.868438-.163299.188416-.1651.13057-.136169.131516-.230439.209915-.473572.436294-.863831.868469-.163299.188416-.16513.1306-.13623.131531-.230347.209976-.473511.436355-.863831.868469-.163269.1884-.165069.13057-.136169.131516-.230347.209991-.473511.43637-.863831.868484-.163269.1884-.165069.13057-.136169.131516-.230347.209991-.473511.43637-.863831.868484-.163269.1884-.165069.13057-.136169.131516-.230347.209991-.473511.43637-.863831.868484-.163269.1884-.165069.13057-.136169.131516-.230347.209991-.473511.43637-.863831.868484-.163269.1884-.165069.13057-.136169.131516-.230347.209991-.473511.43637-.863831.868484-.163269.1884-.165069.13057-.136169.131516-.230347.209991-.473511.43637-.863831.868484-.163269.1884-.165069.13057-.136169.131516-.230347.209991-.473511.43637-.863831.868484-.163269.1884-.165069.13057-.136169.131516-.230347.209991-.473511.43637-.863831.868484-.163269.1884-.165069.13057-.136169.131516-.230347.209991-.473511.43637-.863831.868484-.163269.1884-.165069.130554-.136169.1315-.230408.209946-.473542.436325-.863861.868485-.16333.188385-.16507.130539-.136139.13147-.230378.210006-.473542.436416-.863953.868499-.163422.18834-.16507.130463-.136139.131348-.230286.210113-.473419.436584-.864044.868622-.163513.188263-.165039.130325-.136108.131164-.230134.210297-.473237.436875-.864075.868775-.163696.188171-.1651.130188-.136109.130951-.229888.210495-.472961.437195-.864013.868988-.163819.188125-.16507.130111-.136078.130798-.229736.210709-.472809.437485-.864044.869171-.163849.188111-.1651.13002-.136048.130707-.229644.210754-.472686.437576-.863952.869263-.16388.18811-.165131.130035-.136109.130706-.229583.21077-.472625.437623-.863891.869324-.16391.18808-.165131.130005-.136109.130661-.229553.210785-.472564.437653-.863891.869324-.16391.188095-.165131.13002-.136109.130676-.229553.2108-.472564.437653-.863891.869309-.163895.18811-.165177.129989-.136109.130676-.229568.210785-.472595.437637-.863907.869324-.163894.18811-.165145.129989-.136093.130676-.229568.2108-.472595.437668-.863922.869354-.163894.188095-.16513.129959-.136062.130615-.229584.210816-.472626.437684-.863938.869385-.16391.188111-.164154.12999-.135132.13147-.755081.546829-1.59288.756378-2.841583.094147-8.710922-8.724518-17.099991-17.134003-25.717117-25.760666-.849838-.67923-1.570511-1.021973-2.220261-1.906342c3.155945-5.427017,8.294235-8.982528,12.503205-13.834396c1.100463-2.250977-.426758-2.033173-1.533967-2.084229-2.642654-.121811-5.294891.159531-8.108429-.485046Z" transform="translate(-250.927063,-154.533981)" fill="#f8f0a3"/></g><g id="erxz4oM3wNe265_to" transform="translate(251.003685,171.109398)"><path d="M249.569061,161.491638c8.428376,1.177674,12.470978,7.103501,9.429383,14.063233-1.399475,3.202194-5.147126,4.683014-8.480668,5.151016-2.831619.397583-7.820892-4.879502-8.260482-7.274643-1.109543-6.045441,1.394027-9.776276,7.311767-11.939606Z" transform="translate(-251.003685,-171.109398)" fill="#34753a"/></g></svg>
