<svg id="ewI12B5rLAG1" xmlns="http://www.w3.org/2000/svg" xmlns:xlink="http://www.w3.org/1999/xlink" viewBox="0 0 500 500" shape-rendering="geometricPrecision" text-rendering="geometricPrecision">
<style><![CDATA[
#ewI12B5rLAG3_to {animation: ewI12B5rLAG3_to__to 1000ms linear infinite normal forwards}@keyframes ewI12B5rLAG3_to__to { 0% {transform: translate(251.243889px,209.153412px)} 50% {transform: translate(249.992394px,240.835258px)} 90% {transform: translate(251.243889px,209.153412px)} 100% {transform: translate(251.243889px,209.153412px)}} #ewI12B5rLAG3 {animation: ewI12B5rLAG3_c_o 1000ms linear infinite normal forwards}@keyframes ewI12B5rLAG3_c_o { 0% {opacity: 1} 30% {opacity: 0.3} 50% {opacity: 1} 70% {opacity: 0.3} 100% {opacity: 1}} #ewI12B5rLAG4_to {animation: ewI12B5rLAG4_to__to 1000ms linear infinite normal forwards}@keyframes ewI12B5rLAG4_to__to { 0% {transform: translate(250.993362px,249.335403px)} 50% {transform: translate(249.741867px,281.017249px)} 90% {transform: translate(250.993362px,249.335403px)} 100% {transform: translate(250.993362px,249.335403px)}} #ewI12B5rLAG5_to {animation: ewI12B5rLAG5_to__to 1000ms linear infinite normal forwards}@keyframes ewI12B5rLAG5_to__to { 0% {transform: translate(251.250671px,156.023853px)} 50% {transform: translate(249.999176px,187.705699px)} 90% {transform: translate(251.250671px,156.023853px)} 100% {transform: translate(251.250671px,156.023853px)}} #ewI12B5rLAG6_to {animation: ewI12B5rLAG6_to__to 1000ms linear infinite normal forwards}@keyframes ewI12B5rLAG6_to__to { 0% {transform: translate(251.203491px,253.886925px)} 50% {transform: translate(249.951996px,285.568771px)} 90% {transform: translate(251.203491px,253.886925px)} 100% {transform: translate(251.203491px,253.886925px)}} #ewI12B5rLAG6 {animation: ewI12B5rLAG6_c_o 1000ms linear infinite normal forwards}@keyframes ewI12B5rLAG6_c_o { 0% {opacity: 1} 30% {opacity: 0.3} 50% {opacity: 1} 70% {opacity: 0.3} 100% {opacity: 1}} #ewI12B5rLAG7_to {animation: ewI12B5rLAG7_to__to 1000ms linear infinite normal forwards}@keyframes ewI12B5rLAG7_to__to { 0% {transform: translate(251.016418px,131.961998px)} 50% {transform: translate(249.764923px,163.643844px)} 90% {transform: translate(251.016418px,131.961998px)} 100% {transform: translate(251.016418px,131.961998px)}} #ewI12B5rLAG7 {animation: ewI12B5rLAG7_c_o 1000ms linear infinite normal forwards}@keyframes ewI12B5rLAG7_c_o { 0% {opacity: 1} 30% {opacity: 0.3} 50% {opacity: 1} 70% {opacity: 0.3} 100% {opacity: 1}} #ewI12B5rLAG8_to {animation: ewI12B5rLAG8_to__to 1000ms linear infinite normal forwards}@keyframes ewI12B5rLAG8_to__to { 0% {transform: translate(287.797363px,183.1726px)} 50% {transform: translate(286.545868px,214.854446px)} 90% {transform: translate(287.797363px,183.1726px)} 100% {transform: translate(287.797363px,183.1726px)}} #ewI12B5rLAG8 {animation: ewI12B5rLAG8_c_o 1000ms linear infinite normal forwards}@keyframes ewI12B5rLAG8_c_o { 0% {opacity: 1} 30% {opacity: 0.3} 50% {opacity: 1} 70% {opacity: 0.3} 100% {opacity: 1}} #ewI12B5rLAG9_to {animation: ewI12B5rLAG9_to__to 1000ms linear infinite normal forwards}@keyframes ewI12B5rLAG9_to__to { 0% {transform: translate(214.027687px,183.191597px)} 50% {transform: translate(212.776192px,214.873443px)} 90% {transform: translate(214.027687px,183.191597px)} 100% {transform: translate(214.027687px,183.191597px)}} #ewI12B5rLAG9 {animation: ewI12B5rLAG9_c_o 1000ms linear infinite normal forwards}@keyframes ewI12B5rLAG9_c_o { 0% {opacity: 1} 30% {opacity: 0.3} 50% {opacity: 1} 70% {opacity: 0.3} 100% {opacity: 1}} #ewI12B5rLAG175_to {animation: ewI12B5rLAG175_to__to 1000ms linear infinite normal forwards}@keyframes ewI12B5rLAG175_to__to { 0% {transform: translate(250.750175px,233.435326px)} 50% {transform: translate(249.49868px,265.117172px)} 90% {transform: translate(250.726455px,235.031563px)} 100% {transform: translate(250.726455px,235.031563px)}} #ewI12B5rLAG176_to {animation: ewI12B5rLAG176_to__to 1000ms linear infinite normal forwards}@keyframes ewI12B5rLAG176_to__to { 0% {transform: translate(250.968277px,155.083912px)} 50% {transform: translate(249.716782px,186.765758px)} 90% {transform: translate(250.968277px,155.083912px)} 100% {transform: translate(250.968277px,155.083912px)}} #ewI12B5rLAG331_to {animation: ewI12B5rLAG331_to__to 1000ms linear infinite normal forwards}@keyframes ewI12B5rLAG331_to__to { 0% {transform: translate(250.722763px,170.922745px)} 50% {transform: translate(249.471268px,202.604591px)} 90% {transform: translate(250.722763px,170.922745px)} 100% {transform: translate(250.722763px,170.922745px)}}
]]></style>
<g id="ewI12B5rLAG3_to" transform="translate(251.243889,209.153412)"><path id="ewI12B5rLAG3" d="M324.727234,208.766144c-23.721649,41.489715-47.232849,82.67926-70.763764,123.857544-.713699,1.248932-1.172775,3.147644-2.836212,3.130859-1.720276-.017364-2.00589-2.02362-2.716278-3.265015-28.845077-50.40686-57.65834-100.831893-86.488769-151.247131-2.758423-4.823639-2.663666-5.064255,2.874466-5.075622c9.804901-.020157,19.609878-.005661,30.966064-.005661-5.87503-5.878861-10.637665-11.092728-15.894577-15.74849-3.545181-3.139755-3.669907-4.964233-.129608-8.446899c22.446533-22.081131,44.68515-44.37542,66.819549-66.77018c3.306519-3.345421,5.292695-3.651932,8.765183-.133903c22.353378,22.646644,44.884933,45.11824,67.481094,67.523178c2.652222,2.62976,3.261414,4.213058.153839,6.986358-5.4552,4.868439-10.497589,10.199448-16.227478,15.843628c3.524323,1.293152,6.468934.674668,9.30243.711884c7.662414.100677,15.328827.132873,22.989868-.010254c3.310455-.061875,4.255005.519714,2.328644,3.775497-5.592835,9.45282-10.960785,19.038697-16.624451,28.874207Z" transform="translate(-251.243889,-209.153412)" fill="#acabab"/></g><g id="ewI12B5rLAG4_to" transform="translate(250.993362,249.335403)"><path d="M209.770294,186.198425c.427887-.251159.62262-.300537,1.101776-.449554.498108-.161133.711823-.222595,1.257538-.275177c2.904526.466598,5.488831.452103,8.699082.071228.826263-.164826,1.03247-.198364,1.549835-.245178.718277.023529,1.115402.106109,1.762863.375183.421005.236831.579163.344421.950806.63388.343582.309784.473678.437653.969894.948212.484879.506577.603622.630478,1.074371,1.115723.352005.361343.700989.715606,1.048844,1.066009s.697113.699753,1.050506,1.050461c.473938.469086.594498.587463,1.088837,1.067444.504257.485519.63475.609436,1.178833,1.116928.559479.517975.705368.652359,1.301697,1.224609.593948.605652.737472.773438,1.181183,1.557099.266647.849182.233078,1.082489-.014923,1.601013-5.647614,2.308838-11.287247.805695-16.814301,1.24321-1.472412.116562-2.962326-.032242-4.440796.065811-2.970276.197021-2.104111,1.724914-.88504,3.550659.668365.825745,1.027756,1.431137,1.514572,2.358765.791565,1.923614,1.197311,3.658661,2.709061,5.190277.621734.757812.953415,1.317001,1.398956,2.181076.708054,1.84938,1.177032,3.462433,2.644684,4.899338.614685.744781.940368,1.302017,1.388702,2.17691.6913,1.801041,1.173309,3.332184,2.563355,4.756378.634018.766281.968536,1.3302,1.414016,2.198334.700684,1.850113,1.183487,3.455383,2.65532,4.89296.620056.757232.949279,1.321563,1.397857,2.200454.682236,1.736557,1.146027,3.212677,2.469986,4.607575.638809.773239.981064,1.344497,1.446427,2.22586.58229,1.271332.890396,2.31012,1.749725,3.428711.459457.589432.712295.933564,1.13472,1.550644.509064.811859.78479,1.386109,1.197342,2.243012.528625,1.231888.861618,2.210342,1.699112,3.276809.453354.569596.70224.904206,1.117752,1.508088.502929.802215.775924,1.370452,1.185379,2.220138.52745,1.229828.860885,2.206833,1.697937,3.272568.454056.570556.70343.905853,1.119934,1.51123.504837.805512.779205,1.37619,1.191025,2.230164.531997,1.23999.874282,2.222992,1.727432,3.292663.460434.575318.712982.913605,1.134811,1.523987.514237.812836.796448,1.389832,1.265885,2.230286c2.593704,3.051178,2.541-.077789,3.520858-1.388855.352585-.71283.591538-1.099152,1.05481-1.745606c1.406265-1.639038,2.285645-3.189788,2.984741-5.230987.337708-.710236.568268-1.093445,1.020081-1.726227.870483-1.10083,1.487304-1.971512,1.955688-3.301025.364929-.892624.663239-1.46138,1.120362-2.308289.385742-.635361.629089-.981491,1.077575-1.565109.844635-1.047257,1.381195-1.914627,1.83429-3.187119.356323-.872299.648437-1.429336,1.09729-2.261673.382446-.629455.624054-.972824,1.069702-1.553207.843231-1.045914,1.379303-1.912491,1.832275-3.184113.356507-.872528.648713-1.429733,1.097687-2.262329.382569-.629562.624146-.973053,1.069916-1.553497.843262-1.045929,1.379394-1.912537,1.832428-3.184143.356445-.872467.648529-1.429657,1.097504-2.262039.381652-.629898.624664-.972199,1.069519-1.552887.843261-1.045609,1.379913-1.911804,1.833068-3.184342.358521-.877014.652588-1.43779,1.105591-2.277603.389405-.64003.635376-.990494,1.088379-1.587066.870362-1.09018,1.387818-2.01381,1.865662-3.333207.39386-.91391.73291-1.484588,1.301941-2.306717c1.281799-1.407547,2.045776-2.731201,2.619873-4.547927.386749-.9319.725555-1.51062,1.29248-2.341324c1.471009-1.541153,2.237519-3.098221,2.868592-5.123368.417511-.965484.779052-1.570175,1.372772-2.455932c2.623749-3.155777,1.655975-4.099167-1.766266-4.178269-6.056213-.139984-12.142792.633942-18.494659-.72821.13208-4.898254,6.775177-11.350998,11.667327-11.777786c2.443848-.213211,4.908783.021896,7.75-.29657.661347-.071976.928681-.074509,1.577576.046265.578095.190567.774628.257812,1.269501.414978c1.3656.950058,2.584381.475235,3.97995.29042.719208-.216186,1.207062-.241333,2.467712-.418548c7.335266-.214356,13.898621-.236649,20.459747-.128632c2.474213.040726,5.228333.032394,4.789704,4.208465-.152161.62819-.225037.870286-.45697,1.443558-1.542359,2.042557-3.075745,3.658814-3.767273,6.165299-.171845.48381-.245484.67305-.449982,1.130111-.235016.431626-.339111.595444-.793243,1.199829-.575409.727326-.787171,1.023728-1.105744,1.572861-.205261.402298-.28717.563584-.494598.965882-.20636.403533-.287293.56604-.486695.974121-.199371.408279-.280242.570968-.486724.974411-.207428.401489-.289277.562225-.49289.962799-.20871.395172-.295593.550506-.530762.923889-.254608.354523-.36087.491012-.769012,1.034912-.301849.40741-.559784.835739-.679718,1.054596s-.360229.656311-.485443.871551c-.294464.502655-.450867.796937-.694306,1.332062-.172058.388825-.244232.54364-.432556.928025-.192627.383865-.269104.538162-.460937.924148-.199219.382217-.283142.532776-.512451.895111-.249634.345246-.353821.478699-.753479,1.013748-.295502.401596-.548127.824234-.665467,1.039292s-.352081.642547-.474487.8517c-.287872.485443-.441376.768234-.679687,1.281295-.096772.22377-.308197.668503-.4245.886994-.271973.517273-.423004.818359-.681152,1.360962-.202088.393921-.292664.548523-.543671.923431-.274139.36467-.387909.509018-.833771,1.101227-.642822.918594-.923279,1.405685-1.232574,2.202377-.170685.452118-.242523.632446-.437103,1.07814-.301056.615372-.486756.961487-.824616,1.563843-.258453.422425-.37088.585297-.671295.974777-.4375.520081-.668305.827607-1.008179,1.401841-.210419.420227-.291534.588836-.498413,1.006073-.298889.573364-.470215.899139-.754059,1.47644-.195556.416534-.27655.582581-.48703.995041-.305145.578888-.484772.90921-.813537,1.487045-.261109.404755-.376892.559937-.680664.936646-.855622.935974-1.363282,1.746841-1.763611,2.958847-.164429.463363-.234925.646957-.427063,1.098678-.297638.61406-.48111.955948-.810852,1.542115-.242524.403396-.346649.558334-.628723.923248-.53595.604279-.889954,1.001663-1.256592,1.710846-.178986.398788-.250397.558761-.438172.954636-.280273.547927-.441681.861267-.711914,1.421401-.190612.409424-.270202.573151-.477752.980927-.302246.574982-.480927.903549-.808869,1.48024-.262237.405975-.378692.56192-.684143.941345-.86673.949402-1.367187,1.780655-1.772949,3.015549-.171143.48172-.245117.673767-.447388,1.148865-.315918.655471-.512604,1.022995-.877807,1.657348-.279725.443054-.401062.6138-.723084,1.023972-.917602.987167-1.492004,1.824173-1.917602,3.113815-.177033.491608-.252839.687286-.459046,1.170685-.320404.664764-.519714,1.036774-.888855,1.677215-.281067.44571-.40274.617341-.725586,1.029175-.917907.987244-1.496124,1.821503-1.922668,3.109864-.176666.490295-.252289.685485-.458069,1.167968-.32016.6651-.52063,1.037293-.890503,1.681275-.284058.450103-.407532.623748-.736084,1.040649-.938782,1.005707-1.51123,1.868469-1.951447,3.176025-.187713.489289-.269744.681855-.500396,1.14795-.263794.441955-.379029.610351-.866181,1.241882-.856689,1.045074-1.30722,1.648834-1.682159,2.622864-.163544.432831-.231842.604706-.416626,1.027466-.285523.577728-.454712.904449-.741272,1.483093-.199799.419678-.282562.58728-.497131,1.004455-.310913.587067-.494233.922333-.830323,1.510346-.267547.414245-.386139.573669-.697143.962189-.890045.97464-1.381043,1.841064-1.805908,3.104034-.190278.489868-.274872.683655-.514954,1.155426-.27597.452515-.396484.627014-.909363,1.296631-1.372345,1.59375-2.072876,2.848663-2.599304,4.558227-.186646.494843-.270569.68985-.510193,1.162964-.276306.452179-.396912.626252-.908661,1.294129-1.365356,1.5914-2.059906,2.844726-2.584381,4.549133-.186401.494019-.270264.688721-.509888,1.161224-.276336.451844-.396942.625855-.90863,1.293885-1.366821,1.594146-2.059601,2.851471-2.586029,4.559692-.188583.497131-.273636.693237-.517151,1.1698-.281647.457092-.404816.633728-.933624,1.315155-1.838272,2.172058-3.16069,4.232605-5.940094,1.779114-.404221-.358002-.558808-.508759-.917938-.909851-.439408-.60965-.657532-.978821-1.00943-1.639283-.240403-.473419-.330002-.665557-.535462-1.152496-.504638-1.479401-.887893-2.666565-1.829895-3.937073-.322494-.412231-.453506-.576355-.782898-.987152-.327865-.414642-.457382-.58255-.766479-1.013367-.281189-.448608-.382782-.634307-.609589-1.11029-.534881-1.460541-.909637-2.646729-1.853638-3.907044-.322341-.409698-.453262-.572967-.782318-.982177-.327331-.413605-.456543-.581299-.764755-1.011658-.280365-.447876-.381744-.633118-.609268-1.107117-.479004-1.253235-.807251-2.230011-1.709198-3.253021-.348892-.384704-.486313-.541565-.811951-.949829-.410858-.606018-.619674-.968597-.9617-1.614319-.234833-.461883-.322449-.648651-.524201-1.120239-.44606-1.217743-.735595-2.170776-1.574264-3.174103-.322693-.363861-.452057-.508575-.761398-.881042-.388398-.549012-.582245-.878846-.898682-1.464295-.225845-.412628-.313797-.578644-.525391-.997101-.282745-.591583-.442398-.930511-.735946-1.518646-.219315-.417999-.305497-.586456-.519379-1.008118-.30806-.588226-.498505-.917358-.886398-1.465087-.310807-.378663-.434021-.533081-.726181-.934021-.374863-.592072-.569703-.943757-.898728-1.570374-.229431-.454834-.315338-.639893-.514557-1.108948-.44107-1.238739-.781372-2.187195-1.668777-3.19339-.347183-.383392-.483978-.540283-.808701-.949066-.411407-.608307-.621078-.972687-.966156-1.623749-.23825-.469055-.327392-.659301-.5336-1.140594-.452148-1.261566-.786972-2.232208-1.676315-3.262939-.348801-.386231-.486191-.543824-.812195-.953644-.412475-.607666-.6212-.971802-.964523-1.619507-.235611-.463318-.323563-.650635-.526062-1.123535-.44751-1.22049-.736435-2.176239-1.575501-3.182709-.322769-.364624-.452285-.509537-.761932-.882385-.389145-.549225-.582352-.879776-.899353-1.465332-.225906-.412796-.313888-.578903-.525528-.997467-.282745-.591706-.442505-.930634-.735962-1.518769-.219253-.417907-.305389-.586303-.519119-1.007827-.307694-.587784-.497772-.916642-.884796-1.463517-.309769-.377517-.432511-.531295-.72348-.930328-.3723-.588394-.566117-.93721-.891297-1.557434-.225815-.447083-.310135-.628357-.504638-1.086853-.433228-1.190033-.723084-2.118759-1.547379-3.095825-.316147-.353974-.442429-.49466-.744461-.855683-.376709-.529068-.56366-.845962-.860916-1.405822-.208206-.386933-.288376-.54126-.477951-.928101-.241913-.539566-.375519-.846191-.625199-1.366394-.114929-.214096-.347976-.636108-.458908-.848099s-.328277-.634643-.442321-.842529-.363266-.612213-.501435-.807861-.436539-.578156-.587555-.773163c-.24353-.333908-.336029-.472824-.55075-.832688-.278229-.524368-.433518-.828125-.718049-1.371826-.210846-.414795-.29187-.589966-.485076-1.0457-.256379-.652557-.411927-1.019699-.72902-1.628906-.255096-.400665-.361068-.554016-.631134-.924332-.275177-.355881-.38623-.494797-.6613-.839874-.26474-.348129-.365479-.490128-.593506-.857773-.276108-.533859-.424698-.842178-.698181-1.372223-.207138-.369705-.289078-.517853-.485047-.89125-.188369-.374894-.262741-.524582-.451141-.895417-.114044-.22113-.344864-.657928-.456329-.876281s-.331635-.652222-.447525-.865204-.369843-.626541-.511017-.826416-.446045-.590836-.60054-.790924c-.249421-.343125-.344361-.486161-.566559-.856598-.292374-.541809-.456284-.856858-.75145-1.416352-.212524-.413803-.292786-.583664-.484939-1.014801-.450058-1.173797-.942963-1.993682-1.78241-2.952789-.319595-.390716-.44252-.552521-.729584-.973206-.360351-.61853-.547211-.982986-.867126-1.624572-.228348-.457184-.315613-.641358-.521424-1.105164-.462677-1.211929-.87796-2.105453-1.718918-3.092499-.307861-.374069-.426452-.525833-.70375-.915817-.338928-.56459-.508621-.896332-.787644-1.473739-.201736-.396592-.280777-.554291-.469802-.948945-.246293-.551696-.38527-.865249-.649079-1.400329-.205993-.370484-.289581-.518372-.496612-.891602-.208115-.376236-.292801-.527115-.516007-.903106-.241241-.373154-.343933-.521195-.613327-.891449-.278778-.375763-.390869-.529328-.657684-.930268-.241196-.425216-.327683-.603088-.526291-1.058746-.449265-1.225433-.791916-2.170624-1.531235-3.26178-.29686-.407638-.41777-.569046-.724457-.970306-.311355-.399765-.436966-.559708-.746521-.967499-.293304-.425324-.402664-.602783-.639404-1.068634-.267822-.697342-.397735-1.109619-.620453-1.848847-.235885-.779418-.308014-1.245117-.269729-2.092742.199905-.598237.334747-.822098.785751-1.293015c7.803299-1.756836,15.377121-.564178,23.740204-.895645c1.309311.141174,1.778045.206345,2.605133.293121c1.452423.914383,2.696213.462784,4.128143.213623Z" transform="translate(-250.993362,-249.335403)" fill="#8a5424"/></g><g id="ewI12B5rLAG5_to" transform="translate(251.250671,156.023853)"><path d="M214.969391,177.150635c-.625046-.44133-1.001877-.75705-1.618622-1.138245-.239883-.065475-.632873-.334564-.802353-.501922s-.49498-.51503-.796387-.881043-.619491-.716736-.94815-1.058166-.661759-.679215-.995896-1.016312-.668731-.673706-1.003357-1.009934-.669158-.672012-1.003585-1.007385-.668656-.670334-1.002762-1.004944-.668015-.668945-1.001831-1.003021-.667465-.667953-1.001068-1.001678-.667084-.667313-1.000519-1.000824-.666702-.666886-.999909-1.000153-.666275-.666443-.999221-.999512-.665802-.666137-.998825-.999405-.666733-.667282-1.001877-1.002487-.673264-.673004-1.016251-1.014251-.694351-.688218-1.057342-1.042283c-.48909-.476059-.615189-.598037-1.127961-1.111007-.509613-.538239-.632583-.685501-.916748-1.082886-.238968-.439255-.316726-.628372-.465393-1.122925-.153702-.956863-.115844-1.603958.093491-2.577926.773681-1.89711,2.00293-3.032731,3.173981-4.204972c15.610656-15.626419,31.229476-31.24469,46.854934-46.8563c1.173355-1.172325,2.321747-2.384544,4.204529-3.222756.817673-.211998,1.297531-.255058,2.140381-.192466c2.395279.606682,3.717483,2.15226,5.123138,3.555839c15.548828,15.525818,31.084778,31.064591,46.614502,46.609558c1.527436,1.528931,3.121765,3.019211,3.920624,5.487717.079437.556671.080902.780151-.178772,1.590607-.389801.748245-.518402.90953-1.063538,1.491165-.555023.548645-.693481.676941-1.232238,1.175842-.528565.491013-.6568.611405-1.156983,1.087113-.492462.471969-.613006.588638-1.087646,1.051315-.354126.346008-.702332.68869-1.046448,1.028915s-.684967.678482-1.023682,1.015366-.675689.672684-1.011596,1.007736-.67099.669571-1.005463,1.003739-.668579.668029-1.002411,1.001709-.667541.667175-1.001037,1.000656-.667115.666977-1.000855,1.000717-.667938.66806-1.002991,1.003433-.6716.672577-1.009948,1.01236-.6792.683303-1.022766,1.031463-.690247.702072-1.042725,1.059998c-.476044.474197-.59964.590469-1.159485.966247-.59552.319809-.754822.380082-1.097626.618073-.183502.177719-.18753.107956-.152618.109375-.236084.200989-.487518.42276-.86731.870697-.14801.203903-.157501.133346-.122345.138962-.242004.193268-.49533.408935-.870391.856247-.145539.203659-.167603.135757-.133912.147613-.254455.182846-.506774.396134-.867248.854553-.143921.202835-.16742.135132-.133362.146302-.256164.179565-.506256.394607-.863403.856476-.147156.20018-.160401.129241-.125916.139816-.087005.129532-.208496.248489-.527893.840347-.301514.609497-.405029.746079-.861481,1.255798-.474914.494156-.596923.615189-1.087921,1.103363-.493316.493088-.617584.619019-1.121093,1.136292-.510285.526596-.641358.661865-1.19574,1.202393-.735718.669448-1.061035.916641-1.677918,1.305618-3.909881,3.125686-7.092376,6.547836-10.377807,10.288589-.1745.498123-.221192.702805-.382691,1.193878-.22818.452439-.341583.618515-.673706.980332-.37503.303238-.53128.410721-1.141022.820419-.592163.409348-.730834.516495-1.254425.963074-.506927.454666-.628936.5699-1.108032,1.03006-.357025.344955-.707763.687912-1.054291,1.028808s-.689605.680039-1.030242,1.017792-.6792.674301-1.016358,1.01001-.673126.670624-1.008362,1.005096-.670105.668701-1.004974,1.003205-.670532.669998-1.00766,1.007476-.677277.678818-1.021301,1.026001-.694107.703949-1.051758,1.073304c-.481064.497589-.604508.625793-1.125412,1.144409-.547684.512878-.697922.635376-1.102554.916092-.444611.235031-.634827.311844-1.129731.462921-1.166702.20932-2.027343.180008-3.215881-.025284-5.386902-3.347092-9.163635-7.95311-13.298187-12.641952-.425904-.86969-.613587-1.47638-.814453-2.392014-.285431-.880997-.697831-1.25383-1.529969-1.598358-.233795-.170197-.233337-.17511-.235626-.174866-.214355-.23027-.432693-.454727-.827896-.834534-.170624-.161392-.169815-.16571-.171966-.165313-.214341-.230255-.43277-.454834-.828202-.834809-.170715-.161483-.169647-.165588-.171692-.165054-.214309-.230209-.432815-.454864-.828338-.834991-.170807-.16153-.169617-.165543-.171616-.164948-.214279-.230194-.4328-.454895-.828384-.835037-.170807-.16156-.169617-.165558-.171601-.164963-.214248-.230194-.432785-.454895-.828399-.835022-.170807-.161545-.169617-.165573-.171631-.164993-.214249-.230133-.432739-.454804-.828278-.834946-.170776-.161529-.169708-.165634-.171753-.1651-.214233-.230148-.432693-.454773-.82814-.834808-.170746-.161499-.169815-.165726-.171921-.165268-.214279-.230194-.432708-.454788-.828125-.834778-.17073-.161469-.169769-.16568-.172073-.165176-.360245-.455338-.614319-.999253-1.403839-1.404191-.468872-.092605-.660065-.105606-1.134232-.154449-.444061-.133713-.605163-.231583-.947448-.541016-.285004-.361312-.388794-.511093-.805359-1.091827-.429276-.56102-.545761-.69104-1.050629-1.168243-.528656-.451294-.668976-.55539-1.021118-.81688-.487473-.381332-.729141-.637726-1.05072-1.163589-.100708-.596695-.163865-.938385-.483277-1.453934-.184234-.18724-.115448-.200531-.118774-.165665-.201279-.23413-.417679-.487289-.85669-.87059-.2014-.148422-.135131-.164581-.138336-.13063-.216965-.271897-.474518-.53566-1.017883-.888855Z" transform="translate(-251.250671,-156.023853)" fill="#885223"/></g><g id="ewI12B5rLAG6_to" transform="translate(251.203491,253.886925)"><path id="ewI12B5rLAG6" d="M179.017242,189.297592c.207047.365647.372834.354965.60492.105225.213516.665848-.314438,1.428222.164001,2.470382.137329.261857.159256.165863.110016.165375.284363.194123.573883.440552.805618,1.025894-.013992.28743-.084686.154938-.125823.217759c1.908477,1.238082,1.962005,3.53186,3.179031,5.544754.167297.306778.193313.214248.145325.211502.28424.193191.569992.443252.80133,1.026321-.01474.286865-.059433.122879-.119858.182633.85756.041595.850861.797393,1.09285,1.710861.045578.327682.084824.180282.011902.202652.729706.166839.76239.862976,1.048904,1.753647.099808.304901.137528.165603.065506.170105.6055.276916.657761.928451.98053,1.777114.143814.273957.163742.176346.113938.176819c1.241317,1.28772,2.033203,2.879929,2.837661,4.850159.11705.314239.154816.182266.086197.184021.588211.295196.640976.942734.962738,1.789642.143357.273026.163315.175659.113617.176071c1.240448,1.287857,2.032944,2.879273,2.838913,4.848511.118683.313538.155457.182083.087219.183884.585968.297989.638703.945145.960022,1.792114.142929.273163.167694.177963.118561.17569.283692.192795.569611.442596.799896,1.025879-.015625.286834-.063476.127044-.121048.187378.85788.03572.852723.790573,1.117112,1.69487.064315.323181.105346.171569.028259.186584.687973.205505.728332.888077,1.023178,1.771179.110397.298371.145294.163346.075607.165604.584351.298645.6371.945831.958634,1.792755.143081.273102.167923.17804.11885.17569.283432.192932.569168.442734.799469,1.025757-.015548.286728-.084564.151916-.126983.21463c1.680435.471191,1.221039,2.286575,2.157119,3.601196.123948.319.159821.187683.091782.189789.58551.298996.638291.946045.959778,1.792953.143066.273072.167953.178116.118927.175736.282913.193207.569031.442322.807495,1.024383-.008209.286866-.04184.11496-.108841.171357.834625.059722.835449.805862,1.096726,1.712661.06401.322647.104705.171173.027786.186447.68837.205216.728699.887757,1.023743,1.77063.110595.298264.145492.163514.075927.165741.583924.299118.63675.946137.958115,1.793076.143005.273102.1586.189148.116653.197098c1.503998,1.126464,1.93071,2.930557,2.837296,4.826736.119293.312958.154877.181259.0867.183518.584076.298156.637787.943496.963135,1.786346.147369.270065.164734.188171.123505.195404.940918.598892,1.251877,1.652496,1.791382,2.901398.056625.313629.098342.164962.022613.179992.689209.205353.729706.887635,1.024384,1.7706.110488.298248.145507.164093.076217.166321.582901.298172.636551.943512.961899,1.786315.147369.270035.165207.188004.123932.195664c1.4841,1.141403,1.923691,2.936233,2.826813,4.834274.119613.312622.155639.181153.087509.182984.58229.299072.636474.943756.96318,1.785431.148743.269073.167084.187835.126068.195068c1.476487,1.144958,1.920563,2.935455,2.829499,4.829712.12622.309692.161102.182037.09494.182373.569717.311035.623703.952942.950012,1.792633.148651.268158.167267.186981.126312.194519c1.474808,1.145935,1.919785,2.935333,2.83043,4.828339.128158.308776.162338.182128.096755.182312.566575.314392.620377.95581.946686,1.795105.148514.268066.166703.187042.125763.19403.93483.604004,1.24849,1.654877,1.786469,2.904114.05635.313507.098404.16629.023346.181336.687713.203857.729141.884094,1.033264,1.760437.119293.293823.152405.164398.085632.164794.565369.314606.619293.955933.945404,1.795319.148483.268066.167191.186951.126221.194306c1.474747,1.145751,1.91983,2.935058,2.830276,4.828094.128083.308807.162125.182373.09665.182648.566864.314239.620697.955505.946792,1.7948.148483.268005.167404.186828.126434.194396c1.474396,1.145783,1.919617,2.934601,2.830796,4.826905.129028.308349.15805.191314.0979.195282.30986.152252.611969.389587.798325.990814-.057984.288055-.157715.349884-.16185.408417c2.150024,1.034851,2.024505,3.430206,3.254699,5.391021.140046.322205.168656.205384.108658.209595.309601.15271.611832.389588.798737.990479-.057404.288055-.161636.349456-.16568.40982c2.157837,1.030213,2.026108,3.430146,3.258087,5.389557.14032.322266.170761.194397.105072.196289.573639.318756.623581.966767.92395,1.826904.123551.283387.136216.1904.092026.206177c3.431351,3.912049,3.431351,3.912049,6.319565-.598541.335403.018524.323288-.072205.288849-.102356-.184311-.43042-.110413-.773956.489166-1.183319.264603-.132111.144577-.139649.159241-.081329.854614-1.871979,1.667419-3.815094,3.055267-5.62613.351471.026764.340607-.072357.307556-.10968-.188354-.434143-.118103-.775818.47937-1.183655.263855-.130706.143708-.13861.158265-.0802.853515-1.87268,1.667877-3.815338,3.054321-5.629333.351623.024963.34024-.072602.306091-.10791-.187713-.432831-.116333-.774689.48114-1.182648.263825-.130951.143616-.138702.158173-.080261.854645-1.872925,1.66803-3.816895,3.055939-5.63144.351776.024506.339691-.071411.305664-.105712-.18866-.431855-.116944-.773743.480102-1.182434.263977-.131135.14325-.138367.158081-.079743.758942-1.555603,1.30249-3.275024,2.752442-4.862823.264068-.205231.182098-.221589.191314-.180817.353241-.480469.452851-1.096008.918641-1.844391.250457-.17746.11734-.178101.134002-.113647.281189-.513611.399048-1.144257.949707-1.850403.291352-.126251.144379-.156983.164856-.084748.406098-1.258911.878693-2.553741,1.958893-3.712677.346191.026703.33194-.064941.295197-.0932-.192353-.426209-.120789-.768463.477722-1.177002.26477-.130585.143585-.138092.158508-.079224.75589-1.557129,1.30191-3.275268,2.75061-4.864288.263855-.205597.181946-.221192.191224-.180542.3544-.480408.45343-1.09668.921752-1.843567.251648-.176117.119751-.176849.137207-.113251.750885-1.55664,1.302399-3.272033,2.74997-4.862488.263977-.205566.182098-.221099.191254-.18045.355224-.481476.452911-1.100342.932495-1.840607.256653-.170196.120788-.173767.138885-.108276.723572-1.570099,1.294403-3.275665,2.740082-4.86908.265289-.204422.182739-.220306.191711-.179245.350831-.483642.449799-1.102417.930176-1.842819.257263-.169693.121277-.174057.13916-.108429.721527-1.570938,1.293641-3.275757,2.738953-4.869446.265289-.204406.1828-.220565.191711-.179489.350892-.483536.449768-1.10234.930298-1.842605.257294-.169617.118775-.173676.136536-.10669.258545-.522445.382233-1.152359.933594-1.861831.29248-.126328.140594-.153244.163147-.079483.21466-1.000382.736602-1.91359,1.663086-2.941483.259643-.185394.175842-.200699.183227-.158737.33664-.490387.440155-1.108505.919922-1.851898.257629-.17035.121277-.174591.139099-.108735.723694-1.570693,1.292114-3.278793,2.748474-4.864776.26883-.200104.184937-.216904.192536-.174805.336639-.490219.440124-1.108246.919769-1.851593.257599-.170364.118896-.174347.136597-.107269.259277-.521927.382843-1.151825.933715-1.861832.292145-.126907.139618-.152878.162476-.078964.216003-1.000031.737488-1.913605,1.664551-2.941254.259796-.185257.176056-.200973.183288-.158966.336335-.490371.439728-1.10849.919526-1.851806.257598-.17035.121673-.174271.139801-.108735.589691-1.176376.950866-2.51007,1.996948-3.745727.338989-.052872.24942-.171021.225158-.100967-.108703-.33223.005372-.66681.558442-1.092392.240326-.158783.142151-.154068.154571-.106522.342163-.484406.445282-1.102509.924988-1.845764.257477-.170426.118286-.174103.136047-.106796.260895-.523377.382813-1.156769.953308-1.848298.30011-.110412.152466-.146331.176087-.074127.09848-.588943.252014-1.227691.890503-1.868393.327667-.046707.19873-.154144.189026-.070785-.087097-.317261.0177-.655304.575164-1.079392.240174-.159027.14206-.154236.15448-.106735.342926-.484344.445618-1.102997.927704-1.844604.258637-.168961.118531-.172471.136963-.104859.256745-.525879.379425-1.159897.953888-1.848801.301697-.107467.155548-.146514.178497-.074447.091156-.590653.24585-1.229035.884186-1.870392.32779-.046829.1987-.15419.189057-.070801-.087036-.31723.017761-.655273.575225-1.079361.240174-.159027.141968-.15422.154389-.106643.34433-.485444.445312-1.107377.942749-1.838746.265533-.159851.121796-.167846.141235-.098541.231659-.535476.360321-1.168335.93451-1.861267.30249-.108139.155487-.146988.178436-.074493.091217-.590271.246033-1.228668.884369-1.870117.327789-.046875.1987-.154252.189056-.070862-.087005-.3172.017792-.655243.575256-1.079331.240174-.159027.143982-.153534.156983-.107147c1.16864-2.179779,1.948517-4.604889,3.808624-6.809418.274689-.205948.189819-.225525.198609-.182876c2.487609-5.591263,2.487579-5.584732-3.51648-5.612381-6.617493-.030487-13.235413.079193-20.204895-.247422-.352295-.189132-.183868-.280975-.206604-.374237.75766-3.252807,2.716156-5.676864,5.926056-5.751602c10.443573-.243133,20.896332-.091003,32.252899-.091003-5.611816,9.886215-10.806976,19.090362-16.050598,28.26683-22.1203,38.711045-44.252075,77.415589-66.388458,116.117462-2.584427,4.518433-2.698258,4.554535-5.316696-.020752-23.550827-41.151123-47.069718-82.320556-70.593827-123.486984-3.84909-6.735763-7.677749-13.483215-11.889679-20.881943c11.104294,0,21.380997-.067977,31.655838.040207c3.204193.033738,4.791107,2.506623,6.151627,5.368866-.013733.345627-.049469.512024.027359.548615-7.446182,1.102005-15.010178.223328-22.918503.511688-1.024704.004166-1.672073.05751-2.470627.515671-.191345.352875-.192245.524292-.113846.936966.200318.556061.363221.847397.601532,1.362579Z" transform="translate(-251.203491,-253.886925)" fill="#fcfbfb"/></g><g id="ewI12B5rLAG7_to" transform="translate(251.016418,131.961998)"><path id="ewI12B5rLAG7" d="M212.818802,174.966797c.158768.214996.183472.605545.237778.792831-7.545258,1.576706-13.811753-.127441-18.730042-6.665329-2.875458-3.822372-6.644897-7.00093-10.183395-10.284622-1.98259-1.839828-2.30365-3.079666-.178498-5.190979c21.625458-21.484482,43.17479-43.045883,64.669968-64.660782c1.909103-1.919731,3.028503-1.700279,4.816315.095894c21.504852,21.605347,43.058746,43.162071,64.664825,64.666161c1.843567,1.834869,1.912232,3.000854.005554,4.827881-5.290771,5.069793-10.403198,10.325607-15.588989,15.505004-3.649933,3.645432-8.011963,1.959565-12.403961,1.241822-.278656-.562058-.346771-.74617-.150269-1.059494.264588-.129227.113526-.169388.110138-.091309.13089-.275619.340454-.576996.879181-.942917.254212-.116653.101349-.131408.109375-.055053.144318-.276017.350281-.579987.890747-.944931.254303-.116639.101258-.131348.109314-.054902.142823-.277038.352234-.578659.890686-.945083.254334-.116654.101258-.131348.109345-.054886.142792-.277054.352203-.578674.890655-.945099.254334-.116653.101258-.131363.109345-.054901.142792-.277054.352203-.578674.890655-.945099.254334-.116653.101258-.131363.109345-.054901.142792-.277054.352203-.578674.890655-.945099.254334-.116653.101258-.131363.109345-.054901.142792-.277054.352203-.578674.890655-.945099.254334-.116653.101258-.131363.109345-.054901.142792-.277054.352203-.578674.890655-.945099.254334-.116653.101258-.131363.109345-.054901.142792-.277054.352203-.578674.890655-.945099.254334-.116653.101258-.131363.109345-.054901.142792-.277054.352203-.578674.890655-.945099.254334-.116653.101258-.131363.109345-.054901.142792-.277054.352203-.578674.890655-.945099.254334-.116653.101258-.131378.109345-.054916.140655-.278504.353699-.577622.890655-.945084.254303-.116669.101227-.131332.109345-.054886.14032-.278763.353576-.577713.890625-.945129.254333-.116684.101288-.131348.109375-.054901.142853-.276993.352234-.578614.890533-.94516.254303-.116715.101319-.131363.109375-.054947.144257-.276001.349884-.5802.890503-.945099.254242-.116806.10141-.131668.109314-.055313.144745-.276138.351105-.580292.892212-.945099.25473-.116303.105042-.135437.110931-.060211.082703-.256882.253907-.52977.68396-.925141.024994-2.540695-1.602264-3.961135-3.120971-5.47734-16.862641-16.835038-33.713776-33.68158-50.850312-50.663956-1.024322-.31813-1.735672-.794884-2.81073-.254082-18.112075,17.840348-35.953308,35.562859-53.925354,53.582756-.589736,1.224381-.694335,2.186631-.266326,3.443177.15184.256439.171844.180511.132583.179901.249268.192672.51239.415893.90123.880203.151077.211182.155762.114807.107574.11702.240418.195434.503586.41864.892426.88301.151047.211213.155746.114823.107544.117035.240387.195359.50354.418503.892487.882706.151184.211075.155838.114929.107757.117142.240234.19545.503189.418564.892365.882187.151519.210663.156112.115188.108368.11737.239776.195832.502273.418915.891937.881272.152145.209854.156585.115768.109527.117843.238434.197495.501282.419419.890854.880768.152787.208893.157013.116333.110733.118332.238449.197739.499359.421295.889557.880844.153092.208222.157196.116684.11142.118622.238129.198349.498535.422104.888763.880951.15326.207825.157273.116852.111786.118774.238388.198197.497452.423294.888291.881073.153305.207642.157333.116898.111953.118805.237641.199097.497681.422989.888062.88115.15332.20758.157333.116912.111999.11882.237641.199142.49765.42305.888016.881164.153305.207581.157318.116928.111984.118836.237625.199173.49765.423065.888016.881164.153305.207581.157318.116928.111984.118836.237625.199173.49765.423065.888016.881164.153305.207581.157318.116928.111984.118836.237625.199173.49765.423065.888016.881164.153305.207581.157318.116928.111984.118836.237824.198944.497849.422836.888016.881195.15329.207596.157303.116897.111954.118805.238403.198288.497269.423568.888031.881256.153259.207641.159469.116241.113678.11673.25119.201873.50682.446502.879898.94931Z" transform="translate(-251.016418,-131.961998)" fill="#fbfaf9"/></g><g id="ewI12B5rLAG8_to" transform="translate(287.797363,183.1726)"><path id="ewI12B5rLAG8" d="M291.046631,185.395203c-.192719.261184-.652191.415985-.864624.532791-2.943421,1.031769-5.758789.340271-8.948303.54216-.692109-.089524-.962555-.167771-1.459534-.602799-.204865-.637725-.183258-.918701.158935-1.475128.320618-.275467.166749-.32074.16214-.240677.124176-.278518.33194-.583252.875733-.948822.257049-.11467.100921-.129959.109405-.051971.139221-.279083.347596-.582886.890015-.948349.256439-.114884.101013-.12999.109497-.052384.137695-.28041.349915-.581375.890625-.947448.256409-.114609.101135-.129685.109741-.052155.139649-.279312.348206-.582962.891052-.947204.256897-.113785.096436-.105561.118012-.028183.125366-.119614.229187-.31662.619842-.342438c3.700684.171203,7.114563.171203,10.528412.171203.238098.373169.476197.746323.714295,1.119492-1.570832,1.336899-3.141693,2.673813-4.905243,4.271912Z" transform="translate(-287.797363,-183.1726)" fill="#fcfbfb"/></g><g id="ewI12B5rLAG9_to" transform="translate(214.027687,183.191597)"><path id="ewI12B5rLAG9" d="M217.806305,179.963821c.163437.563355.300369.80571.787765,1.016068.518509.236603.804703.453415,1.225998.919434.1586.218521.159958.119049.110352.122619.240921.195465.503784.42009.89328.885315.150665.212189.15805.112915.108276.11348.250763.202102.51767.44075.893921.947937.148102.225815.155213.593338.199646.771682.201935.363892.359467.549454.177857.870255-.339157.135223-.37407.304779-.294617.339127-2.9328,1.085495-6.032761.327087-9.499725.26297-.411148-.215806-.819184-.420685-1.035889-.492096-2.011505-1.433594-3.806305-2.795792-5.601105-4.15799.295883-.520401.591782-1.040817.88768-1.561218c3.172348,0,6.344681,0,9.972657-.04245.640121-.10762.8246-.172806,1.173904.004867Z" transform="translate(-214.027687,-183.191597)" fill="#fff"/></g><g id="ewI12B5rLAG175_to" transform="translate(250.750175,233.435326)"><path d="M278.719727,222.373566c-.304749.557007-.514862.809066-.764435,1.308487-.374726.699386-.709992,1.151413-1.090851,1.888565-.713776,1.356826-1.381958,2.428497-2.147522,3.802963-.305939.555359-.514557.807907-.763123,1.307236-.374939.698608-.7099,1.150451-1.091522,1.887191-.714783,1.356202-1.382873,2.427521-2.150482,3.800827-.401428.478577-.607971.732727-.759216,1.310914-.374939.698272-.709656,1.150085-1.091553,1.886688-.71695,1.354187-1.386749,2.423584-2.158447,3.793915-.398774.481292-.604187.735565-.760987,1.308929-.373352.701462-.703857,1.157761-1.079193,1.89978-.716369,1.35315-1.387909,2.420563-2.162781,3.788407-.398193.482956-.602294.738052-.758941,1.310608-.373749.700012-.704285,1.155151-1.082581,1.895065-.718139,1.35173-1.388489,2.418686-2.166931,3.784027-.399353.484283-.601745.740417-.759369,1.311066-1.601562,1.628082-2.338806,3.506225-3.240982,5.667724-.404419.503876-.604095.763184-.757095,1.335663-1.765686.413513-1.038239,4.970795-4.472687,2.379273-.485153-.714905-.696411-1.241974-1.139343-1.941773-.338562-.484131-.44545-.795624-.740814-1.27124-.751358-1.306091-1.31424-2.448029-2.136445-3.781616-.470748-.718415-.682159-1.245209-1.124938-1.945038-.33928-.484192-.44719-.795319-.746583-1.267304-.751693-1.304779-1.31192-2.44873-2.131607-3.784546-.471298-.718124-.683105-1.244384-1.125717-1.94432-.338089-.485291-.445358-.796921-.744964-1.268875-.754486-1.303788-1.316635-2.447251-2.141419-3.778565-.47081-.71672-.679016-1.245575-1.119537-1.947265-.339554-.484421-.446777-.79599-.747757-1.266266-.753265-1.304337-1.31279-2.449982-2.135025-3.783997-.470291-.716385-.677887-1.2444-1.117371-1.945022-1.026672-1.73404-1.821426-3.295487-2.882171-5.048935-.475052-.718476-.684113-1.244934-1.123337-1.946076-1.024918-1.735977-1.819687-3.297287-2.879746-5.051239-.474472-.718948-.683624-1.245254-1.122619-1.946686-1.024475-1.73648-1.819107-3.297805-2.878937-5.05188-.474289-.718475-.683365-1.244201-1.119446-1.948333-1.02475-1.736756-1.822494-3.295136-2.883713-5.04834-.473968-.719971-.684463-1.245087-1.123611-1.946716-1.023926-1.736618-1.819199-3.296723-2.877869-5.051896-.474121-.719955-.684845-1.244873-1.123962-1.94664-.776672-1.533462-1.324951-2.890075-2.214554-5.091232c8.548813,0,16.784515,0,25.484833.093414c4.514511,4.254212,8.564422,8.415009,12.890823,12.741318c1.476975.83429,2.696411,1.317322,4.31659.35907.273086-.191055.248855-.235519.249816-.210876.202927-.226761.421952-.462281.840714-.839737.182632-.157822.137695-.180558.148895-.158005.213211-.228928.432297-.464508.851151-.842041.182678-.157883.137634-.180435.148803-.157868.213181-.228927.432297-.464538.851197-.842163.182678-.157898.137634-.180374.148742-.157806.213196-.228912.432312-.464539.851258-.842194.182678-.157913.137634-.180374.148742-.157791.213166-.228927.432282-.464554.851227-.842209.182709-.157913.137665-.180374.148773-.157791.213166-.228927.432282-.464554.851227-.842209.182709-.157913.137665-.180374.148773-.157791.213166-.228927.432282-.464554.851227-.842209.182709-.157913.137665-.180374.148773-.157791.213166-.228927.432282-.464554.851227-.842209.182709-.157913.137665-.180374.148773-.157791.213196-.228897.432343-.464523.851227-.842209.182709-.157898.137665-.180328.148773-.157776.213135-.228973.432282-.464569.851227-.842163.182678-.157928.137665-.180374.148804-.157837.213135-.228942.432251-.464523.851105-.842102.182678-.157898.137756-.180389.148956-.157898.213104-.228973.432129-.464508.850922-.841949.182617-.157852.142303-.184814.148925-.161499.260132-.283814.551117-.550507,1.15387-.884369.279236-.102188.511566-.039413.628601-.064148c8.223541-.024719,16.330078-.024719,24.413025-.024719.790619,1.845276-.83255,2.823852-1.223206,4.54126-.39093.809845-.726318,1.261901-1.102478,2.00003-.980285,1.758194-1.91983,3.230316-2.900756,5.034546-.380646.780106-.71991,1.228119-1.10138,1.962204-.983459,1.755753-1.924713,3.225418-2.911072,5.026077-.379425.783036-.713745,1.235077-1.090332,1.973023-1.118744,1.098083-1.656891,2.250213-2.157592,3.79068Z" transform="translate(-250.750175,-233.435326)" fill="#d04b3f"/></g><g id="ewI12B5rLAG176_to" transform="translate(250.968277,155.083912)"><path d="M266.809723,156.953156c3.01181,5.524002,7.806244,8.90773,12.289764,13.011383.672272.872345.614655,1.633438.085572,2.708618-.232788.316604-.183411.329757-.190155.305114-.215729.225449-.438843.462235-.858674.847748-.182586.162018-.134185.176041-.141174.151825-.215973.225861-.439026.462662-.858826.848145-.182586.161972-.134185.17604-.141235.151825-.215942.225921-.438995.462722-.858765.848144-.182617.161972-.134216.176071-.141265.151856-.215912.225937-.438935.462738-.858735.84816-.182617.161941-.134216.176071-.141265.151855-.215912.225922-.438935.462723-.858735.848145-.182617.161941-.134216.176071-.141265.151855-.215912.225922-.438935.462723-.858735.848145-.182617.161941-.134216.176071-.141265.151855-.215912.225922-.438935.462723-.858735.848145-.182617.161941-.134216.176071-.141265.151855-.215912.225922-.438935.462723-.858735.848145-.182617.161941-.134216.176071-.141265.151855-.215912.225922-.438935.462723-.858735.848145-.182617.161941-.134216.176071-.141265.151855-.215912.225922-.438935.462723-.858735.848145-.182617.161941-.134216.176071-.141265.151855-.215912.225922-.438935.462723-.858735.848145-.182617.161941-.134216.176071-.141265.151855-.215912.225922-.438935.462723-.858735.848145-.182617.161941-.134216.176071-.141265.151855-.215851.225967-.438904.462769-.858735.848129-.182617.161942-.134216.176071-.141296.151856-.215881.225952-.438904.462738-.858704.848098-.182617.161927-.134277.176087-.141357.151902-.21579.225982-.438782.462753-.858643.848007-.182617.16188-.134307.176117-.141418.151947-.21579.226013-.438721.462784-.85852.847977-.182679.161789-.13443.176071-.141602.151947-.215729.226135-.438599.462906-.85846.847946-.182647.161743-.134429.176147-.141662.152023-.215607.226242-.438446.463013-.858338.847901-.182647.161682-.13449.176178-.141723.152084-.215637.226227-.438416.462982-.858246.847854-.182678.161652-.134521.176224-.141815.152131-.215576.226257-.438324.463028-.858185.847869-.182678.161622-.134552.176209-.141815.152131-.215576.226287-.438324.463043-.858216.847839-.182647.161652-.134521.176224-.141784.152145-.215576.226288-.438324.463059-.858216.84787-.182647.161637-.134521.176224-.141784.152146-.215576.226272-.438324.463043-.858216.847854-.182662.161637-.134521.176224-.141815.152146-.215561.226272-.438308.463043-.858185.847869-.182662.161637-.134429.17627-.141754.152161-.215622.226257-.438369.463028-.858246.84787-.182662.161636-.134414.176254-.141723.15213-.215637.226242-.4384.463043-.858277.847916-.182678.161667-.133926.176193-.140457.151626-.997802.751633-2.079132.915757-3.61409.215088-.361404-.237961-.381652-.191894-.359527-.203888-.229203-.213272-.464463-.431854-.841095-.850189-.157456-.182449-.181061-.138214-.158936-.150009-.229172-.213074-.464432-.431656-.841064-.849991-.157456-.182449-.181061-.138214-.158936-.150009-.229156-.213089-.464416-.431671-.841079-.849991-.157456-.182449-.181046-.138214-.158921-.149994-.229172-.213089-.464432-.431671-.841095-.850006-.157455-.182449-.18103-.138214-.158905-.149994-.229172-.213104-.464432-.431701-.841125-.850006-.157471-.182449-.181-.138199-.158875-.149963-.229172-.213105-.464432-.431732-.841141-.850052-.157516-.182434-.180984-.138184-.158859-.149918-.229141-.213135-.464416-.431778-.841186-.850082-.157517-.182434-.180939-.138184-.158814-.149887-.229141-.21315-.464416-.431809-.841186-.850098-.157532-.182449-.180939-.138199-.158814-.149902-.229126-.213135-.464386-.431793-.841202-.850098-.157531-.182449-.180923-.138214-.158798-.149902-.229126-.21312-.464386-.431778-.841186-.850098-.157547-.182449-.180939-.138214-.158814-.149902-.229126-.21312-.464386-.431778-.841186-.850098-.157547-.182449-.180939-.138214-.158814-.149902-.229126-.21312-.464386-.431778-.841186-.850098-.157547-.182449-.180939-.138214-.158814-.149902-.229126-.21312-.464386-.431778-.841186-.850098-.157547-.182449-.180939-.138214-.158814-.149902-.229126-.21312-.464386-.431778-.841186-.850098-.157547-.182449-.180939-.138214-.158814-.149902-.229126-.21312-.464386-.431778-.841186-.850098-.157547-.182449-.180939-.138214-.158814-.149902-.229126-.21312-.464386-.431778-.841186-.850098-.157547-.182449-.180939-.138214-.158814-.149902-.229126-.21312-.464386-.431778-.841186-.850098-.157547-.182449-.180939-.138214-.158814-.149902-.229126-.21312-.464386-.431778-.841186-.850098-.157547-.182449-.180939-.138214-.158814-.149902-.229126-.21312-.464386-.431778-.841186-.850098-.157547-.182449-.180939-.138214-.158814-.149902-.229126-.21312-.464386-.431778-.841186-.850098-.157547-.182449-.180939-.138214-.158814-.149902-.229126-.21312-.464386-.431778-.841186-.850098-.157547-.182449-.180939-.138214-.158814-.149902-.229126-.21312-.464386-.431778-.841202-.850098-.157547-.182449-.180923-.138214-.158798-.149902-.229126-.21312-.464386-.431778-.841217-.850098-.157562-.182449-.180908-.138214-.158783-.149872-.229126-.21315-.464416-.431839-.841308-.850158-.157593-.182434-.180817-.138184-.158676-.149781-.229111-.213195-.464417-.431945-.841446-.85025-.157669-.182434-.180695-.138153-.158539-.149658-.22908-.213226-.464417-.432068-.841629-.850388-.157761-.182403-.180374-.137054-.157212-.147323-.525924-.540573-.684661-1.228821-.679473-2.298706c4.172866-4.513901,8.263595-8.67923,12.520172-13.119065.82344-2.678482-1.060135-1.89331-2.129517-2.081161-2.639786-.46373-5.497971.94397-7.845001-1.268463.385162-.737595.639267-1.13562,1.006714-1.742844.446808-.759598.613693-1.368866.946502-2.235153.203247-.243851.153-.246643.163117-.223602.218246-.228211.441025-.465699.859619-.853394.181183-.16394.133133-.173645.139496-.149979.423385-.426361.503906-1.014694.850357-1.794601.188415-.223404.141342-.226303.151688-.205139.853424-1.01912,1.043746-2.355286,1.827362-3.76593.212555-.247055.162918-.254532.172256-.231232.217468-.227936.440247-.465424.858841-.853119.181183-.16394.133133-.173645.139496-.149979.423385-.426361.503906-1.014694.850357-1.794601.188415-.223404.141342-.226303.151688-.205139.853378-1.019135,1.043777-2.355255,1.827362-3.7659.212555-.24707.162918-.254562.172256-.231262.217468-.227936.440247-.465424.858841-.853119.181183-.16394.133133-.173645.139496-.149979.423385-.426361.503906-1.014694.850357-1.794601.188415-.223404.141342-.226303.151688-.205139.853378-1.019135,1.043777-2.355255,1.827362-3.7659.212555-.24707.162918-.254562.172256-.231262.217468-.227936.440247-.465424.858841-.853119.181183-.16394.133118-.17366.139496-.149994.423126-.426231.503937-1.014229.850433-1.793617.188736-.223023.141815-.227005.152634-.206093.851974-1.020126,1.043075-2.35553,1.82637-3.765991.212525-.246994.162872-.254494.172211-.231186.217499-.227921.440292-.465424.858871-.853134.181168-.163948.133103-.173645.139481-.149971.423126-.426239.503937-1.014237.850433-1.793625.188736-.223023.141815-.227005.152634-.206093.851974-1.020126,1.043075-2.35553,1.82637-3.765991.212525-.246994.162872-.254494.172211-.231186.217499-.227921.440292-.465424.858871-.853134.181168-.163948.133118-.17363.139496-.149964.42305-.426185.503937-1.014076.850479-1.793243.188858-.222855.141739-.22731.152436-.206192.961608-1.48716,2.034988-2.30307,3.763366-.291962.210388.313454.231995.271027.208252.27266.439636.423118.487229,1.025917.835236,1.807556.173569.234169.186477.187538.162826.192596.223374.21743.458939.441826.843979.861733.16095.183487.180649.136978.155792.141449.896485.998664.975937,2.387519,1.811402,3.774421.191986.262451.214203.220696.190613.22229.439727.423088.487365,1.025887.835449,1.807511.173553.234161.186371.187545.16275.192604.223419.217415.458954.441803.843994.861717.16095.183502.180664.13694.155792.141434.896576.99868.975892,2.387665,1.811554,3.774505.192048.262421.214112.220551.190491.222092.439606.423195.487427,1.025932.835388,1.807663.173584.234161.186402.187546.162781.192604.22345.217369.459015.441765.843994.861717.16095.183487.180664.136917.155792.141419.896546.998687.975953,2.387634,1.811554,3.774505.192048.262421.214112.220551.190491.222092.439667.423157.487457,1.025925.835388,1.807663.173584.234161.186402.18753.162781.192596.22345.217377.459015.441773.843994.861725.16095.183487.180664.136917.155792.141419.896546.998687.975953,2.387634,1.811554,3.774505.192048.262421.214112.220551.190491.222092.439667.423157.487457,1.025925.835388,1.807663.173584.234161.186402.18753.162781.192596.22345.217377.459015.441773.843994.861725.16095.183487.180664.136917.155792.141419.896546.998687.975953,2.387634,1.811554,3.774505.192048.262421.214112.220551.190491.222092.439667.423157.487457,1.025925.835388,1.807663.173584.234161.186402.18753.162781.192596.22345.217377.459015.441773.843994.861725.16095.183487.182221.137863.157105.139618.491546.471268.491394,1.164276.870361,2.046417.2164.73909.294769,1.1848.545227,1.785126.842255,2.597244-1.156647,1.385636-1.952545,1.612152-2.533905.721115-5.484253-1.240387-7.631958,1.508271Z" transform="translate(-250.968277,-155.083912)" fill="#d04b3f"/></g><g id="ewI12B5rLAG331_to" transform="translate(250.722763,170.922745)"><path d="M246.346985,178.589401c-3.810272-2.425354-5.62796-9.511093-3.536804-12.731491c2.456909-3.783676,8.598709-4.899368,12.97052-2.356125c2.992767,1.740998,4.829498,9.536438,3.012451,12.785309-1.805451,3.228119-8.264008,4.560837-12.446167,2.302307Z" transform="translate(-250.722763,-170.922745)" fill="#327137"/></g></svg>
