<svg version="1.1" id="Layer_1" xmlns="http://www.w3.org/2000/svg" xmlns:xlink="http://www.w3.org/1999/xlink" x="0px" y="0px"
	 width="100%" viewBox="0 0 500 500" enable-background="new 0 0 500 500" xml:space="preserve">
<path fill="#737373" opacity="1.000000" stroke="none" 
	d="
M269.326782,500.625549 
	C181.037323,501.000000 93.074615,500.980591 5.112046,501.078186 
	C1.933166,501.081726 0.889753,500.769806 0.892517,497.115265 
	C1.016650,333.018311 1.018125,168.921249 0.886774,4.824305 
	C0.883749,1.045892 2.118547,0.928830 5.172460,0.931842 
	C91.135811,1.016628 177.099258,1.000000 263.531342,1.000000 
	C265.392517,2.356493 266.008331,4.022177 266.009674,5.949497 
	C266.010284,6.782160 266.067169,7.615616 266.055847,8.448582 
	C265.367096,59.095016 266.989288,109.725807 267.310059,160.365768 
	C267.537903,196.336472 267.168091,232.337784 268.327728,268.279999 
	C269.300781,298.438873 267.951172,328.595276 269.222046,358.703247 
	C270.579132,390.854645 269.195221,423.006134 270.283752,455.124725 
	C270.718109,467.940887 270.880280,480.745209 271.040680,493.557495 
	C271.069550,495.865479 271.310272,498.269257 269.326782,500.625549 
z"/>
<path fill="#2B7835" opacity="1.000000" stroke="none" 
	d="
M343.672974,1.374680 
	C361.687561,1.000000 379.375122,1.000000 397.531342,1.000000 
	C399.392517,2.356490 400.008331,4.022172 400.009674,5.949491 
	C400.010284,6.782153 400.065948,7.615562 400.056122,8.448582 
	C399.460297,58.927654 400.964630,109.393394 401.346588,159.864929 
	C401.607452,194.336075 401.071899,228.840378 402.308197,263.280029 
	C403.390869,293.439301 401.952728,323.595520 403.221710,353.703644 
	C404.576782,385.854980 403.136627,418.009583 404.294617,450.124329 
	C404.816956,464.611969 404.806305,479.080719 405.039795,493.557709 
	C405.077026,495.865082 405.310150,498.269318 403.326782,500.625580 
	C385.312439,501.000000 367.624878,501.000000 349.468658,501.000000 
	C347.607513,499.643524 346.987610,497.977905 346.991486,496.050537 
	C346.992828,495.384521 346.942535,494.717865 346.949158,494.051422 
	C347.296204,459.071259 346.043640,424.106659 345.706970,389.133118 
	C345.317322,348.659058 345.800323,308.164642 344.664612,267.718292 
	C343.813080,237.394348 345.049957,207.069473 343.773224,176.795273 
	C342.410248,144.476501 344.047943,112.146118 342.706512,79.875389 
	C341.729889,56.380119 342.389679,32.915733 341.964020,9.442282 
	C341.916565,6.824675 341.481964,4.058372 343.672974,1.374680 
z"/>
<path fill="#000000" opacity="1.000000" stroke="none" 
	d="
M477.326782,500.625580 
	C464.312439,501.000000 451.624878,501.000000 438.468658,501.000000 
	C436.607483,499.643524 435.991669,497.977844 435.990295,496.050507 
	C435.989716,495.217834 435.934265,494.384460 435.943909,493.551453 
	C436.521790,443.739166 435.004608,393.940979 434.660065,344.135132 
	C434.421570,309.664642 434.899780,275.160461 433.687622,240.720444 
	C432.626068,210.561234 434.044403,180.405243 432.779816,150.296890 
	C431.415405,117.812599 432.868683,85.324478 431.704254,52.876534 
	C431.178345,38.222183 431.200043,23.586678 430.962097,8.943233 
	C430.922089,6.480688 430.582062,3.894137 432.672974,1.374657 
	C445.687561,1.000000 458.375122,1.000000 471.531342,1.000000 
	C473.913147,2.758899 474.061432,5.072642 474.049194,7.448726 
	C473.924805,31.596064 475.355804,55.712124 475.159332,79.872047 
	C474.788177,125.511909 475.826385,171.154922 476.410736,216.785706 
	C476.805328,247.595932 475.916107,278.433472 477.244873,309.204712 
	C478.604614,340.693024 476.909363,372.189392 478.258484,403.626923 
	C479.531189,433.284058 478.569550,462.918274 479.037354,492.557861 
	C479.078644,495.176239 479.517609,497.942139 477.326782,500.625580 
z"/>
<path fill="#000000" opacity="1.000000" stroke="none" 
	d="
M272.673889,1.373777 
	C284.354218,1.000000 295.708466,1.000000 307.531342,1.000000 
	C309.392517,2.356475 310.012390,4.022117 310.008514,5.949466 
	C310.007172,6.615478 310.061401,7.282301 310.050262,7.948581 
	C309.468964,42.764523 311.291534,77.551010 311.188843,112.369774 
	C311.062592,155.174438 311.653442,197.991806 312.390320,240.783585 
	C312.918091,271.432465 311.925171,302.098633 313.239532,332.704041 
	C314.606110,364.524628 312.939575,396.353668 314.292297,428.124329 
	C315.214600,449.786774 314.635590,471.417450 315.038025,493.057831 
	C315.083801,495.519775 315.417603,498.106598 313.326782,500.625549 
	C301.979095,501.000000 290.958221,501.000000 279.468658,501.000000 
	C275.975189,497.016937 276.020508,492.273529 275.996063,487.672485 
	C275.859863,462.027832 276.665039,436.356842 275.753082,410.743713 
	C274.579590,377.785339 276.008881,344.813019 274.717438,311.900635 
	C273.508850,281.099487 275.086792,250.297165 273.762695,219.549026 
	C272.393494,187.752975 274.085968,155.947754 272.740753,124.201416 
	C271.442719,93.568756 272.609680,62.954151 271.834198,32.345398 
	C271.628204,24.213852 270.693115,16.094845 270.947601,7.935645 
	C271.014771,5.781772 270.810059,3.567998 272.673889,1.373777 
z"/>
<path fill="#DDDDCD" opacity="1.000000" stroke="none" 
	d="
M316.673035,1.374614 
	C322.688049,1.000000 328.376068,1.000000 334.532043,1.000000 
	C336.392517,2.356492 337.008331,4.022176 337.009674,5.949496 
	C337.010284,6.782159 337.066681,7.615595 337.055969,8.448585 
	C336.405121,59.094723 338.012054,109.725334 338.316223,160.365692 
	C338.528259,195.669189 338.164581,231.004944 339.325195,266.279968 
	C340.317535,296.438995 338.951904,326.595337 340.221161,356.703430 
	C341.590546,389.187958 340.179993,421.673370 341.286438,454.124695 
	C341.734833,467.275055 341.863770,480.412415 342.040436,493.557556 
	C342.071472,495.865387 342.310272,498.269287 340.326752,500.625549 
	C334.311951,501.000000 328.623932,501.000000 322.467957,501.000000 
	C320.607513,499.643524 319.987518,497.977905 319.991425,496.050537 
	C319.992767,495.384521 319.936340,494.717590 319.950043,494.051453 
	C320.665863,459.234131 318.754272,424.444305 318.899475,389.630341 
	C319.091919,343.488312 318.178375,297.346558 317.590881,251.215652 
	C317.196411,220.238861 318.080475,189.235291 316.757172,158.296890 
	C315.410339,126.809189 317.019440,95.316147 315.702698,63.876820 
	C314.935059,45.548199 315.310059,27.250635 314.962524,8.942744 
	C314.915802,6.480873 314.582062,3.893902 316.673035,1.374614 
z"/>
<path fill="#DDDDCD" opacity="1.000000" stroke="none" 
	d="
M407.673279,1.374418 
	C413.354919,1.000000 418.709869,1.000000 424.532410,1.000000 
	C426.910004,2.757720 426.936890,5.076604 427.067474,7.441799 
	C428.398499,31.548656 427.776642,55.681087 428.120239,79.800392 
	C428.715240,121.568794 428.469696,163.353699 429.369110,205.102798 
	C430.025269,235.562027 428.919739,266.031281 430.236725,296.442596 
	C431.613525,328.234589 429.916016,360.035858 431.257385,391.778503 
	C432.565704,422.740021 431.530243,453.680450 432.067596,484.624390 
	C432.110962,487.121399 432.205261,489.593536 432.658295,492.074005 
	C433.165894,494.853058 433.505310,497.715973 431.325134,500.625488 
	C425.311951,501.000000 419.623932,501.000000 413.467957,501.000000 
	C411.086792,499.241119 410.953064,496.927246 410.948578,494.551331 
	C410.902863,470.406494 409.662537,446.286987 409.846283,422.128357 
	C410.188354,377.154999 409.172272,332.178864 408.589081,287.215027 
	C408.187317,256.237946 409.084503,225.234314 407.756561,194.296341 
	C406.404968,162.808197 408.088898,131.311722 406.737732,99.874504 
	C405.441589,69.717514 406.450623,39.583260 405.962769,9.443992 
	C405.920410,6.825087 405.482300,4.058519 407.673279,1.374418 
z"/>
<path fill="#737373" opacity="1.000000" stroke="none" 
	d="
M481.673279,1.374391 
	C487.661896,1.000000 493.325745,1.082762 498.984497,0.949415 
	C500.675476,0.909567 501.369415,1.194719 501.026001,2.987305 
	C500.872162,3.790463 501.000000,4.647586 501.000000,5.480218 
	C501.000000,169.175629 500.982910,332.871063 501.103638,496.566376 
	C501.106506,500.457031 500.096375,501.494141 496.433472,501.064972 
	C493.640869,500.737793 490.779205,501.000000 487.474121,501.000000 
	C485.086792,499.241119 484.953064,496.927246 484.948547,494.551331 
	C484.902863,470.406494 483.659821,446.286987 483.846924,422.128265 
	C484.195282,377.154877 483.178589,332.178589 482.589874,287.214905 
	C482.184265,256.237610 483.084503,225.234146 481.756561,194.296158 
	C480.404999,162.807999 482.088898,131.311508 480.737732,99.874268 
	C479.441559,69.717262 480.450623,39.582989 479.962738,9.443706 
	C479.920380,6.824868 479.482269,4.058359 481.673279,1.374391 
z"/>
<path fill="#99B693" opacity="1.000000" stroke="none" 
	d="
M407.545898,1.000000 
	C408.044800,30.990091 407.709442,60.988071 408.331696,90.966179 
	C408.562927,102.105461 408.864594,113.256912 408.962311,124.402145 
	C409.406372,175.034576 409.186737,225.680450 410.324493,276.296326 
	C411.020905,307.277374 410.059509,338.265320 411.244476,369.211243 
	C412.449860,400.690063 411.233795,432.172241 412.275421,463.625946 
	C412.677765,475.775818 412.757996,487.917511 412.997314,500.531342 
	C409.969391,501.000000 406.938812,501.000000 403.454102,501.000000 
	C402.615723,456.369904 402.650452,411.730896 401.703766,367.112732 
	C401.042969,335.969635 401.729309,304.819702 400.755798,273.695953 
	C399.776520,242.389297 400.729065,211.069946 399.751709,179.780136 
	C398.779022,148.639557 399.695740,117.488655 398.757965,86.363426 
	C397.910065,58.219944 398.225586,30.079048 397.998962,1.468656 
	C401.030609,1.000000 404.061188,1.000000 407.545898,1.000000 
z"/>
<path fill="#464646" opacity="1.000000" stroke="none" 
	d="
M272.550018,1.000000 
	C274.096161,36.968334 273.444000,72.961838 274.290924,108.924072 
	C275.059875,141.572968 274.214386,174.231232 275.287415,206.855499 
	C276.300964,237.671753 275.181488,268.497620 276.252869,299.288818 
	C277.354004,330.936188 276.183319,362.596558 277.280548,394.220734 
	C278.343964,424.869385 277.550140,455.516388 278.165955,486.157318 
	C278.259491,490.811432 278.632812,495.459930 278.938354,500.555511 
	C275.969391,501.000000 272.938812,501.000000 269.454102,501.000000 
	C268.513428,458.198242 268.413574,415.385925 267.666656,372.596161 
	C267.125916,341.617981 268.010956,310.626038 266.790863,279.683746 
	C265.536377,247.869949 267.029694,216.044968 265.771820,184.271057 
	C264.578247,154.121201 265.985382,123.967026 264.804108,93.856094 
	C263.601837,63.209736 264.396454,32.573578 263.981018,1.468363 
	C266.700012,1.000000 269.400024,1.000000 272.550018,1.000000 
z"/>
<path fill="#464646" opacity="1.000000" stroke="none" 
	d="
M481.545898,1.000000 
	C482.024597,30.828188 481.478149,60.672138 482.300842,90.478302 
	C482.751129,106.793350 482.901337,123.098366 482.945709,139.404739 
	C483.069885,185.043289 483.792328,230.679871 484.362701,276.308777 
	C484.747803,307.115570 483.981720,337.945221 485.208374,368.720703 
	C486.469757,400.368042 485.164368,432.016724 486.246796,463.634033 
	C486.662720,475.781738 486.699615,487.921539 486.998657,500.531342 
	C483.969391,501.000000 480.938812,501.000000 477.454102,501.000000 
	C476.839447,469.863373 477.327057,438.730286 476.359985,407.588562 
	C475.631195,384.118896 476.465729,360.602997 475.872955,337.126160 
	C474.956268,300.823181 475.684906,264.503876 474.697540,228.218689 
	C473.849976,197.072098 474.842072,165.919006 473.749481,134.800354 
	C472.656036,103.656715 473.693207,72.507309 472.736877,41.382313 
	C472.332794,28.230545 472.249634,15.085298 472.017609,1.468390 
	C475.030609,1.000000 478.061188,1.000000 481.545898,1.000000 
z"/>
<path fill="#99B693" opacity="1.000000" stroke="none" 
	d="
M340.449982,501.000000 
	C339.626923,457.531921 339.831390,414.048584 338.685699,370.600891 
	C337.868713,339.618713 338.942139,308.631744 337.755188,277.685974 
	C336.554138,246.373932 337.931000,215.050751 336.747711,183.771622 
	C335.563171,152.459259 336.933868,121.136230 335.744324,89.857285 
	C334.629517,60.542850 335.407379,31.239508 334.969055,1.467867 
	C337.700012,1.000000 340.400024,1.000000 343.550018,1.000000 
	C343.646149,33.974823 344.440948,66.938873 344.827515,99.907883 
	C345.440613,152.198578 345.345398,204.500305 346.320740,256.782990 
	C346.898590,287.759399 346.297211,318.743134 347.258514,349.700836 
	C348.230652,381.007965 347.374939,412.324585 348.264069,443.618408 
	C348.798706,462.435608 348.777222,481.247925 348.993530,500.531372 
	C346.299988,501.000000 343.599976,501.000000 340.449982,501.000000 
z"/>
<path fill="#55554F" opacity="1.000000" stroke="none" 
	d="
M316.550018,1.000000 
	C317.568268,55.617054 318.168152,110.233803 318.696075,164.851257 
	C319.244995,221.636658 319.687164,278.423096 320.244751,335.208405 
	C320.784302,390.160248 321.411316,445.111298 321.999969,500.531342 
	C319.299988,501.000000 316.599976,501.000000 313.449951,501.000000 
	C312.617523,448.374451 312.518341,395.744507 311.707886,343.125549 
	C311.400146,323.146118 311.181152,303.167328 311.000427,283.187103 
	C310.620819,241.221039 310.672577,199.245163 309.717255,157.292206 
	C309.023285,126.814514 309.571045,96.335274 308.784760,65.873260 
	C308.234558,44.559563 308.075714,23.251480 308.000854,1.468657 
	C310.700012,1.000000 313.400024,1.000000 316.550018,1.000000 
z"/>
<path fill="#56564F" opacity="1.000000" stroke="none" 
	d="
M431.437500,501.000000 
	C429.611328,469.873901 430.227997,438.723267 429.870239,407.584656 
	C429.133606,343.471039 428.457764,279.356750 427.767212,215.242630 
	C427.094604,152.793732 426.447266,90.344551 425.754852,27.895874 
	C425.658875,19.237703 425.367950,10.581696 425.083618,1.462343 
	C427.370575,1.000000 429.741119,1.000000 432.555847,1.000000 
	C433.377747,46.297226 433.336060,91.603203 434.280823,136.888596 
	C434.909698,167.032608 434.347198,197.182007 435.209167,227.306931 
	C436.128815,259.447235 435.345306,291.598114 436.250214,323.720978 
	C437.113464,354.363953 436.359711,385.013428 437.219299,415.638641 
	C438.009277,443.782593 437.827423,471.921997 438.024170,500.531860 
	C435.958344,501.000000 433.916656,501.000000 431.437500,501.000000 
z"/>
</svg>