<svg version="1.1" id="Layer_1" xmlns="http://www.w3.org/2000/svg" xmlns:xlink="http://www.w3.org/1999/xlink" x="0px" y="0px"
	 width="100%" viewBox="0 0 500 500" enable-background="new 0 0 500 500" xml:space="preserve">
<path fill="#737373" opacity="1.000000" stroke="none" 
	d="
M346.156677,500.679932 
	C232.403885,501.000000 118.807739,500.976440 5.211765,501.104950 
	C1.509086,501.109131 0.907399,500.223877 0.910593,496.716827 
	C1.018308,378.457092 1.000000,260.197174 1.000000,141.468658 
	C3.433911,140.127350 4.723075,141.989105 6.072000,143.314499 
	C20.569155,157.558701 34.424133,172.424011 48.296360,187.268768 
	C56.484638,196.031082 64.979019,204.503189 73.290955,213.138687 
	C85.416977,225.736694 97.493469,238.395340 109.647072,250.969574 
	C134.067688,276.235199 158.273102,301.709778 182.655045,327.015259 
	C196.749771,341.643829 210.789017,356.331421 224.798859,371.043274 
	C248.687775,396.129303 272.678497,421.115204 296.714111,446.060486 
	C311.503510,461.409576 325.957214,477.082916 340.990479,492.201691 
	C343.301453,494.525757 346.054413,496.655579 346.156677,500.679932 
z"/>
<path fill="#737373" opacity="1.000000" stroke="none" 
	d="
M169.847900,1.322100 
	C278.929535,1.000000 387.859070,1.024563 496.788452,0.894937 
	C500.491425,0.890530 501.092834,1.776515 501.089508,5.283174 
	C500.980988,118.876274 501.000000,232.469482 501.000000,346.531342 
	C498.693970,347.565765 497.791138,345.607788 496.579620,344.403809 
	C475.792572,323.746582 455.971375,302.155334 435.532684,281.157959 
	C420.557953,265.773895 405.789276,250.179840 390.954651,234.655716 
	C367.838745,210.465347 344.677551,186.319733 321.508575,162.180450 
	C306.639709,146.688904 291.799561,131.168549 276.950989,115.657097 
	C253.813950,91.487160 230.664993,67.328407 207.547775,43.140465 
	C195.935532,30.990370 183.989578,19.146101 172.784775,6.605000 
	C171.467392,5.130503 169.809799,3.867958 169.847900,1.322100 
z"/>
<path fill="#2B7835" opacity="1.000000" stroke="none" 
	d="
M500.784821,467.719238 
	C501.000000,477.942841 500.853485,487.889160 501.091217,497.826294 
	C501.160553,500.724243 500.344666,501.104095 497.707794,501.072601 
	C484.452545,500.914368 471.194427,501.000000 457.468658,501.000000 
	C454.206238,499.754333 451.900055,497.941406 450.178680,495.371735 
	C449.345398,494.127777 448.248108,493.079498 447.182465,492.023468 
	C426.124481,471.155029 406.106445,449.281372 385.416809,428.053925 
	C369.498657,411.721985 353.776031,395.188904 338.019196,378.696320 
	C322.721436,362.684296 307.356476,346.737671 292.055206,330.730652 
	C276.753113,314.722748 261.390381,298.773712 246.087585,282.767914 
	C230.784058,266.761383 215.429169,250.804825 200.121964,234.803024 
	C184.814209,218.800644 169.454880,202.847961 154.156189,186.838242 
	C138.511276,170.466187 122.798241,154.161133 107.133659,137.809418 
	C91.814560,121.818359 76.458549,105.862091 61.164253,89.848343 
	C45.753937,73.713112 30.289061,57.630585 14.907703,41.470760 
	C10.152617,36.475014 4.586413,31.982704 1.214239,25.281128 
	C1.000000,18.205730 1.246280,11.398749 0.896569,4.622527 
	C0.720523,1.211366 1.997437,0.917037 4.840411,0.939262 
	C20.913677,1.064914 36.988434,1.000000 53.531342,1.000000 
	C58.793144,2.996239 62.142818,6.842830 65.292572,10.629229 
	C74.260651,21.409975 84.674324,30.797586 94.209183,41.029507 
	C104.756218,52.347610 115.546486,63.476673 126.344307,74.579124 
	C152.232208,101.197357 177.681442,128.238007 203.538376,154.889069 
	C218.143906,169.943176 232.544510,185.202072 247.057114,200.350357 
	C270.900238,225.237915 294.713104,250.153320 318.628510,274.972321 
	C333.068146,289.957489 347.409302,305.040985 361.798615,320.076630 
	C385.744171,345.097778 409.678131,370.128448 433.716797,395.060944 
	C448.276581,410.162018 462.615997,425.476074 477.232727,440.527710 
	C484.072968,447.571442 490.575348,454.950317 497.625488,461.799988 
	C499.240051,463.368622 500.274353,465.200592 500.784821,467.719238 
z"/>
<path fill="#000000" opacity="1.000000" stroke="none" 
	d="
M500.785583,359.718872 
	C501.000000,378.020905 501.000000,396.041779 501.000000,414.531342 
	C498.421448,416.667938 496.887787,414.611176 495.463074,413.188324 
	C482.147736,399.890045 469.287598,386.150940 456.324432,372.512146 
	C455.179657,371.307678 454.150055,369.988159 452.966339,368.813934 
	C431.916290,347.932831 411.895355,326.057343 391.195099,304.835052 
	C375.734528,288.984619 360.512360,272.891327 345.201996,256.889679 
	C329.891296,240.887695 314.536285,224.928452 299.233276,208.920349 
	C283.814453,192.791138 268.326965,176.728317 252.915695,160.593643 
	C237.733719,144.699005 222.470840,128.882736 207.293243,112.985893 
	C191.884384,96.846840 176.392593,80.788536 160.976929,64.657928 
	C145.790543,48.767231 130.766006,32.723526 115.307190,17.093384 
	C111.796402,13.543695 108.843819,9.475516 105.269783,5.965344 
	C104.095436,4.811977 102.992676,3.460814 103.775719,1.276284 
	C121.354225,1.000000 138.708450,1.000000 156.531342,1.000000 
	C162.820465,3.627041 166.794189,8.514256 170.725632,13.136329 
	C179.806412,23.812334 190.062180,33.349255 199.670181,43.496601 
	C212.025635,56.545609 224.561264,69.455696 237.043686,82.394981 
	C260.967041,107.193932 284.713409,132.164856 308.630463,156.972778 
	C323.186523,172.071045 337.627808,187.283066 352.136688,202.429047 
	C375.973999,227.313095 399.782104,252.223984 423.692963,277.038269 
	C438.592133,292.500427 453.489075,307.974762 468.192291,323.617371 
	C477.882019,333.926117 488.322418,343.523621 497.440430,354.372345 
	C498.742981,355.922180 499.851654,357.548645 500.785583,359.718872 
z"/>
<path fill="#000000" opacity="1.000000" stroke="none" 
	d="
M407.224426,500.723389 
	C391.645782,501.000000 376.291534,501.000000 360.468658,501.000000 
	C352.354675,496.845001 347.318481,489.848572 341.404083,483.822113 
	C339.664154,482.049255 338.189240,480.003143 336.411621,478.239075 
	C315.482208,457.469208 295.565216,435.720947 274.985474,414.610016 
	C259.644409,398.872955 244.520630,382.913208 229.335388,367.020020 
	C213.573578,350.523285 197.706436,334.128632 181.950195,317.628998 
	C166.768097,301.730560 151.498184,285.916992 136.320831,270.016205 
	C113.208107,245.801849 90.040581,221.642181 66.840561,197.511658 
	C51.605690,181.665741 36.494354,165.700500 21.223127,149.886627 
	C15.560156,144.022415 10.159571,137.890533 4.334061,132.171494 
	C2.985578,130.847641 2.129030,129.267212 1.214435,127.281021 
	C1.000000,110.979103 1.000000,94.958214 1.000000,78.468658 
	C4.091600,76.287300 5.554938,78.942345 7.263050,80.496696 
	C16.265593,88.688896 24.044498,98.068474 32.548233,106.750305 
	C59.454151,134.219711 85.714340,162.310883 112.523834,189.876358 
	C127.258347,205.026382 141.761414,220.408737 156.383698,235.672409 
	C180.102432,260.431549 203.777802,285.231018 227.578720,309.912354 
	C242.249802,325.126160 256.806580,340.453461 271.428101,355.717255 
	C295.146118,380.477081 318.823364,405.274719 342.621094,429.959076 
	C357.290558,445.175018 371.701019,460.640564 386.479004,475.758362 
	C392.756714,482.180420 398.649750,488.984161 405.055328,495.298767 
	C406.444550,496.668274 408.040771,498.088959 407.224426,500.723389 
z"/>
<path fill="#DDDDCD" opacity="1.000000" stroke="none" 
	d="
M1.245560,65.253967 
	C1.000000,56.312435 1.000000,47.624874 1.000000,38.468655 
	C3.433333,37.127201 4.804143,38.932858 6.056956,40.323158 
	C16.425562,51.829659 27.765949,62.406860 38.085098,73.959793 
	C46.183929,83.026955 54.949326,91.471306 63.373722,100.224113 
	C75.726936,113.058891 88.045944,125.940964 100.420570,138.757339 
	C124.590042,163.789642 148.560120,189.015503 172.716324,214.063446 
	C187.161484,229.041809 201.491882,244.134369 215.884445,259.165710 
	C239.835068,284.179382 263.768738,309.208069 287.796478,334.148376 
	C302.118500,349.014374 316.338379,363.981934 330.618622,378.890472 
	C354.689117,404.020111 378.748749,429.159424 402.861786,454.248535 
	C415.664825,467.569763 428.433716,480.930756 441.149078,494.339386 
	C442.835663,496.117950 445.053467,497.569397 445.152039,500.677948 
	C436.645782,501.000000 428.291534,501.000000 419.468658,501.000000 
	C414.514252,498.213165 411.763550,493.707825 408.127716,490.084320 
	C398.451599,480.441223 389.238495,470.356323 379.687927,460.600159 
	C360.116547,440.607422 341.006317,420.173767 321.502502,400.115234 
	C306.648254,384.838470 291.952393,369.397308 277.246490,353.973083 
	C253.691727,329.267822 230.077850,304.621948 206.385330,280.048584 
	C191.825302,264.947235 177.386047,249.726334 162.871811,234.578430 
	C139.025833,209.691422 115.207207,184.779205 91.300919,159.949356 
	C76.519989,144.597412 61.786346,129.196564 47.065437,113.786110 
	C32.689171,98.736443 18.406303,83.597618 3.857118,68.713737 
	C2.908120,67.742912 2.329058,66.538849 1.245560,65.253967 
z"/>
<path fill="#DDDDCD" opacity="1.000000" stroke="none" 
	d="
M500.760254,426.740387 
	C501.000000,435.354218 501.000000,443.708466 501.000000,452.531342 
	C498.801208,453.862946 497.524658,452.259430 496.292633,451.029877 
	C484.270477,439.031372 472.791840,426.508087 460.979889,414.305573 
	C459.596436,412.876373 458.414307,411.242828 456.992706,409.833069 
	C435.942627,388.957947 415.927917,367.082367 395.228424,345.865112 
	C379.768494,330.018524 364.545288,313.930359 349.242584,297.925934 
	C333.824158,281.800476 318.344208,265.734619 302.929993,249.606644 
	C287.745270,233.718781 272.502289,217.887497 257.316162,202.002426 
	C241.899002,185.875702 226.419952,169.809052 211.003891,153.682800 
	C195.817276,137.796555 180.554962,121.982971 165.384735,106.083054 
	C142.282730,81.869835 119.111763,57.724510 95.956276,33.563602 
	C88.353065,25.630255 80.664177,17.778824 73.068321,9.838459 
	C70.795250,7.462293 68.209213,5.208465 67.846588,1.321725 
	C76.020897,1.000000 84.041801,1.000000 92.531349,1.000000 
	C98.696892,5.137880 103.442093,10.314823 108.117264,15.480212 
	C119.294533,27.829475 131.037354,39.634365 142.569519,51.636719 
	C161.258179,71.087387 179.824402,90.655777 198.624298,110.002174 
	C213.124924,124.924324 227.407394,140.065506 241.805649,155.091965 
	C265.765503,180.097214 289.687103,205.138077 313.720093,230.073990 
	C327.813873,244.697250 341.787781,259.439392 355.841980,274.103760 
	C380.150513,299.467621 404.414886,324.872711 428.797852,350.165985 
	C442.546417,364.427856 456.133881,378.848724 469.876221,393.121002 
	C479.000214,402.596863 487.858215,412.329407 497.307312,421.490509 
	C498.781311,422.919617 499.738159,424.631744 500.760254,426.740387 
z"/>
<path fill="#99B794" opacity="1.000000" stroke="none" 
	d="
M67.535355,1.000000 
	C69.864899,3.325210 71.562767,5.811048 73.620483,7.950828 
	C94.629753,29.797909 115.730400,51.557114 136.740189,73.403694 
	C160.170563,97.767265 183.537048,122.192291 206.924271,146.597336 
	C229.504532,170.160324 252.071930,193.735626 274.652039,217.298782 
	C298.039062,241.703979 321.437866,266.097900 344.825378,290.502625 
	C367.405914,314.065338 389.976135,337.637878 412.555450,361.201782 
	C435.711121,385.367157 458.968842,409.435974 481.966095,433.751129 
	C488.030640,440.163239 494.061005,446.595276 500.688171,452.879517 
	C501.000000,457.689240 501.000000,462.378510 501.000000,467.533875 
	C483.052917,449.200958 465.137421,430.371643 447.152679,411.608643 
	C397.803925,360.124329 348.421448,308.672272 299.061432,257.198669 
	C269.653809,226.531815 240.265518,195.846390 210.864685,165.173004 
	C163.592255,115.854492 116.313461,66.542076 69.047089,17.217764 
	C64.090790,12.045671 59.199860,6.810925 54.139297,1.302626 
	C58.356899,1.000000 62.713802,1.000000 67.535355,1.000000 
z"/>
<path fill="#9AB794" opacity="1.000000" stroke="none" 
	d="
M445.460632,501.000000 
	C438.170471,493.720398 431.416809,486.367828 424.497253,479.174835 
	C403.368805,457.211548 382.142700,435.342194 361.018158,413.375153 
	C337.704132,389.131317 314.459015,364.821167 291.186554,340.537354 
	C268.375214,316.734741 245.568314,292.927887 222.757385,269.124878 
	C199.600601,244.960999 176.440231,220.800552 153.283401,196.636719 
	C130.472412,172.833786 107.664909,149.027512 84.853981,125.224510 
	C61.697205,101.060616 38.486637,76.947891 15.423676,52.694794 
	C10.837318,47.871758 6.487740,42.824619 1.298839,38.146183 
	C1.000000,33.975456 1.000000,29.950911 1.000000,25.463184 
	C12.042022,36.312370 23.153933,47.557533 34.110970,58.951626 
	C54.547314,80.203156 74.877121,101.557083 95.280670,122.840210 
	C144.158142,173.824722 193.059341,224.786514 241.937805,275.770081 
	C270.296051,305.349640 298.642944,334.940063 326.969879,364.549622 
	C370.265259,409.805328 413.539001,455.081757 456.910950,500.674683 
	C453.307098,501.000000 449.614166,501.000000 445.460632,501.000000 
z"/>
<path fill="#55554F" opacity="1.000000" stroke="none" 
	d="
M1.000000,65.463181 
	C3.535779,64.289474 4.159818,66.691521 5.311294,67.890076 
	C50.995354,115.442108 96.618095,163.053040 142.245499,210.659500 
	C233.730789,306.112854 325.214844,401.567383 416.689667,497.030792 
	C417.719604,498.105652 418.618744,499.305878 419.289490,500.723785 
	C415.307098,501.000000 411.614166,501.000000 407.460632,501.000000 
	C407.286713,498.950806 405.531586,498.131927 404.450287,497.003326 
	C378.414795,469.828400 352.329498,442.701141 326.279449,415.540100 
	C287.090057,374.679199 247.919785,333.799988 208.743057,292.926971 
	C177.862732,260.709595 146.982101,228.492523 116.106758,196.270401 
	C79.356323,157.916885 42.614532,119.555107 5.850571,81.214577 
	C4.604841,79.915421 3.585748,78.292137 1.345362,77.875885 
	C1.000000,73.975456 1.000000,69.950912 1.000000,65.463181 
z"/>
<path fill="#474747" opacity="1.000000" stroke="none" 
	d="
M1.000000,127.464645 
	C6.885553,131.672699 11.768483,137.372772 16.949387,142.751404 
	C38.427738,165.049423 59.788898,187.460281 81.212692,209.810928 
	C113.464958,243.458466 145.738449,277.085632 177.993668,310.730347 
	C199.995026,333.679443 221.973251,356.650665 243.974945,379.599426 
	C275.999695,413.002777 308.041504,446.389709 340.063293,479.795898 
	C346.627869,486.644257 353.136169,493.546570 359.835205,500.712036 
	C355.643097,501.000000 351.286194,501.000000 346.464661,501.000000 
	C344.613098,499.142517 343.402985,497.115540 341.810760,495.454895 
	C330.755035,483.923859 319.603180,472.485046 308.514130,460.985809 
	C290.381409,442.182404 272.256134,423.371735 254.159561,404.533508 
	C239.292770,389.057495 224.476364,373.533081 209.630157,358.037262 
	C186.497025,333.891876 163.356171,309.753845 140.221237,285.610138 
	C125.143524,269.875000 110.073952,254.132034 94.994469,238.398560 
	C79.108482,221.823593 63.151669,205.315948 47.343117,188.667496 
	C32.225128,172.746262 17.483759,156.464096 1.304624,141.136780 
	C1.000000,136.643097 1.000000,132.286194 1.000000,127.464645 
z"/>
<path fill="#474747" opacity="1.000000" stroke="none" 
	d="
M501.000000,359.536804 
	C491.944275,350.698944 482.833221,341.451019 473.843964,332.086151 
	C452.855774,310.220978 431.943420,288.283081 410.968903,266.404785 
	C378.006897,232.022430 345.010193,197.673401 312.045288,163.293839 
	C290.607727,140.936310 269.196472,118.553589 247.780792,96.175117 
	C217.614517,64.652641 187.455048,33.123661 157.146332,1.298730 
	C161.024551,1.000000 165.049088,1.000000 169.536819,0.999998 
	C175.162827,6.633347 180.213745,12.374357 185.510406,17.878925 
	C198.898560,31.792604 212.453995,45.545357 225.838943,59.462086 
	C248.907928,83.447548 271.901093,107.505943 294.920776,131.538788 
	C309.652802,146.919235 324.369629,162.314285 339.103516,177.692963 
	C362.356232,201.963287 385.621643,226.221436 408.873810,250.492249 
	C423.607300,265.871216 438.349792,281.241730 453.045929,296.656311 
	C468.887543,313.272339 484.679840,329.935364 500.746826,346.788940 
	C501.000000,351.024536 501.000000,355.049103 501.000000,359.536804 
z"/>
<path fill="#55554F" opacity="1.000000" stroke="none" 
	d="
M501.000000,426.539368 
	C498.884552,426.825623 498.149048,424.899109 496.956482,423.655701 
	C402.379608,325.048035 307.838684,226.405914 213.293594,127.767784 
	C173.861374,86.628494 134.424973,45.493217 94.999329,4.347623 
	C94.198105,3.511446 93.505302,2.571377 92.880951,1.339890 
	C96.361290,1.000000 99.722572,1.000000 103.541931,1.000000 
	C106.173584,6.797122 111.277428,10.241658 115.268806,14.463072 
	C136.086334,36.480350 157.228058,58.190731 178.207123,80.055733 
	C217.050720,120.539703 255.862717,161.054016 294.682190,201.561127 
	C324.055664,232.211563 353.417847,262.872833 382.789551,293.524994 
	C420.569763,332.952332 458.351410,372.378326 496.150726,411.787354 
	C497.396271,413.085968 498.414886,414.708893 500.654694,415.124512 
	C501.000000,418.692902 501.000000,422.385834 501.000000,426.539368 
z"/>
</svg>