<?xml version="1.0" standalone="no"?>
<!DOCTYPE svg PUBLIC "-//W3C//DTD SVG 20010904//EN"
 "http://www.w3.org/TR/2001/REC-SVG-20010904/DTD/svg10.dtd">
<svg version="1.0" xmlns="http://www.w3.org/2000/svg"
 width="500.000000pt" height="500.000000pt" viewBox="0 0 500.000000 500.000000"
 preserveAspectRatio="xMidYMid meet">

<g transform="translate(0.000000,500.000000) scale(0.100000,-0.100000)"
fill="#000000" stroke="none">
<path d="M2381 4473 c16 -60 35 -129 42 -156 6 -26 17 -46 22 -46 6 1 20 37
32 81 12 44 23 82 25 84 3 2 15 -37 27 -86 13 -50 27 -90 31 -90 6 0 90 294
90 314 0 3 -41 6 -91 6 l-91 0 8 -32 c3 -18 10 -42 14 -53 4 -11 2 -40 -6 -65
-7 -25 -18 -65 -24 -90 -15 -55 -18 -50 -61 113 -18 70 -36 127 -40 127 -4 0
6 -48 22 -107z m249 86 c0 -20 -64 -259 -70 -259 -5 0 -71 246 -70 263 0 12
140 8 140 -4z"/>
<path d="M2390 3770 l0 -160 115 0 115 0 0 40 0 40 -75 0 c-73 0 -75 1 -75 25
0 24 3 25 60 25 l60 0 0 35 0 35 -60 0 c-53 0 -60 2 -60 20 0 18 7 20 75 20
l75 0 0 40 0 40 -115 0 -115 0 0 -160z"/>
<path d="M2402 3123 l-2 -163 120 0 120 0 0 40 0 40 -115 0 -114 0 -4 123 c-2
115 -3 113 -5 -40z"/>
<path d="M2440 2622 c-48 -23 -70 -71 -70 -150 0 -107 45 -162 132 -162 79 0
128 39 128 100 0 16 -7 20 -38 20 -29 0 -39 -5 -47 -22 -13 -29 -51 -35 -76
-12 -14 13 -19 31 -19 71 0 70 12 93 50 93 20 0 35 -8 46 -25 12 -19 25 -25
51 -25 35 0 36 0 30 36 -7 44 -23 63 -64 81 -44 18 -81 16 -123 -5z"/>
<path d="M2433 1971 c-51 -32 -66 -71 -61 -162 3 -70 6 -81 32 -108 89 -93
219 -42 233 91 11 112 -36 187 -124 195 -36 3 -56 -1 -80 -16z m106 -75 c7 -9
11 -41 9 -82 -3 -64 -5 -69 -30 -78 -44 -15 -68 14 -68 81 0 30 5 63 10 74 13
23 62 26 79 5z"/>
<path d="M2370 1171 l0 -161 130 0 130 0 0 160 c0 88 -3 160 -7 160 -5 0 -32
-43 -62 -96 -37 -68 -56 -93 -64 -85 -6 6 -31 47 -56 92 -25 46 -52 84 -58 87
-10 3 -13 -33 -13 -157z m134 -48 c6 2 30 37 54 78 23 41 47 81 52 89 6 10 9
-33 10 -122 l0 -138 -115 0 -115 0 0 138 0 137 52 -93 c29 -51 57 -91 62 -89z"/>
<path d="M2390 520 l0 -160 115 0 115 0 0 40 0 40 -75 0 c-73 0 -75 1 -75 25
0 24 3 25 60 25 l60 0 0 35 0 35 -60 0 c-53 0 -60 2 -60 20 0 18 7 20 75 20
l75 0 0 40 0 40 -115 0 -115 0 0 -160z"/>
</g>
</svg>
