<?xml version="1.0" standalone="no"?>
<!DOCTYPE svg PUBLIC "-//W3C//DTD SVG 20010904//EN"
 "http://www.w3.org/TR/2001/REC-SVG-20010904/DTD/svg10.dtd">
<svg version="1.0" xmlns="http://www.w3.org/2000/svg"
 width="500.000000pt" height="500.000000pt" viewBox="0 0 500.000000 500.000000"
 preserveAspectRatio="xMidYMid meet">

<g transform="translate(0.000000,500.000000) scale(0.100000,-0.100000)"
fill="#000000" stroke="none">
<path d="M650 2730 l0 -210 -54 0 c-52 0 -55 1 -58 28 -2 16 -9 27 -18 27 -12
0 -15 -15 -15 -75 0 -60 3 -75 15 -75 9 0 16 11 18 28 3 26 6 27 58 27 l54 0
0 -230 c0 -223 1 -230 20 -230 19 0 20 7 20 230 l0 230 430 0 430 0 0 -115 c0
-108 1 -115 20 -115 19 0 20 7 20 114 l0 113 92 7 c50 3 246 6 435 6 l343 0 0
-235 c0 -228 1 -235 20 -235 19 0 20 7 20 235 l0 235 490 0 490 0 0 -120 c0
-113 1 -120 20 -120 19 0 20 7 20 120 l0 120 410 0 410 0 0 -235 c0 -228 1
-235 20 -235 19 0 20 7 20 235 l0 235 54 0 c52 0 55 -1 58 -27 2 -17 9 -28 18
-28 12 0 15 15 15 75 0 60 -3 75 -15 75 -9 0 -16 -11 -18 -27 -3 -27 -6 -28
-58 -28 l-54 0 0 205 c0 198 -1 205 -20 205 -19 0 -20 -7 -20 -205 l0 -205
-410 0 -410 0 0 115 c0 108 -1 115 -20 115 -19 0 -20 -7 -20 -113 l0 -114
-122 -6 c-66 -4 -287 -7 -490 -7 l-368 0 0 210 c0 203 -1 210 -20 210 -19 0
-20 -7 -20 -210 l0 -210 -435 0 -435 0 0 120 c0 113 -1 120 -20 120 -19 0 -20
-7 -20 -120 l0 -120 -430 0 -430 0 0 210 c0 203 -1 210 -20 210 -19 0 -20 -7
-20 -210z"/>
</g>
</svg>
